<svg width="258" height="38" viewBox="0 0 258 38" fill="none" xmlns="http://www.w3.org/2000/svg" role="img" aria-label="Massimo Dutti">
<g clip-path="url(#clip0_141_118)">
<path d="M14.1193 30.072L4.59992 0.812881H0V37.2826H1.67989V5.98303L11.8541 37.2826H13.5309L23.6355 6.2457V37.2826H28.0045V0.812881H23.6355L14.1193 30.072Z" fill="black"/>
<path d="M92.2374 6.80384C93.6863 6.80384 94.86 5.28227 94.86 3.40192C94.86 1.52478 93.6863 0 92.2374 0C90.7884 0 89.6147 1.52478 89.6147 3.40192C89.6147 5.27906 90.7884 6.80384 92.2374 6.80384Z" fill="black"/>
<path d="M185.455 0.812881H174.543V37.2826H185.455C193.155 37.2826 198.783 29.1174 198.783 19.0494C198.783 8.12285 193.971 0.812881 185.455 0.812881ZM183.623 35.5464H178.912V2.55228H183.19C190.52 2.55228 194.053 9.58356 194.053 19.0494C194.053 28.2525 191.735 35.5464 183.623 35.5464Z" fill="black"/>
<path d="M256.861 34.4186V10.5219L251.625 12.399V13.0365C251.625 13.0365 252.926 13.2255 252.926 15.2628V34.4154C252.926 36.4527 251.787 36.6417 251.787 36.6417V37.2792H258V36.6417C258 36.6449 256.861 36.4527 256.861 34.4186Z" fill="black"/>
<path d="M60.5522 21.4938C56.8191 19.5269 56.6767 17.4864 56.6767 15.904C56.6767 14.3216 57.7366 12.2106 59.8815 12.1081C62.7604 11.9703 64.6143 14.3472 65.826 19.4917H66.4587V13.0851C66.4587 13.0851 64.1999 10.5641 60.3181 10.5641C56.4363 10.5641 53.3929 13.399 53.3929 17.7171C53.3929 21.0229 55.0032 23.9956 59.6284 26.2603C63.6968 28.2496 64.3549 29.6815 64.3549 31.6803C64.3549 33.6792 63.0262 36.2675 60.4921 36.434C57.5657 36.6262 54.3009 34.0956 54.013 28.7205H53.3802V35.9728C53.7409 36.1874 56.8539 37.9876 60.1852 37.9876C63.7285 37.9876 67.8855 35.6172 67.5913 29.5629C67.3825 25.216 64.2884 23.4606 60.5522 21.4938Z" fill="black"/>
<path d="M48.3721 34.4063V19.1105C48.3721 12.6206 44.3859 10.5641 40.8078 10.5641C36.7615 10.5641 33.5663 13.1331 33.5663 13.1331L33.5631 19.5141H34.199C35.8852 13.3958 38.4161 12.0088 40.7952 12.1049C43.9841 12.2362 44.4397 16.3108 44.4397 19.0368C44.4397 20.1228 43.8955 21.7212 42.9939 22.3138C41.8676 23.0538 40.3965 23.8098 38.5079 24.5049C33.1645 26.4717 32.6298 29.8608 32.5919 31.9398C32.5476 34.2814 34.0978 37.9845 38.2927 37.9845C42.9148 37.9845 44.4365 32.6926 44.4365 32.6926V37.2669H49.511V36.6294C49.5078 36.6327 48.3721 36.4405 48.3721 34.4063ZM44.4365 27.6698C44.4365 27.6698 44.3321 32.1865 41.8835 34.1052C39.2165 36.1938 36.0972 34.2526 36.0972 31.5874C36.0972 25.6741 41.6019 26.0393 44.4365 23.2812V27.6698Z" fill="black"/>
<path d="M78.655 21.4938C74.922 19.5269 74.7796 17.4864 74.7796 15.904C74.7796 14.3216 75.8394 12.2106 77.9843 12.1081C80.8633 11.9703 82.7171 14.3472 83.9288 19.4917H84.5615V13.0851C84.5615 13.0851 82.3027 10.5641 78.4209 10.5641C74.536 10.5641 71.4957 13.399 71.4957 17.7171C71.4957 21.0229 73.106 23.9956 77.7312 26.2603C81.7997 28.2496 82.4577 29.6815 82.4577 31.6803C82.4577 33.6792 81.129 36.2675 78.5949 36.434C75.6686 36.6262 72.4037 34.0956 72.1158 28.7205H71.4831V35.9728C71.8437 36.1874 74.9567 37.9876 78.288 37.9876C81.8313 37.9876 85.9883 35.6172 85.6941 29.5629C85.4853 25.216 82.3913 23.4606 78.655 21.4938Z" fill="black"/>
<path d="M141.156 10.5455C135.788 10.5455 131.435 16.6895 131.435 24.2685C131.435 31.8475 135.788 37.9883 141.156 37.9883C146.525 37.9883 150.878 31.8443 150.878 24.2685C150.878 16.6895 146.528 10.5455 141.156 10.5455ZM141.824 36.4219C138.888 36.5981 136.212 31.2998 135.845 24.5856C135.478 17.8715 137.559 12.2881 140.495 12.1119C143.431 11.9357 146.108 17.234 146.475 23.9482C146.838 30.6623 144.76 36.2457 141.824 36.4219Z" fill="black"/>
<path d="M127.57 34.4031L127.561 17.0796C127.45 13.4631 124.79 10.5641 121.515 10.5641C118.968 10.5641 116.795 12.3163 115.9 14.7924C115.004 12.3163 112.828 10.5641 110.284 10.5641C108.089 10.5641 106.172 11.871 105.109 13.8218V11.2848H99.8728V11.9223C99.8728 11.9223 101.173 12.1145 101.173 14.1486V34.3999C101.173 36.4372 100.034 36.6262 100.034 36.6262V37.2637H106.248V36.6262C106.248 36.6262 105.109 36.434 105.109 34.3999V17.3359C105.109 15.0263 106.741 13.1556 108.756 13.1556C110.772 13.1556 112.404 15.0263 112.404 17.3359V34.4031C112.404 36.4405 111.265 36.6294 111.265 36.6294V37.2669H117.478V36.6294C117.478 36.6294 116.34 36.4372 116.34 34.4031V17.3359C116.34 15.0263 117.972 13.1556 119.987 13.1556C122.002 13.1556 123.635 15.0263 123.635 17.3359V34.4031C123.635 36.4405 122.496 36.6294 122.496 36.6294V37.2669H128.709V36.6294C128.709 36.6294 127.57 36.4372 127.57 34.4031Z" fill="black"/>
<path d="M218.553 34.4092V11.2909H213.317V11.9283C213.317 11.9283 214.618 12.1205 214.618 14.1546V31.2219C214.618 33.5315 212.985 35.4022 210.97 35.4022C208.955 35.4022 207.322 33.5315 207.322 31.2219V11.2909H202.087V11.9283C202.087 11.9283 203.387 12.1205 203.387 14.1546V31.2475C203.387 34.973 206.098 37.9937 209.445 37.9937C211.641 37.9937 213.558 36.6867 214.621 34.7359V37.2729H219.695V36.6355C219.692 36.6355 218.553 36.4433 218.553 34.4092Z" fill="black"/>
<path d="M94.4878 34.4092V11.2909H89.252V11.9283C89.252 11.9283 90.5523 12.1205 90.5523 14.1546V34.406C90.5523 36.4433 89.4134 36.6323 89.4134 36.6323V37.2697H95.6267V36.6323C95.6267 36.6355 94.4878 36.4433 94.4878 34.4092Z" fill="black"/>
<path d="M254.619 6.80384C256.068 6.80384 257.242 5.28227 257.242 3.40192C257.242 1.52478 256.068 0 254.619 0C253.17 0 251.996 1.52478 251.996 3.40192C251.996 5.27906 253.17 6.80384 254.619 6.80384Z" fill="black"/>
<path d="M241.458 3.6989C240.791 11.2972 236.251 11.2972 235.583 11.2972C234.916 11.2972 229.541 11.2972 229.541 11.2972V3.6989H228.079C227.412 11.2972 222.872 11.2972 222.204 11.2972C221.534 11.2972 221.467 11.2972 221.467 11.2972V13.0334H225.605V32.8523C225.605 35.5078 227.459 38 231.135 38C232.771 38 234.112 37.5131 235.315 36.645L234.951 36.0332C234.274 36.3151 233.125 36.4496 232.423 36.4496C230.208 36.4496 229.541 34.4187 229.541 32.7722V13.0334H238.984V32.8523C238.984 35.5078 240.838 38 244.514 38C246.15 38 247.491 37.5131 248.694 36.645L248.333 36.0332C247.656 36.3151 246.507 36.4496 245.805 36.4496C243.591 36.4496 242.923 34.4187 242.923 32.7722V13.0334H249.409V11.2972H242.923V3.6989H241.458Z" fill="black"/>
</g>
<defs>
<clipPath id="clip0_141_118">
<rect width="258" height="38" fill="white"/>
</clipPath>
</defs>
</svg>
