<?xml version="1.0" encoding="UTF-8"?>
<svg width="16px" height="10px" viewBox="0 0 16 10" version="1.1" xmlns="http://www.w3.org/2000/svg" xmlns:xlink="http://www.w3.org/1999/xlink">
    <!-- Generator: Sketch 63.1 (92452) - https://sketch.com -->
    <title>arrow-left</title>
    <desc>Created with Sketch.</desc>
    <defs>
        <path d="M6.18151441,0.6626154 C6.36784678,0.866416429 6.35368563,1.18268204 6.1498846,1.36901441 L2.7245,4.49999688 L14.5625,4.5 C14.8386424,4.5 15.0625,4.72385763 15.0625,5 C15.0625,5.27614237 14.8386424,5.5 14.5625,5.5 L2.7245,5.49999688 L6.1498846,8.63098559 C6.35368563,8.81731796 6.36784678,9.13358357 6.18151441,9.3373846 C5.99518204,9.54118563 5.67891643,9.55534678 5.4751154,9.36901441 L1.1001154,5.36901441 L1.08094335,5.35052456 C1.06826968,5.33763417 1.05628964,5.32405965 1.04506371,5.30986148 L1.1001154,5.36901441 C1.06939916,5.34093098 1.04303438,5.30997119 1.02102108,5.27694999 C1.01206441,5.26334985 1.00345081,5.24893683 0.995564585,5.2340787 C0.989586946,5.22299104 0.984125376,5.21165366 0.979116038,5.20016505 C0.972371972,5.18461243 0.966314268,5.16857953 0.961079979,5.15217888 C0.956927209,5.13911696 0.953360836,5.12607143 0.950331035,5.11292627 C0.946887953,5.09818267 0.944063435,5.08275558 0.941963507,5.06709901 C0.940005716,5.05234013 0.938682356,5.03755108 0.938013241,5.02273773 C0.93766887,5.01512943 0.9375,5.00758443 0.9375,5 L0.937968634,4.97827231 C0.938622541,4.96312119 0.939960771,4.94799435 0.941983322,4.93294262 L0.9375,5 C0.9375,4.96101519 0.941961661,4.92307246 0.950402217,4.88665458 C0.953360836,4.87392857 0.956927209,4.86088304 0.961030155,4.84797243 C0.966314268,4.83142047 0.972371972,4.81538757 0.979204483,4.79977102 C0.984125376,4.78834634 0.989586946,4.77700896 0.995500747,4.76585011 C1.00345081,4.75106317 1.01206441,4.73665015 1.02135791,4.72272972 C1.02844396,4.71191527 1.03636161,4.70101492 1.04477405,4.69038021 C1.05628964,4.67594035 1.06826968,4.66236583 1.08094335,4.64947544 C1.08675531,4.64353513 1.09332916,4.63719016 1.1001154,4.63098559 L5.4751154,0.630985594 C5.67891643,0.444653225 5.99518204,0.458814371 6.18151441,0.6626154 Z" id="path-1"></path>
    </defs>
    <g id="Symbols" stroke="none" stroke-width="1" fill="none" fill-rule="evenodd">
        <g id="01-Base-/-Icons-/-Arrows-Left" transform="translate(-4.000000, -7.000000)">
            <g id="arrow-left" transform="translate(4.000000, 7.000000)">
                <mask id="mask-2" fill="white">
                    <use xlink:href="#path-1"></use>
                </mask>
                <use fill="#000000" fill-rule="nonzero" xlink:href="#path-1"></use>
                <g id="01-Base-/-Color-/-Black" mask="url(#mask-2)" fill="#000000">
                    <g transform="translate(-4.000000, -7.000000)" id="Black">
                        <rect x="0" y="0" width="24" height="24"></rect>
                    </g>
                </g>
            </g>
        </g>
    </g>
</svg>