<?xml version="1.0" encoding="UTF-8"?>
<svg width="16px" height="10px" viewBox="0 0 16 10" version="1.1" xmlns="http://www.w3.org/2000/svg" xmlns:xlink="http://www.w3.org/1999/xlink">
    <!-- Generator: Sketch 63.1 (92452) - https://sketch.com -->
    <title>arrow-right</title>
    <desc>Created with Sketch.</desc>
    <defs>
        <path d="M10.5248846,0.630985594 L14.8998846,4.63098559 L14.9190567,4.64947544 C14.9317303,4.66236583 14.9437104,4.67594035 14.9549363,4.69013852 L14.8998846,4.63098559 C14.9306008,4.65906902 14.9569656,4.69002881 14.9789789,4.72305001 C14.9879356,4.73665015 14.9965492,4.75106317 15.0044354,4.7659213 C15.0104131,4.77700896 15.0158746,4.78834634 15.020884,4.79983495 C15.027628,4.81538757 15.0336857,4.83142047 15.03892,4.84782112 C15.0430728,4.86088304 15.0466392,4.87392857 15.049669,4.88707373 C15.0533144,4.90269044 15.0562596,4.91902195 15.058392,4.93560789 C15.0598713,4.94733377 15.0609398,4.95875452 15.0616177,4.9701943 C15.0621929,4.97961673 15.0625,4.9897725 15.0625,5 L15.0615569,5.03081504 C15.0608973,5.04158082 15.0598916,5.05232918 15.0585398,5.06304184 L15.0625,5 C15.0625,5.03898481 15.0580383,5.07692754 15.0495978,5.11334542 C15.0466392,5.12607143 15.0430728,5.13911696 15.0389698,5.15202757 C15.0336857,5.16857953 15.027628,5.18461243 15.0207955,5.20022898 C15.0158746,5.21165366 15.0104131,5.22299104 15.0044993,5.23414989 C14.9965492,5.24893683 14.9879356,5.26334985 14.9786421,5.27727028 C14.971556,5.28808473 14.9636384,5.29898508 14.955226,5.30961979 C14.9437104,5.32405965 14.9317303,5.33763417 14.9190567,5.35052456 C14.9132447,5.35646487 14.9066708,5.36280984 14.8998846,5.36901441 L10.5248846,9.36901441 C10.3210836,9.55534678 10.004818,9.54118563 9.81848559,9.3373846 C9.63215322,9.13358357 9.64631437,8.81731796 9.8501154,8.63098559 L13.2745,5.49999688 L1.4375,5.5 C1.16135763,5.5 0.9375,5.27614237 0.9375,5 C0.9375,4.72385763 1.16135763,4.5 1.4375,4.5 L13.2745,4.49999688 L9.8501154,1.36901441 C9.64631437,1.18268204 9.63215322,0.866416429 9.81848559,0.6626154 C10.004818,0.458814371 10.3210836,0.444653225 10.5248846,0.630985594 Z" id="path-1"></path>
    </defs>
    <g id="Symbols" stroke="none" stroke-width="1" fill="none" fill-rule="evenodd">
        <g id="01-Base-/-Icons-/-Arrows-Right" transform="translate(-4.000000, -7.000000)">
            <g id="arrow-right" transform="translate(4.000000, 7.000000)">
                <mask id="mask-2" fill="white">
                    <use xlink:href="#path-1"></use>
                </mask>
                <use id="Mask" fill="#000000" fill-rule="nonzero" xlink:href="#path-1"></use>
                <g id="01-Base-/-Color-/-Black" mask="url(#mask-2)" fill="#000000">
                    <g transform="translate(-4.000000, -7.000000)" id="Black">
                        <rect x="0" y="0" width="24" height="24"></rect>
                    </g>
                </g>
            </g>
        </g>
    </g>
</svg>