<?xml version="1.0" encoding="UTF-8"?>
<svg width="10px" height="16px" viewBox="0 0 10 16" version="1.1" xmlns="http://www.w3.org/2000/svg" xmlns:xlink="http://www.w3.org/1999/xlink">
    <!-- Generator: Sketch 63.1 (92452) - https://sketch.com -->
    <title>arrow-down</title>
    <desc>Created with Sketch.</desc>
    <defs>
        <path d="M5,0.9375 C5.27614237,0.9375 5.5,1.16135763 5.5,1.4375 L5.49999688,13.2745 L8.63098559,9.8501154 C8.81731796,9.64631437 9.13358357,9.63215322 9.3373846,9.81848559 C9.54118563,10.004818 9.55534678,10.3210836 9.36901441,10.5248846 L5.36901441,14.8998846 L5.35052456,14.9190567 C5.33763417,14.9317303 5.32405965,14.9437104 5.30986148,14.9549363 L5.36901441,14.8998846 C5.34093098,14.9306008 5.30997119,14.9569656 5.27694999,14.9789789 C5.26334985,14.9879356 5.24893683,14.9965492 5.2340787,15.0044354 C5.22299104,15.0104131 5.21165366,15.0158746 5.20016505,15.020884 C5.18461243,15.027628 5.16857953,15.0336857 5.15217888,15.03892 C5.13911696,15.0430728 5.12607143,15.0466392 5.11292627,15.049669 C5.09689448,15.0534106 5.08013238,15.0564115 5.06310363,15.058556 C5.05232918,15.0598916 5.04158082,15.0608973 5.03081504,15.0615569 C5.02061148,15.062186 5.01034241,15.0625 5,15.0625 L4.9701943,15.0616177 C4.95875452,15.0609398 4.94733377,15.0598713 4.93595396,15.0584121 L5,15.0625 C4.96101519,15.0625 4.92307246,15.0580383 4.88665458,15.0495978 C4.87392857,15.0466392 4.86088304,15.0430728 4.84797243,15.0389698 C4.83142047,15.0336857 4.81538757,15.027628 4.79977102,15.0207955 C4.78834634,15.0158746 4.77700896,15.0104131 4.76585011,15.0044993 C4.75106317,14.9965492 4.73665015,14.9879356 4.72272972,14.9786421 C4.71191527,14.971556 4.70101492,14.9636384 4.69038021,14.955226 C4.67594035,14.9437104 4.66236583,14.9317303 4.64947544,14.9190567 C4.64353513,14.9132447 4.63719016,14.9066708 4.63098559,14.8998846 L0.630985594,10.5248846 C0.444653225,10.3210836 0.458814371,10.004818 0.6626154,9.81848559 C0.866416429,9.63215322 1.18268204,9.64631437 1.36901441,9.8501154 L4.49999688,13.2745 L4.5,1.4375 C4.5,1.16135763 4.72385763,0.9375 5,0.9375 Z" id="path-1"></path>
    </defs>
    <g id="Symbols" stroke="none" stroke-width="1" fill="none" fill-rule="evenodd">
        <g id="01-Base-/-Icons-/-Arrows-Down" transform="translate(-7.000000, -4.000000)">
            <g id="arrow-down" transform="translate(7.000000, 4.000000)">
                <mask id="mask-2" fill="white">
                    <use xlink:href="#path-1"></use>
                </mask>
                <use fill="#000000" fill-rule="nonzero" xlink:href="#path-1"></use>
            </g>
        </g>
    </g>
</svg>