<?xml version="1.0" encoding="UTF-8"?>
<svg width="10px" height="16px" viewBox="0 0 10 16" version="1.1" xmlns="http://www.w3.org/2000/svg" xmlns:xlink="http://www.w3.org/1999/xlink">
    <!-- Generator: Sketch 63.1 (92452) - https://sketch.com -->
    <title>arrow-up</title>
    <desc>Created with Sketch.</desc>
    <defs>
        <path d="M5,0.9375 L5.02273773,0.938013241 C5.03755108,0.938682356 5.05234013,0.940005716 5.06705738,0.941983322 L5,0.9375 C5.03898481,0.9375 5.07692754,0.941961661 5.11334542,0.950402217 C5.12607143,0.953360836 5.13911696,0.956927209 5.15202757,0.961030155 C5.16857953,0.966314268 5.18461243,0.972371972 5.20022898,0.979204483 C5.21165366,0.984125376 5.22299104,0.989586946 5.23414989,0.995500747 C5.24893683,1.00345081 5.26334985,1.01206441 5.27727028,1.02135791 C5.28808473,1.02844396 5.29898508,1.03636161 5.30961979,1.04477405 C5.32405965,1.05628964 5.33763417,1.06826968 5.35052456,1.08094335 C5.35646487,1.08675531 5.36280984,1.09332916 5.36901441,1.1001154 L9.36901441,5.4751154 C9.55534678,5.67891643 9.54118563,5.99518204 9.3373846,6.18151441 C9.13358357,6.36784678 8.81731796,6.35368563 8.63098559,6.1498846 L5.49999688,2.7245 L5.5,14.5625 C5.5,14.8386424 5.27614237,15.0625 5,15.0625 C4.72385763,15.0625 4.5,14.8386424 4.5,14.5625 L4.49999688,2.7245 L1.36901441,6.1498846 C1.18268204,6.35368563 0.866416429,6.36784678 0.6626154,6.18151441 C0.458814371,5.99518204 0.444653225,5.67891643 0.630985594,5.4751154 L4.63098559,1.1001154 L4.64947544,1.08094335 C4.66236583,1.06826968 4.67594035,1.05628964 4.69013852,1.04506371 L4.63098559,1.1001154 C4.65906902,1.06939916 4.69002881,1.04303438 4.72305001,1.02102108 C4.73665015,1.01206441 4.75106317,1.00345081 4.7659213,0.995564585 C4.77700896,0.989586946 4.78834634,0.984125376 4.79983495,0.979116038 C4.81538757,0.972371972 4.83142047,0.966314268 4.84782112,0.961079979 C4.86088304,0.956927209 4.87392857,0.953360836 4.88707373,0.950331035 C4.90173503,0.946907028 4.91707695,0.944094117 4.93264607,0.941997765 C4.94799435,0.939960771 4.96312119,0.938622541 4.97827231,0.937968634 C4.98503824,0.937665138 4.99249984,0.9375 5,0.9375 Z" id="path-1"></path>
    </defs>
    <g id="Symbols" stroke="none" stroke-width="1" fill="none" fill-rule="evenodd">
        <g id="01-Base-/-Icons-/-Arrows-Up" transform="translate(-7.000000, -4.000000)">
            <g id="arrow-up" transform="translate(7.000000, 4.000000)">
                <mask id="mask-2" fill="white">
                    <use xlink:href="#path-1"></use>
                </mask>
                <use fill="#000000" fill-rule="nonzero" xlink:href="#path-1"></use>
                <g id="01-Base-/-Color-/-Black" mask="url(#mask-2)" fill="#000000">
                    <g transform="translate(-7.000000, -4.000000)" id="Black">
                        <rect x="0" y="0" width="24" height="24"></rect>
                    </g>
                </g>
            </g>
        </g>
    </g>
</svg>