<?xml version="1.0" encoding="UTF-8"?>
<svg width="16px" height="16px" viewBox="0 0 16 16" version="1.1" xmlns="http://www.w3.org/2000/svg" xmlns:xlink="http://www.w3.org/1999/xlink">
    <!-- Generator: Sketch 63.1 (92452) - https://sketch.com -->
    <title>chat</title>
    <desc>Created with Sketch.</desc>
    <g id="Symbols" stroke="none" stroke-width="1" fill="none" fill-rule="evenodd" stroke-linecap="round" stroke-linejoin="round">
        <g id="01-Base-/-Icons-/-Chat" transform="translate(-4.000000, -4.000000)" stroke="#000000">
            <g id="chat" transform="translate(4.000000, 4.000000)">
                <path d="M10.5,0.5 L1.5,0.5 C0.9,0.5 0.5,0.9 0.5,1.5 L0.5,7.5 C0.5,8.1 0.9,8.5 1.5,8.5 L3.5,8.5 L3.5,11.5 L6.5,8.5 L10.5,8.5 C11.1,8.5 11.5,8.1 11.5,7.5 L11.5,1.5 C11.5,0.9 11.1,0.5 10.5,0.5 Z" id="Path"></path>
                <path d="M6.5,12.5 L9.5,12.5 L12.5,15.5 L12.5,12.5 L14.5,12.5 C15.1,12.5 15.5,12.1 15.5,11.5 L15.5,5.5 C15.5,4.9 15.1,4.5 14.5,4.5 L13.5,4.5" id="Path"></path>
            </g>
        </g>
    </g>
</svg>