<?xml version="1.0" encoding="UTF-8"?>
<svg width="14px" height="14px" viewBox="0 0 14 14" version="1.1" xmlns="http://www.w3.org/2000/svg" xmlns:xlink="http://www.w3.org/1999/xlink">
    <!-- Generator: Sketch 63.1 (92452) - https://sketch.com -->
    <title>close</title>
    <desc>Created with Sketch.</desc>
    <defs>
        <path d="M1.2843055,0.588591159 L1.35355339,0.646446609 L7,6.293 L12.6464466,0.646446609 C12.8417088,0.451184464 13.1582912,0.451184464 13.3535534,0.646446609 C13.5271197,0.820012961 13.5464049,1.08943736 13.4114088,1.2843055 L13.3535534,1.35355339 L7.707,7 L13.3535534,12.6464466 C13.5488155,12.8417088 13.5488155,13.1582912 13.3535534,13.3535534 C13.179987,13.5271197 12.9105626,13.5464049 12.7156945,13.4114088 L12.6464466,13.3535534 L7,7.707 L1.35355339,13.3535534 C1.15829124,13.5488155 0.841708755,13.5488155 0.646446609,13.3535534 C0.472880258,13.179987 0.453595107,12.9105626 0.588591159,12.7156945 L0.646446609,12.6464466 L6.293,7 L0.646446609,1.35355339 C0.451184464,1.15829124 0.451184464,0.841708755 0.646446609,0.646446609 C0.820012961,0.472880258 1.08943736,0.453595107 1.2843055,0.588591159 Z" id="path-1"></path>
    </defs>
    <g id="Symbols" stroke="none" stroke-width="1" fill="none" fill-rule="evenodd">
        <g id="01-Base-/-Icons-/-Close" transform="translate(-5.000000, -5.000000)">
            <g id="close" transform="translate(5.000000, 5.000000)">
                <mask id="mask-2" fill="white">
                    <use xlink:href="#path-1"></use>
                </mask>
                <use id="Mask" fill="#000000" fill-rule="nonzero" xlink:href="#path-1"></use>
                <g id="01-Base-/-Color-/-Black" mask="url(#mask-2)" fill="#000000">
                    <g transform="translate(-5.000000, -5.000000)" id="Black">
                        <rect x="0" y="0" width="24" height="24"></rect>
                    </g>
                </g>
            </g>
        </g>
    </g>
</svg>