<?xml version="1.0" encoding="UTF-8"?>
<svg width="12px" height="16px" viewBox="0 0 12 16" version="1.1" xmlns="http://www.w3.org/2000/svg" xmlns:xlink="http://www.w3.org/1999/xlink">
    <!-- Generator: Sketch 63.1 (92452) - https://sketch.com -->
    <title>Elements / Icons / Award</title>
    <desc>Created with Sketch.</desc>
    <defs>
        <path d="M8.3,8.1 C8.3,7.10902387 9.1565035,6.25252037 10.0821995,6.40680304 L10.0821995,6.40680304 L10.22995,6.4430576 C10.8707928,6.63664359 11.3346101,7.24254599 11.3936334,7.94753008 L11.3936334,7.94753008 L11.4,8.1 L11.399,10.583 L15.3552158,11.3030581 C16.5010825,11.4303767 17.2852348,12.5209142 17.1220202,13.6243916 L17.1220202,13.6243916 L17.0953106,13.7683187 L16.2953106,19.5683187 C16.2611863,19.8157193 16.0497429,20 15.8,20 L15.8,20 L8.8,20 C8.64697665,20 8.50237866,19.9299275 8.40755862,19.8098221 L8.40755862,19.8098221 L6.88397485,17.8773501 C6.37919134,17.1201748 6.1,16.3384391 6.1,15.5 L6.1,15.5 L6.1,13.8 C6.1,12.9238576 6.82385763,12.2 7.7,12.2 L7.7,12.2 L8.299,12.2 Z M9.84802182,7.38968893 C9.58863248,7.4051841 9.3,7.72506145 9.3,8.1 L9.3,8.1 L9.3,14.4 C9.3,14.6761424 9.07614237,14.9 8.8,14.9 C8.55454011,14.9 8.35039163,14.7231248 8.30805567,14.4898756 L8.3,14.4 L8.3,13.2 L7.7,13.2 C7.40852814,13.2 7.15570563,13.4236753 7.10805584,13.7045026 L7.1,13.8 L7.1,15.5 C7.1,16.1215609 7.31311636,16.7182867 7.69244138,17.2901779 L7.69244138,17.2901779 L9.042,19 L15.364,19 L16.1119065,13.5915348 C16.2412801,13.0093535 15.8869087,12.4388196 15.3255144,12.3113859 L15.3255144,12.3113859 L10.8105573,11.491935 C10.5728119,11.4487085 10.4,11.2416431 10.4,11 L10.4,11 L10.4,8.1 C10.4,7.74311509 10.1714048,7.44418291 9.95058946,7.39755261 L9.95058946,7.39755261 Z M13.2,7.3 C13.4761424,7.3 13.7,7.52385763 13.7,7.8 C13.7,8.04545989 13.5231248,8.24960837 13.2898756,8.29194433 L13.2,8.3 L12.6,8.3 C12.3238576,8.3 12.1,8.07614237 12.1,7.8 C12.1,7.55454011 12.2768752,7.35039163 12.5101244,7.30805567 L12.6,7.3 L13.2,7.3 Z M7.1,7.3 C7.37614237,7.3 7.6,7.52385763 7.6,7.8 C7.6,8.04545989 7.42312484,8.24960837 7.18987563,8.29194433 L7.1,8.3 L6.5,8.3 C6.22385763,8.3 6,8.07614237 6,7.8 C6,7.55454011 6.17687516,7.35039163 6.41012437,7.30805567 L6.5,7.3 L7.1,7.3 Z M12.5535534,5.14644661 C12.7271197,5.32001296 12.7464049,5.58943736 12.6114088,5.7843055 L12.5535534,5.85355339 L12.1535534,6.25355339 C11.9582912,6.44881554 11.6417088,6.44881554 11.4464466,6.25355339 C11.2728803,6.07998704 11.2535951,5.81056264 11.3885912,5.6156945 L11.4464466,5.54644661 L11.8464466,5.14644661 C12.0417088,4.95118446 12.3582912,4.95118446 12.5535534,5.14644661 Z M7.7843055,5.08859116 L7.85355339,5.14644661 L8.25355339,5.54644661 C8.44881554,5.74170876 8.44881554,6.05829124 8.25355339,6.25355339 C8.07998704,6.42711974 7.81056264,6.44640489 7.6156945,6.31140884 L7.54644661,6.25355339 L7.14644661,5.85355339 C6.95118446,5.65829124 6.95118446,5.34170876 7.14644661,5.14644661 C7.32001296,4.97288026 7.58943736,4.95359511 7.7843055,5.08859116 Z M9.9,4 C10.1454599,4 10.3496084,4.17687516 10.3919443,4.41012437 L10.4,4.5 L10.4,5.1 C10.4,5.37614237 10.1761424,5.6 9.9,5.6 C9.65454011,5.6 9.45039163,5.42312484 9.40805567,5.18987563 L9.4,5.1 L9.4,4.5 C9.4,4.22385763 9.62385763,4 9.9,4 Z" id="path-1"></path>
    </defs>
    <g id="Page-1" stroke="none" stroke-width="1" fill="none" fill-rule="evenodd">
        <g id="store-page_01_mobile_320_03_store-page" transform="translate(-38.000000, -816.000000)">
            <g id="Elements--/-List-/-Mobile-/-01-With-Icon-/-Regular" transform="translate(16.000000, 800.000000)">
                <g id="Item" transform="translate(15.400000, 12.000000)">
                    <g id="Content">
                        <g id="01-Base-/-03-Icons-/-Tap" transform="translate(0.600000, 0.000000)">
                            <mask id="mask-2" fill="white">
                                <use xlink:href="#path-1"></use>
                            </mask>
                            <use id="Mask" fill="#000000" fill-rule="nonzero" xlink:href="#path-1"></use>
                            <g id="01-Base-/-05-Colors-/-Black" mask="url(#mask-2)" fill="#000000" fill-rule="evenodd">
                                <rect id="Black" x="0" y="0" width="24" height="24"></rect>
                            </g>
                        </g>
                    </g>
                </g>
            </g>
        </g>
    </g>
</svg>