<?xml version="1.0" encoding="UTF-8"?>
<svg width="14px" height="14px" viewBox="0 0 14 14" version="1.1" xmlns="http://www.w3.org/2000/svg" xmlns:xlink="http://www.w3.org/1999/xlink">
    <!-- Generator: Sketch 63.1 (92452) - https://sketch.com -->
    <title>Mask</title>
    <desc>Created with Sketch.</desc>
    <defs>
        <path d="M12.4375,5.5 C12.6791246,5.5 12.875,5.69400994 12.875,5.93333333 C12.875,6.14606524 12.7202342,6.32299392 12.5161412,6.35968509 L12.4375,6.36666667 L6.3125,6.36666667 C6.06061074,6.36666667 5.9108456,6.48728433 5.8806742,6.7112164 L5.875,6.8 L5.875,17.2 C5.875,17.4494903 5.99677744,17.5978291 6.22286271,17.6277132 L6.3125,17.6333333 L12.4375,17.6333333 C12.6791246,17.6333333 12.875,17.8273433 12.875,18.0666667 C12.875,18.2793986 12.7202342,18.4563273 12.5161412,18.4930184 L12.4375,18.5 L6.3125,18.5 C5.59097099,18.5 5.06498448,18.0210616 5.00560035,17.331663 L5,17.2 L5,6.8 C5,6.08534269 5.48354363,5.56436558 6.179571,5.50554701 L6.3125,5.5 L12.4375,5.5 Z M15.3112673,8.176779 L15.3718592,8.22692039 L18.8718592,11.6935871 C18.9645829,11.7854277 19.0069849,11.9082364 18.9990652,12.0284001 C18.9995689,12.0408721 19,12.0537118 19,12.0666667 C19,12.3121266 18.8452342,12.516275 18.6411412,12.558611 L18.614,12.561 L15.3718592,15.7730796 C15.2010048,15.9423068 14.9239952,15.9423068 14.7531408,15.7730796 C14.6012702,15.6226554 14.5843957,15.3891543 14.7025173,15.2202686 L14.7531408,15.1602537 L17.372,12.566 L9.8125,12.5666667 C9.57087542,12.5666667 9.375,12.342809 9.375,12.0666667 C9.375,11.8212068 9.52976577,11.6170583 9.73385882,11.5747223 L9.8125,11.5666667 L17.505,11.566 L14.7531408,8.83974627 C14.6012702,8.6893221 14.5843957,8.45582095 14.7025173,8.28693523 L14.7531408,8.22692039 C14.9050113,8.07649622 15.1407577,8.05978243 15.3112673,8.176779 Z" id="path-1"></path>
    </defs>
    <g id="Symbols" stroke="none" stroke-width="1" fill="none" fill-rule="evenodd">
        <g id="01-Base-/-Icons-/-Logout" transform="translate(-5.000000, -5.000000)">
            <mask id="mask-2" fill="white">
                <use xlink:href="#path-1"></use>
            </mask>
            <use id="Mask" fill="#000000" fill-rule="nonzero" xlink:href="#path-1"></use>
        </g>
    </g>
</svg>