<?xml version="1.0" encoding="UTF-8"?>
<svg width="16px" height="16px" viewBox="0 0 16 16" version="1.1" xmlns="http://www.w3.org/2000/svg" xmlns:xlink="http://www.w3.org/1999/xlink">
    <!-- Generator: Sketch 63.1 (92452) - https://sketch.com -->
    <title>menu</title>
    <desc>Created with Sketch.</desc>
    <defs>
        <path d="M19,18.5 C19.2761424,18.5 19.5,18.7238576 19.5,19 C19.5,19.2454599 19.3231248,19.4496084 19.0898756,19.4919443 L19,19.5 L5,19.5 C4.72385763,19.5 4.5,19.2761424 4.5,19 C4.5,18.7545401 4.67687516,18.5503916 4.91012437,18.5080557 L5,18.5 L19,18.5 Z M19,11.5 C19.2761424,11.5 19.5,11.7238576 19.5,12 C19.5,12.2454599 19.3231248,12.4496084 19.0898756,12.4919443 L19,12.5 L5,12.5 C4.72385763,12.5 4.5,12.2761424 4.5,12 C4.5,11.7545401 4.67687516,11.5503916 4.91012437,11.5080557 L5,11.5 L19,11.5 Z M19,4.5 C19.2761424,4.5 19.5,4.72385763 19.5,5 C19.5,5.24545989 19.3231248,5.44960837 19.0898756,5.49194433 L19,5.5 L5,5.5 C4.72385763,5.5 4.5,5.27614237 4.5,5 C4.5,4.75454011 4.67687516,4.55039163 4.91012437,4.50805567 L5,4.5 L19,4.5 Z" id="path-1"></path>
    </defs>
    <g id="Symbols" stroke="none" stroke-width="1" fill="none" fill-rule="evenodd">
        <g id="01-Base-/-Icons-/-Menu" transform="translate(-4.000000, -4.000000)">
            <mask id="mask-2" fill="white">
                <use xlink:href="#path-1"></use>
            </mask>
            <use id="menu" fill="#000000" fill-rule="nonzero" xlink:href="#path-1"></use>
        </g>
    </g>
</svg>