<?xml version="1.0" encoding="UTF-8"?>
<svg width="16px" height="16px" viewBox="0 0 16 16" version="1.1" xmlns="http://www.w3.org/2000/svg" xmlns:xlink="http://www.w3.org/1999/xlink">
    <!-- Generator: Sketch 63.1 (92452) - https://sketch.com -->
    <title>Mask</title>
    <desc>Created with Sketch.</desc>
    <defs>
        <path d="M7.80304035,0.040427485 C7.92881475,-0.0134758283 8.07118525,-0.0134758283 8.19695965,0.040427485 L8.19695965,0.040427485 L15.1969596,3.04042748 C15.2015119,3.04237846 15.2060246,3.04439197 15.2104967,3.04646674 C15.224796,3.05307452 15.2392745,3.0606431 15.2533687,3.06891175 C15.262582,3.07435003 15.2714459,3.07994618 15.2800997,3.08579634 C15.2954516,3.09610962 15.3102212,3.10731121 15.324371,3.11935032 C15.3322342,3.12616833 15.3399728,3.13319542 15.3474727,3.14044614 C15.3579614,3.15038592 15.3684516,3.16145013 15.3784573,3.17303768 C15.3884274,3.18479468 15.397723,3.19661307 15.4064664,3.20882002 C15.4131643,3.21799854 15.4196148,3.22770946 15.4257504,3.2376962 C15.4357746,3.25411418 15.4447779,3.27079132 15.4528203,3.28795671 C15.4549597,3.29252386 15.4573063,3.29775254 15.4595725,3.30304035 L15.4640613,3.31382388 C15.4708659,3.33077476 15.476758,3.34814065 15.4816913,3.365851 L15.4595725,3.30304035 C15.4738817,3.33642852 15.4842741,3.370511 15.4909547,3.404775 C15.4968524,3.43550362 15.5,3.46749772 15.5,3.5 L15.4970706,3.44474631 C15.4985989,3.45844946 15.4995485,3.4721498 15.4999324,3.4858147 L15.5,3.5 L15.5,12.5 C15.5,12.7000141 15.3808016,12.8807831 15.1969596,12.9595725 L15.1969596,12.9595725 L8.19695965,15.9595725 C8.1933661,15.9611126 8.18975899,15.9626087 8.18613912,15.9640608 C8.17484178,15.9687309 8.16359949,15.9727751 8.15217888,15.97642 C8.1349492,15.9817887 8.11744117,15.9863486 8.09978507,15.9899442 C8.09119477,15.991788 8.0821739,15.9933658 8.0730734,15.9946984 C8.05526896,15.9972461 8.03782618,15.9988741 8.02035485,15.9995857 C8.01375728,15.9998604 8.00689494,16 8,16 L7.98063768,15.9996251 C7.96249521,15.9989223 7.94438203,15.9972314 7.92638053,15.9945522 L8,16 C7.96570781,16 7.93222192,15.9965478 7.89987092,15.989972 C7.86712927,15.9832064 7.83456355,15.9730825 7.80304035,15.9595725 L7.84782112,15.97642 C7.83640051,15.9727751 7.82515822,15.9687309 7.81411067,15.9643039 L7.80304035,15.9595725 L0.803040351,12.9595725 C0.619198427,12.8807831 0.5,12.7000141 0.5,12.5 L0.5,12.5 L0.5,3.5 C0.5,3.49764689 0.500016498,3.49529645 0.500049405,3.49294881 C0.500123685,3.47555117 0.501356116,3.45714744 0.503635509,3.43874722 C0.505234717,3.4268208 0.507034191,3.41554121 0.509208654,3.40437273 C0.511543572,3.39196171 0.514560905,3.37917381 0.518108031,3.36643811 C0.523241958,3.34814065 0.529134123,3.33077476 0.535938685,3.31382388 C0.537346035,3.3103479 0.53886336,3.30668998 0.540427485,3.30304035 L0.547179745,3.28795671 C0.555222083,3.27079132 0.564225434,3.25411418 0.574137455,3.23800468 L0.540427485,3.30304035 C0.55500229,3.26903247 0.572901208,3.23747043 0.593582338,3.20857098 C0.602277019,3.19661307 0.611572599,3.18479468 0.62139419,3.17340457 C0.631548411,3.16145013 0.642038625,3.15038592 0.652968526,3.13986299 C0.660027155,3.13319542 0.667765773,3.12616833 0.675734478,3.11937798 C0.689778816,3.10731121 0.704548401,3.09610962 0.719854207,3.08577897 C0.745805724,3.06828371 0.773593809,3.05304743 0.803040351,3.04042748 L0.746631281,3.06891175 C0.760725537,3.0606431 0.775203976,3.05307452 0.790008326,3.04622933 L0.803040351,3.04042748 Z M1.5,4.258 L1.5,12.17 L7.5,14.742 L7.5,6.829 L1.5,4.258 Z M14.5,4.257 L8.5,6.829 L8.5,14.742 L14.5,12.17 L14.5,4.257 Z M8,1.043 L2.268,3.5 L8,5.956 L13.731,3.499 L8,1.043 Z" id="path-1"></path>
    </defs>
    <g id="Symbols" stroke="none" stroke-width="1" fill="none" fill-rule="evenodd">
        <g id="01-Base-/-Icons-/-Box" transform="translate(-4.000000, -4.000000)">
            <g id="box" transform="translate(4.000000, 4.000000)">
                <mask id="mask-2" fill="white">
                    <use xlink:href="#path-1"></use>
                </mask>
                <use id="Mask" fill="#000000" fill-rule="nonzero" xlink:href="#path-1"></use>
            </g>
        </g>
    </g>
</svg>