<?xml version="1.0" encoding="UTF-8"?>
<svg width="16px" height="12px" viewBox="0 0 16 12" version="1.1" xmlns="http://www.w3.org/2000/svg" xmlns:xlink="http://www.w3.org/1999/xlink">
    <!-- Generator: Sketch 63.1 (92452) - https://sketch.com -->
    <title>preview</title>
    <desc>Created with Sketch.</desc>
    <defs>
        <path d="M8,0 C10.129263,0 12.0731688,1.09656223 13.7991778,2.90476213 C14.3936845,3.52757873 14.9200999,4.19316133 15.3740512,4.85895659 C15.5331993,5.09237384 15.6721694,5.30956204 15.7903137,5.5051989 L15.7903137,5.5051989 L15.8401398,5.58848196 L15.9389478,5.76057393 C16.0203507,5.90981268 16.0203507,6.09018732 15.9389478,6.23942607 C15.9120934,6.28865913 15.8623219,6.37556173 15.7903137,6.4948011 L15.7903137,6.4948011 L15.6652514,6.69742462 C15.5772806,6.83703332 15.4801499,6.98543191 15.3740512,7.14104341 C14.9200999,7.80683867 14.3936845,8.47242127 13.7991778,9.09523787 C12.0731688,10.9034378 10.129263,12 8,12 C5.87073699,12 3.92683122,10.9034378 2.20082223,9.09523787 C1.60631547,8.47242127 1.07990014,7.80683867 0.625948829,7.14104341 C0.466800705,6.90762616 0.327830627,6.69043796 0.209686295,6.4948011 L0.209686295,6.4948011 L0.159860162,6.41151804 L0.0610522135,6.23942607 C-0.0203507378,6.09018732 -0.0203507378,5.90981268 0.0610522135,5.76057393 C0.0879066145,5.71134087 0.1376781,5.62443827 0.209686295,5.5051989 L0.209686295,5.5051989 L0.334748554,5.30257538 C0.422719351,5.16296668 0.51985008,5.01456809 0.625948829,4.85895659 C1.07990014,4.19316133 1.60631547,3.52757873 2.20082223,2.90476213 C3.92683122,1.09656223 5.87073699,0 8,0 Z M8,1 C6.19176301,1 4.47941878,1.96593777 2.92417777,3.59523787 C2.37024703,4.17554627 1.87713111,4.79902617 1.45217617,5.42229341 C1.30715452,5.63499184 1.18844459,5.81980314 1.09723987,5.96864407 L1.09723987,5.96864407 L1.078,6 L1.25452667,6.2805847 L1.45217617,6.57770659 C1.87713111,7.20097383 2.37024703,7.82445373 2.92417777,8.40476213 C4.47941878,10.0340622 6.19176301,11 8,11 C9.80823699,11 11.5205812,10.0340622 13.0758222,8.40476213 C13.629753,7.82445373 14.1228689,7.20097383 14.5478238,6.57770659 C14.6928455,6.36500816 14.8115554,6.18019686 14.9027601,6.03135593 L14.9027601,6.03135593 L14.921,5.999 L14.7454733,5.7194153 L14.5478238,5.42229341 C14.1228689,4.79902617 13.629753,4.17554627 13.0758222,3.59523787 C11.5205812,1.96593777 9.80823699,1 8,1 Z M8,3 C9.65685425,3 11,4.34314575 11,6 C11,7.65685425 9.65685425,9 8,9 C6.34314575,9 5,7.65685425 5,6 C5,4.34314575 6.34314575,3 8,3 Z M8,4 C6.8954305,4 6,4.8954305 6,6 C6,7.1045695 6.8954305,8 8,8 C9.1045695,8 10,7.1045695 10,6 C10,4.8954305 9.1045695,4 8,4 Z" id="path-1"></path>
    </defs>
    <g id="Symbols" stroke="none" stroke-width="1" fill="none" fill-rule="evenodd">
        <g id="01-Base-/-Icons-/-View" transform="translate(-4.000000, -6.000000)">
            <g id="preview" transform="translate(4.000000, 6.000000)">
                <mask id="mask-2" fill="white">
                    <use xlink:href="#path-1"></use>
                </mask>
                <use id="Mask" fill="#000000" fill-rule="nonzero" xlink:href="#path-1"></use>
                <g id="01-Base-/-Color-/-Black" mask="url(#mask-2)" fill="#000000">
                    <g transform="translate(-4.000000, -6.000000)" id="Black">
                        <rect x="0" y="0" width="24" height="24"></rect>
                    </g>
                </g>
            </g>
        </g>
    </g>
</svg>