<?xml version="1.0" encoding="UTF-8"?>
<svg width="18px" height="18px" viewBox="0 0 18 18" version="1.1" xmlns="http://www.w3.org/2000/svg" xmlns:xlink="http://www.w3.org/1999/xlink">
    <!-- Generator: Sketch 63.1 (92452) - https://sketch.com -->
    <title>preview-hidden</title>
    <desc>Created with Sketch.</desc>
    <defs>
        <path d="M17.2824423,0.646446609 C17.4560086,0.820012961 17.4752938,1.08943736 17.3402977,1.2843055 L17.2824423,1.35355339 L13.7319007,4.90350666 C14.0962923,5.20640342 14.4521395,5.54119818 14.7991778,5.90476213 C15.3936845,6.52757873 15.9200999,7.19316133 16.3740512,7.85895659 C16.5331993,8.09237384 16.6721694,8.30956204 16.7903137,8.5051989 L16.7903137,8.5051989 L16.8401398,8.58848196 L16.9389478,8.76057393 C17.0203507,8.90981268 17.0203507,9.09018732 16.9389478,9.23942607 C16.9120934,9.28865913 16.8623219,9.37556173 16.7903137,9.4948011 L16.7903137,9.4948011 L16.6652514,9.69742462 C16.5772806,9.83703332 16.4801499,9.98543191 16.3740512,10.1410434 C15.9200999,10.8068387 15.3936845,11.4724213 14.7991778,12.0952379 C13.0731688,13.9034378 11.129263,15 9,15 C7.57744354,15 6.2376222,14.510544 4.99023958,13.6464198 L1.35355339,17.2824423 C1.15829124,17.4777044 0.841708755,17.4777044 0.646446609,17.2824423 C0.472880258,17.1088759 0.453595107,16.8394515 0.588591159,16.6445834 L0.646446609,16.5753355 L4.19043025,13.0313402 C3.85310255,12.7457976 3.52316256,12.4329277 3.20082223,12.0952379 C2.60631547,11.4724213 2.07990014,10.8068387 1.62594883,10.1410434 C1.46680071,9.90762616 1.32783063,9.69043796 1.20968629,9.4948011 L1.20968629,9.4948011 L1.15986016,9.41151804 L1.06105221,9.23942607 C0.979649262,9.09018732 0.979649262,8.90981268 1.06105221,8.76057393 C1.08790661,8.71134087 1.1376781,8.62443827 1.20968629,8.5051989 L1.20968629,8.5051989 L1.33474855,8.30257538 C1.42271935,8.16296668 1.51985008,8.01456809 1.62594883,7.85895659 C2.07990014,7.19316133 2.60631547,6.52757873 3.20082223,5.90476213 C4.92683122,4.09656223 6.87073699,3 9,3 C10.3905547,3 11.7020547,3.46768215 12.9254369,4.29583235 L16.5753355,0.646446609 C16.7705976,0.451184464 17.0871801,0.451184464 17.2824423,0.646446609 Z M13.0204042,5.61389978 L11.4161044,7.2213435 C11.7831,7.71903311 12,8.33418671 12,9 C12,10.6568542 10.6568542,12 9,12 C8.33418671,12 7.71903311,11.7831 7.2213435,11.4161044 L5.71142588,12.9251919 C6.75933707,13.6164995 7.86063267,14 9,14 C10.808237,14 12.5205812,13.0340622 14.0758222,11.4047621 C14.629753,10.8244537 15.1228689,10.2009738 15.5478238,9.57770659 C15.6928455,9.36500816 15.8115554,9.18019686 15.9027601,9.03135593 L15.9027601,9.03135593 L15.921,8.999 L15.7454733,8.7194153 L15.5478238,8.42229341 C15.1228689,7.79902617 14.629753,7.17554627 14.0758222,6.59523787 C13.7314955,6.23451466 13.3794681,5.90630742 13.0204042,5.61389978 Z M9,4 C7.19176301,4 5.47941878,4.96593777 3.92417777,6.59523787 C3.37024703,7.17554627 2.87713111,7.79902617 2.45217617,8.42229341 C2.30715452,8.63499184 2.18844459,8.81980314 2.09723987,8.96864407 L2.09723987,8.96864407 L2.078,9 L2.25452667,9.2805847 L2.45217617,9.57770659 C2.87713111,10.2009738 3.37024703,10.8244537 3.92417777,11.4047621 C4.24349751,11.7392876 4.56944004,12.0458485 4.90147557,12.3218261 L6.52489974,10.6957527 C6.19376934,10.2133646 6,9.62931091 6,9 C6,7.34314575 7.34314575,6 9,6 C9.62931091,6 10.2133646,6.19376934 10.6957527,6.52489974 L12.2025027,5.01879728 C11.180414,4.36281683 10.1082162,4 9,4 Z M10.6964897,7.94028686 L7.94028686,10.6964897 C8.24754028,10.8888213 8.61078655,11 9,11 C10.1045695,11 11,10.1045695 11,9 C11,8.61078655 10.8888213,8.24754028 10.6964897,7.94028686 Z M9,7 C7.8954305,7 7,7.8954305 7,9 C7,9.35228381 7.09108171,9.68329435 7.2509809,9.97076739 L9.97076739,7.2509809 C9.68329435,7.09108171 9.35228381,7 9,7 Z" id="path-1"></path>
    </defs>
    <g id="Symbols" stroke="none" stroke-width="1" fill="none" fill-rule="evenodd">
        <g id="01-Base-/-Icons-/-View-Off" transform="translate(-3.000000, -3.000000)">
            <g id="preview-hidden" transform="translate(3.000000, 3.000000)">
                <mask id="mask-2" fill="white">
                    <use xlink:href="#path-1"></use>
                </mask>
                <use id="Mask" fill="#000000" fill-rule="nonzero" xlink:href="#path-1"></use>
                <g id="01-Base-/-Color-/-Black" mask="url(#mask-2)" fill="#000000">
                    <g transform="translate(-3.035556, -3.000000)" id="Black">
                        <rect x="0" y="0" width="24" height="24"></rect>
                    </g>
                </g>
            </g>
        </g>
    </g>
</svg>