<?xml version="1.0" encoding="UTF-8"?>
<svg width="15px" height="15px" viewBox="0 0 15 15" version="1.1" xmlns="http://www.w3.org/2000/svg" xmlns:xlink="http://www.w3.org/1999/xlink">
    <!-- Generator: Sketch 63.1 (92452) - https://sketch.com -->
    <title>Mask</title>
    <desc>Created with Sketch.</desc>
    <defs>
        <path d="M6.56666667,0.466666667 C9.93560364,0.466666667 12.6666667,3.19772969 12.6666667,6.56666667 C12.6666667,8.07112472 12.122031,9.44837629 11.2191699,10.512011 L14.3868867,13.6797799 C14.5821489,13.8750421 14.5821489,14.1916246 14.3868867,14.3868867 C14.2133204,14.5604531 13.943896,14.5797382 13.7490278,14.4447422 L13.6797799,14.3868867 L10.512011,11.2191699 C9.44837629,12.122031 8.07112472,12.6666667 6.56666667,12.6666667 C3.19772969,12.6666667 0.466666667,9.93560364 0.466666667,6.56666667 C0.466666667,3.19772969 3.19772969,0.466666667 6.56666667,0.466666667 Z M6.56666667,1.46666667 C3.75001444,1.46666667 1.46666667,3.75001444 1.46666667,6.56666667 C1.46666667,9.38331889 3.75001444,11.6666667 6.56666667,11.6666667 C7.89761222,11.6666667 9.10948038,11.1568357 10.0176294,10.3218156 C10.0389379,10.2521953 10.0783446,10.1878819 10.1331133,10.1331133 C10.1878819,10.0783446 10.2521953,10.0389379 10.3206989,10.0148931 C11.1568357,9.10948038 11.6666667,7.89761222 11.6666667,6.56666667 C11.6666667,3.75001444 9.38331889,1.46666667 6.56666667,1.46666667 Z" id="path-1"></path>
    </defs>
    <g id="Symbols" stroke="none" stroke-width="1" fill="none" fill-rule="evenodd">
        <g id="01-Base-/-Icons-/-Search" transform="translate(-4.000000, -4.000000)">
            <g id="search" transform="translate(4.500000, 4.500000)">
                <mask id="mask-2" fill="white">
                    <use xlink:href="#path-1"></use>
                </mask>
                <use id="Mask" fill="#000000" fill-rule="nonzero" xlink:href="#path-1"></use>
            </g>
        </g>
    </g>
</svg>