<?xml version="1.0" encoding="UTF-8"?>
<svg width="24px" height="24px" viewBox="0 0 24 24" version="1.1" xmlns="http://www.w3.org/2000/svg" xmlns:xlink="http://www.w3.org/1999/xlink">
    <!-- Generator: Sketch 63.1 (92452) - https://sketch.com -->
    <title>01 Base / Icons / Shopping Bag</title>
    <desc>Created with Sketch.</desc>
    <defs>
        <path d="M12,4 C13.7298012,4 15.1101805,5.30621742 15.2033222,6.99608785 L15.2083333,7.17857143 L15.208,7.428 L18.2833333,7.42857143 C18.5287932,7.42857143 18.7329417,7.60544659 18.7752777,7.8386958 L18.7833333,7.92857143 L18.7833333,19.5 C18.7833333,19.7761424 18.5594757,20 18.2833333,20 L18.2833333,20 L5.825,20 C5.54885763,20 5.325,19.7761424 5.325,19.5 L5.325,19.5 L5.325,7.92857143 C5.325,7.65242905 5.54885763,7.42857143 5.825,7.42857143 L5.825,7.42857143 L8.683,7.428 L8.68333333,7.17857143 C8.68333333,5.41462616 10.1931411,4 12,4 Z M17.783,8.428 L15.208,8.428 L15.2083333,9.85714286 C15.2083333,10.1332852 14.9844757,10.3571429 14.7083333,10.3571429 C14.4628734,10.3571429 14.258725,10.1802677 14.216389,9.94701849 L14.2083333,9.85714286 L14.208,8.428 L9.683,8.428 L9.68333333,9.96428571 C9.68333333,10.2404281 9.45947571,10.4642857 9.18333333,10.4642857 C8.93787344,10.4642857 8.73372496,10.2874106 8.691389,10.0541613 L8.68333333,9.96428571 L8.683,8.428 L6.325,8.428 L6.325,19 L17.783,19 L17.783,8.428 Z M12,5 C10.7842544,5 9.77105477,5.90186269 9.68873213,7.03017197 L9.68333333,7.17857143 L9.683,7.428 L14.208,7.428 L14.2083333,7.17857143 C14.2083333,5.9559581 13.2417535,5 12,5 Z" id="path-1"></path>
    </defs>
    <g id="01-Base-/-Icons-/-Shopping-Bag" stroke="none" stroke-width="1" fill="none" fill-rule="evenodd">
        <mask id="mask-2" fill="white">
            <use xlink:href="#path-1"></use>
        </mask>
        <use id="Mask" fill="#000000" fill-rule="nonzero" xlink:href="#path-1"></use>
        <g id="01-Base-/-Color-/-Black" mask="url(#mask-2)" fill="#000000">
            <rect id="Black" x="0" y="0" width="24" height="24"></rect>
        </g>
    </g>
</svg>