<?xml version="1.0" encoding="UTF-8"?>
<svg width="10px" height="16px" viewBox="0 0 10 16" version="1.1" xmlns="http://www.w3.org/2000/svg" xmlns:xlink="http://www.w3.org/1999/xlink">
    <!-- Generator: Sketch 63.1 (92452) - https://sketch.com -->
    <title>arrows-select</title>
    <desc>Created with Sketch.</desc>
    <defs>
        <path d="M9.87371002,11.1678181 C10.0367847,11.3512771 10.0402154,11.621369 9.89400926,11.8079737 L9.83218728,11.8737047 L5.33218728,15.8737047 C5.16642464,16.0210492 4.92713536,16.0394673 4.74299106,15.9289589 L4.66782344,15.8737047 L0.167823436,11.8737047 C-0.038567948,11.6902457 -0.0571583118,11.3742095 0.126300696,11.1678181 C0.28937537,10.9843591 0.557202383,10.9492861 0.759661495,11.0726061 L0.832187275,11.1262953 L5,14.83 L9.16782344,11.1262953 C9.37421482,10.9428363 9.69025101,10.9614267 9.87371002,11.1678181 Z M5.25701965,0.0710411291 L5.33218728,0.126295341 L9.83218728,4.12629534 C10.0385787,4.30975435 10.057169,4.62579054 9.87371002,4.83218192 C9.71063534,5.01564093 9.44280833,5.05071394 9.24034922,4.9273939 L9.16782344,4.87370466 L5,1.169 L0.832187275,4.87370466 C0.648728267,5.03677933 0.378636329,5.04021006 0.192031699,4.89400391 L0.126300696,4.83218192 C-0.0367739776,4.64872291 -0.0402047032,4.37863097 0.106001447,4.19202634 L0.167823436,4.12629534 L4.66782344,0.126295341 C4.83358607,-0.0210492234 5.07287535,-0.039467294 5.25701965,0.0710411291 Z" id="path-1"></path>
    </defs>
    <g id="Symbols" stroke="none" stroke-width="1" fill="none" fill-rule="evenodd">
        <g id="01-Base-/-Icons-/-Chevron-sort" transform="translate(-7.000000, -4.000000)">
            <g id="arrows-select" transform="translate(7.000000, 4.000000)">
                <mask id="mask-2" fill="white">
                    <use xlink:href="#path-1"></use>
                </mask>
                <use id="Mask" fill="#000000" fill-rule="nonzero" xlink:href="#path-1"></use>
                <g id="01-Base-/-Color-/-Black" mask="url(#mask-2)" fill="#000000">
                    <g transform="translate(-6.999995, -4.000000)" id="Black">
                        <rect x="0" y="0" width="24" height="24"></rect>
                    </g>
                </g>
            </g>
        </g>
    </g>
</svg>