<?xml version="1.0" encoding="UTF-8"?>
<svg width="16px" height="16px" viewBox="0 0 16 16" version="1.1" xmlns="http://www.w3.org/2000/svg" xmlns:xlink="http://www.w3.org/1999/xlink">
    <!-- Generator: Sketch 63.1 (92452) - https://sketch.com -->
    <title>Elements / Icons / Award</title>
    <desc>Created with Sketch.</desc>
    <defs>
        <path d="M3.8371896,5.99997896 C4.18992652,5.99941827 4.54222311,6.02108622 4.89170617,6.06477546 L5.24016348,6.11579704 L9.68448746,6.85618983 C10.4447675,6.98653237 11.0004082,7.64589262 11,8.417 C11,9.24269638 10.3678274,9.92074096 9.56108527,9.9935308 L9.417,10 L6,10 L8.59,11.942 L12.2207554,10.7327019 C13.6159361,10.2672144 15.1358263,10.8551503 15.8608792,12.1155502 L15.9473045,12.2765751 C16.0696371,12.5214893 15.9712842,12.81282 15.7400213,12.9387687 L15.6581315,12.9743358 L7.58595443,15.6653948 C6.91488121,15.8888352 6.1836972,15.8167485 5.57230618,15.4733887 L5.40866842,15.3730375 L0.222668415,11.9160375 C-0.00710274521,11.7628715 -0.0692034937,11.4524396 0.0839625112,11.2226684 C0.220110071,11.0184274 0.48051711,10.9466667 0.698080137,11.0408147 L0.777331585,11.0839625 L5.96354557,14.5411052 C6.30584073,14.7695344 6.72484736,14.846091 7.12210757,14.7576075 L7.26986849,14.7166642 L14.712,12.235 L14.6862413,12.2057647 C14.179322,11.6827574 13.4212646,11.4540792 12.6926847,11.6360257 L12.5371139,11.6813416 L8.65811388,12.9743416 C8.53359164,13.0158491 8.3991172,13.0063698 8.28310423,12.9505147 L8.2,12.9 L4.2,9.9 C3.83962039,9.62971529 3.99630457,9.07519879 4.41322269,9.00694002 L4.5,9 L9.417,9 C9.73898201,9 10,8.73898201 10.0000001,8.41673538 C10.0001337,8.16421352 9.838461,7.94428629 9.60750989,7.86509253 L9.51783652,7.84220296 L5.07517228,7.10209185 C4.76878672,7.05062635 4.45955312,7.01854837 4.14897315,7.00600952 L3.838,6.99998933 L0.5,6.99998933 C0.223857625,6.99998933 -5.31572631e-05,6.7761317 -5.31572631e-05,6.49998933 C-5.31572631e-05,6.25452944 0.176875161,6.05038096 0.410124368,6.00804499 L0.5,5.99997896 L3.8371896,5.99997896 Z M12.640545,0.0142069272 C13.2751848,-0.0557771466 13.9080993,0.159931622 14.3727527,0.607655065 C14.7729103,1.00376745 14.9980597,1.54344481 14.9980597,2.1065 C14.9980597,2.66955519 14.7729103,3.20923255 14.3730716,3.605029 L14.3730716,3.605029 L11.8520716,6.105029 C11.6572918,6.29818629 11.343257,6.29834346 11.1482839,6.10538123 L11.1482839,6.10538123 L8.62780953,3.61090062 C8.2260128,3.21442145 7.99983332,2.67347883 7.99983332,2.109 C7.99983332,1.54452117 8.2260128,1.00357855 8.63209242,0.602923441 C9.09190067,0.159931622 9.72481522,-0.0557771466 10.359455,0.0142069272 C10.7633166,0.0587422469 11.141287,0.216039196 11.4535422,0.461783728 L11.4535422,0.461783728 L11.5,0.501 L11.5464578,0.461783728 C11.8141051,0.251145558 12.130033,0.105489285 12.4691627,0.0401263796 L12.4691627,0.0401263796 Z M10.2498457,1.00818168 C9.91038722,0.970748337 9.57185153,1.08612745 9.33019047,1.31890062 C9.11881873,1.52747497 8.99983332,1.81204668 8.99983332,2.109 C8.99983332,2.40595332 9.11881873,2.69052503 9.33071605,2.89961877 L9.33071605,2.89961877 L11.499,5.045 L13.6692473,2.89465507 C13.8496069,2.71611874 13.9623551,2.48211857 13.9908881,2.23245362 L13.9908881,2.23245362 L13.9980597,2.1065 C13.9980597,1.81042214 13.8796668,1.52663732 13.6740924,1.32307656 C13.4281485,1.08612745 13.0896128,0.970748337 12.7501543,1.00818168 C12.4106958,1.04561502 12.1054355,1.2319879 11.9170318,1.51683413 C11.7193407,1.81572196 11.2806593,1.81572196 11.0829682,1.51683413 C10.8945645,1.2319879 10.5893042,1.04561502 10.2498457,1.00818168 Z" id="path-1"></path>
    </defs>
    <g id="Page-1" stroke="none" stroke-width="1" fill="none" fill-rule="evenodd">
        <g id="store-page_01_mobile_320_03_store-page" transform="translate(-36.000000, -1136.000000)">
            <g id="Elements--/-List-/-Mobile-/-01-With-Icon-/-Regular-Copy-4" transform="translate(16.000000, 1120.000000)">
                <g id="Item" transform="translate(15.400000, 12.000000)">
                    <g id="Content">
                        <g id="01-Base-/-03-Icons-/-Care" transform="translate(0.600000, 0.000000)">
                            <g id="01-Base-/-05-Colors-/-Black" transform="translate(4.000000, 4.000000)">
                                <mask id="mask-2" fill="white">
                                    <use xlink:href="#path-1"></use>
                                </mask>
                                <use id="Mask" fill="#000000" fill-rule="nonzero" xlink:href="#path-1"></use>
                                <g mask="url(#mask-2)" fill="#000000" id="Black">
                                    <g transform="translate(-4.000000, -4.000000)">
                                        <rect x="0" y="0" width="24" height="24"></rect>
                                    </g>
                                </g>
                            </g>
                        </g>
                    </g>
                </g>
            </g>
        </g>
    </g>
</svg>