<?xml version="1.0" encoding="UTF-8"?>
<svg width="14px" height="16px" viewBox="0 0 14 16" version="1.1" xmlns="http://www.w3.org/2000/svg" xmlns:xlink="http://www.w3.org/1999/xlink">
    <!-- Generator: Sketch 63.1 (92452) - https://sketch.com -->
    <title>Mask</title>
    <desc>Created with Sketch.</desc>
    <defs>
        <path d="M11.64,13.489 L12.026,13.5 L12.4230038,13.5060318 C14.5247863,13.5664611 16.427722,14.0826228 18.1182779,15.1298895 L18.1182779,15.1298895 L18.4535534,15.3464466 C18.7784535,15.6713467 19,16.0775153 19,16.5 L19,16.5 L19,19 C19,19.2761424 18.7761424,19.5 18.5,19.5 L18.5,19.5 L5.5,19.5 C5.22385763,19.5 5,19.2761424 5,19 L5,19 L5,16.5 C5,16.0032931 5.19840325,15.566806 5.6226499,15.2839749 C7.29065102,14.1719741 9.29568584,13.5441639 11.2809375,13.492678 L11.2809375,13.492678 L11.64,13.489 Z M11.616,14.489 L11.2647663,14.4935264 C9.48131468,14.5478635 7.67625287,15.1167566 6.1773501,16.1160251 C6.05377067,16.1984114 6,16.3167069 6,16.5 L6,16.5 L6,18.5 L18,18.5 L18,16.5 C18,16.4113211 17.9369898,16.2780665 17.8713906,16.1808863 L17.8713906,16.1808863 L17.8226499,16.1160251 C16.1894326,15.0272136 14.2243636,14.5 11.9860078,14.4998042 L11.9860078,14.4998042 L11.616,14.489 Z M12,4.5 C14.209139,4.5 16,6.290861 16,8.5 C16,10.709139 14.209139,12.5 12,12.5 C9.790861,12.5 8,10.709139 8,8.5 C8,6.290861 9.790861,4.5 12,4.5 Z M12,5.5 C10.3431458,5.5 9,6.84314575 9,8.5 C9,10.1568542 10.3431458,11.5 12,11.5 C13.6568542,11.5 15,10.1568542 15,8.5 C15,6.84314575 13.6568542,5.5 12,5.5 Z" id="path-1"></path>
    </defs>
    <g id="Symbols" stroke="none" stroke-width="1" fill="none" fill-rule="evenodd">
        <g id="01-Base-/-Icons-/-Account" transform="translate(-5.000000, -4.000000)">
            <mask id="mask-2" fill="white">
                <use xlink:href="#path-1"></use>
            </mask>
            <use id="Mask" fill="#000000" fill-rule="nonzero" xlink:href="#path-1"></use>
        </g>
    </g>
</svg>