<svg width="667" height="252" viewBox="0 0 667 252" fill="none" xmlns="http://www.w3.org/2000/svg">
<rect width="667" height="252" fill="#E4E4E4"/>
<rect width="206" height="40" transform="translate(115.5 55)" fill="black"/>
<path d="M181.63 74.44C182.65 74.728 183.238 75.58 183.238 76.612C183.238 77.848 182.458 79 180.502 79H176.098V70.576H180.43C181.846 70.576 182.782 71.344 182.782 72.688C182.782 73.552 182.362 74.152 181.63 74.44ZM181.762 72.748C181.762 71.92 181.174 71.452 180.214 71.452H177.094V74.056H180.214C181.174 74.056 181.762 73.732 181.762 72.748ZM177.094 78.124H180.37C181.714 78.124 182.218 77.44 182.218 76.54C182.218 75.544 181.546 74.92 180.598 74.92H177.094V78.124ZM183.491 70.576H190.667V71.488H187.595V79H186.563V71.488H183.491V70.576ZM197.837 75.28V70.576H198.821V79H197.645L192.773 71.884H192.761C192.761 71.884 192.785 73.012 192.785 74.296V79H191.801V70.576H193.013L197.849 77.632H197.861C197.861 77.632 197.837 76.54 197.837 75.28ZM200.532 76.696V75.784H204.216V76.696H200.532ZM210.074 70.576C211.982 70.576 212.726 71.476 212.726 72.88C212.726 74.284 211.982 75.196 210.074 75.196H206.966V79H205.934V70.576H210.074ZM206.966 74.284H210.026C211.106 74.284 211.682 73.924 211.682 72.88C211.682 71.848 211.106 71.488 210.026 71.488H206.966V74.284ZM221.793 79H220.665L218.469 75.208H215.157V79H214.125V70.576H218.805C220.653 70.576 221.433 71.488 221.433 72.892C221.433 74.104 220.857 74.944 219.501 75.16L221.793 79ZM218.745 71.476H215.157V74.308H218.745C219.897 74.308 220.389 73.828 220.389 72.892C220.389 71.956 219.897 71.476 218.745 71.476ZM223.254 79V70.576H224.286V79H223.254ZM231.013 76.936L234.025 70.576H235.561V79H234.553V73.96C234.553 72.628 234.565 71.716 234.565 71.716H234.553L231.025 79.048H230.977L227.449 71.716H227.437C227.437 71.716 227.449 72.628 227.449 73.96V79H226.441V70.576H227.977L230.989 76.936H231.013ZM245.178 79H244.05L243.09 76.732H238.782L237.822 79H236.742L240.402 70.576H241.518L245.178 79ZM240.15 73.468L239.13 75.88H242.742L241.722 73.468C241.314 72.508 240.954 71.572 240.954 71.572H240.93C240.93 71.572 240.558 72.508 240.15 73.468ZM254.019 79H252.891L250.695 75.208H247.383V79H246.351V70.576H251.031C252.879 70.576 253.659 71.488 253.659 72.892C253.659 74.104 253.083 74.944 251.727 75.16L254.019 79ZM250.971 71.476H247.383V74.308H250.971C252.123 74.308 252.615 73.828 252.615 72.892C252.615 71.956 252.123 71.476 250.971 71.476ZM258.826 73.12L260.938 70.576H262.162L258.502 74.98V79H257.47V74.98L253.81 70.576H255.058L257.17 73.12C257.686 73.732 257.974 74.116 257.974 74.116H257.998C257.998 74.116 258.31 73.732 258.826 73.12Z" fill="white"/>
<rect width="206" height="40" transform="translate(345.5 55)" fill="white"/>
<path d="M411.63 74.44C412.65 74.728 413.238 75.58 413.238 76.612C413.238 77.848 412.458 79 410.502 79H406.098V70.576H410.43C411.846 70.576 412.782 71.344 412.782 72.688C412.782 73.552 412.362 74.152 411.63 74.44ZM411.762 72.748C411.762 71.92 411.174 71.452 410.214 71.452H407.094V74.056H410.214C411.174 74.056 411.762 73.732 411.762 72.748ZM407.094 78.124H410.37C411.714 78.124 412.218 77.44 412.218 76.54C412.218 75.544 411.546 74.92 410.598 74.92H407.094V78.124ZM413.491 70.576H420.667V71.488H417.595V79H416.563V71.488H413.491V70.576ZM427.837 75.28V70.576H428.821V79H427.645L422.773 71.884H422.761C422.761 71.884 422.785 73.012 422.785 74.296V79H421.801V70.576H423.013L427.849 77.632H427.861C427.861 77.632 427.837 76.54 427.837 75.28ZM430.532 76.696V75.784H434.216V76.696H430.532ZM440.074 70.576C441.982 70.576 442.726 71.476 442.726 72.88C442.726 74.284 441.982 75.196 440.074 75.196H436.966V79H435.934V70.576H440.074ZM436.966 74.284H440.026C441.106 74.284 441.682 73.924 441.682 72.88C441.682 71.848 441.106 71.488 440.026 71.488H436.966V74.284ZM451.793 79H450.665L448.469 75.208H445.157V79H444.125V70.576H448.805C450.653 70.576 451.433 71.488 451.433 72.892C451.433 74.104 450.857 74.944 449.501 75.16L451.793 79ZM448.745 71.476H445.157V74.308H448.745C449.897 74.308 450.389 73.828 450.389 72.892C450.389 71.956 449.897 71.476 448.745 71.476ZM453.254 79V70.576H454.286V79H453.254ZM461.013 76.936L464.025 70.576H465.561V79H464.553V73.96C464.553 72.628 464.565 71.716 464.565 71.716H464.553L461.025 79.048H460.977L457.449 71.716H457.437C457.437 71.716 457.449 72.628 457.449 73.96V79H456.441V70.576H457.977L460.989 76.936H461.013ZM475.178 79H474.05L473.09 76.732H468.782L467.822 79H466.742L470.402 70.576H471.518L475.178 79ZM470.15 73.468L469.13 75.88H472.742L471.722 73.468C471.314 72.508 470.954 71.572 470.954 71.572H470.93C470.93 71.572 470.558 72.508 470.15 73.468ZM484.019 79H482.891L480.695 75.208H477.383V79H476.351V70.576H481.031C482.879 70.576 483.659 71.488 483.659 72.892C483.659 74.104 483.083 74.944 481.727 75.16L484.019 79ZM480.971 71.476H477.383V74.308H480.971C482.123 74.308 482.615 73.828 482.615 72.892C482.615 71.956 482.123 71.476 480.971 71.476ZM488.826 73.12L490.938 70.576H492.162L488.502 74.98V79H487.47V74.98L483.81 70.576H485.058L487.17 73.12C487.686 73.732 487.974 74.116 487.974 74.116H487.998C487.998 74.116 488.31 73.732 488.826 73.12Z" fill="black"/>
<rect width="206" height="40" transform="translate(115.5 115)" fill="#A9A9A9"/>
<path d="M181.63 134.44C182.65 134.728 183.238 135.58 183.238 136.612C183.238 137.848 182.458 139 180.502 139H176.098V130.576H180.43C181.846 130.576 182.782 131.344 182.782 132.688C182.782 133.552 182.362 134.152 181.63 134.44ZM181.762 132.748C181.762 131.92 181.174 131.452 180.214 131.452H177.094V134.056H180.214C181.174 134.056 181.762 133.732 181.762 132.748ZM177.094 138.124H180.37C181.714 138.124 182.218 137.44 182.218 136.54C182.218 135.544 181.546 134.92 180.598 134.92H177.094V138.124ZM183.491 130.576H190.667V131.488H187.595V139H186.563V131.488H183.491V130.576ZM197.837 135.28V130.576H198.821V139H197.645L192.773 131.884H192.761C192.761 131.884 192.785 133.012 192.785 134.296V139H191.801V130.576H193.013L197.849 137.632H197.861C197.861 137.632 197.837 136.54 197.837 135.28ZM200.532 136.696V135.784H204.216V136.696H200.532ZM210.074 130.576C211.982 130.576 212.726 131.476 212.726 132.88C212.726 134.284 211.982 135.196 210.074 135.196H206.966V139H205.934V130.576H210.074ZM206.966 134.284H210.026C211.106 134.284 211.682 133.924 211.682 132.88C211.682 131.848 211.106 131.488 210.026 131.488H206.966V134.284ZM221.793 139H220.665L218.469 135.208H215.157V139H214.125V130.576H218.805C220.653 130.576 221.433 131.488 221.433 132.892C221.433 134.104 220.857 134.944 219.501 135.16L221.793 139ZM218.745 131.476H215.157V134.308H218.745C219.897 134.308 220.389 133.828 220.389 132.892C220.389 131.956 219.897 131.476 218.745 131.476ZM223.254 139V130.576H224.286V139H223.254ZM231.013 136.936L234.025 130.576H235.561V139H234.553V133.96C234.553 132.628 234.565 131.716 234.565 131.716H234.553L231.025 139.048H230.977L227.449 131.716H227.437C227.437 131.716 227.449 132.628 227.449 133.96V139H226.441V130.576H227.977L230.989 136.936H231.013ZM245.178 139H244.05L243.09 136.732H238.782L237.822 139H236.742L240.402 130.576H241.518L245.178 139ZM240.15 133.468L239.13 135.88H242.742L241.722 133.468C241.314 132.508 240.954 131.572 240.954 131.572H240.93C240.93 131.572 240.558 132.508 240.15 133.468ZM254.019 139H252.891L250.695 135.208H247.383V139H246.351V130.576H251.031C252.879 130.576 253.659 131.488 253.659 132.892C253.659 134.104 253.083 134.944 251.727 135.16L254.019 139ZM250.971 131.476H247.383V134.308H250.971C252.123 134.308 252.615 133.828 252.615 132.892C252.615 131.956 252.123 131.476 250.971 131.476ZM258.826 133.12L260.938 130.576H262.162L258.502 134.98V139H257.47V134.98L253.81 130.576H255.058L257.17 133.12C257.686 133.732 257.974 134.116 257.974 134.116H257.998C257.998 134.116 258.31 133.732 258.826 133.12Z" fill="white"/>
<rect width="206" height="40" transform="translate(345.5 115)" fill="#A9A9A9"/>
<path d="M411.63 134.44C412.65 134.728 413.238 135.58 413.238 136.612C413.238 137.848 412.458 139 410.502 139H406.098V130.576H410.43C411.846 130.576 412.782 131.344 412.782 132.688C412.782 133.552 412.362 134.152 411.63 134.44ZM411.762 132.748C411.762 131.92 411.174 131.452 410.214 131.452H407.094V134.056H410.214C411.174 134.056 411.762 133.732 411.762 132.748ZM407.094 138.124H410.37C411.714 138.124 412.218 137.44 412.218 136.54C412.218 135.544 411.546 134.92 410.598 134.92H407.094V138.124ZM413.491 130.576H420.667V131.488H417.595V139H416.563V131.488H413.491V130.576ZM427.837 135.28V130.576H428.821V139H427.645L422.773 131.884H422.761C422.761 131.884 422.785 133.012 422.785 134.296V139H421.801V130.576H423.013L427.849 137.632H427.861C427.861 137.632 427.837 136.54 427.837 135.28ZM430.532 136.696V135.784H434.216V136.696H430.532ZM440.074 130.576C441.982 130.576 442.726 131.476 442.726 132.88C442.726 134.284 441.982 135.196 440.074 135.196H436.966V139H435.934V130.576H440.074ZM436.966 134.284H440.026C441.106 134.284 441.682 133.924 441.682 132.88C441.682 131.848 441.106 131.488 440.026 131.488H436.966V134.284ZM451.793 139H450.665L448.469 135.208H445.157V139H444.125V130.576H448.805C450.653 130.576 451.433 131.488 451.433 132.892C451.433 134.104 450.857 134.944 449.501 135.16L451.793 139ZM448.745 131.476H445.157V134.308H448.745C449.897 134.308 450.389 133.828 450.389 132.892C450.389 131.956 449.897 131.476 448.745 131.476ZM453.254 139V130.576H454.286V139H453.254ZM461.013 136.936L464.025 130.576H465.561V139H464.553V133.96C464.553 132.628 464.565 131.716 464.565 131.716H464.553L461.025 139.048H460.977L457.449 131.716H457.437C457.437 131.716 457.449 132.628 457.449 133.96V139H456.441V130.576H457.977L460.989 136.936H461.013ZM475.178 139H474.05L473.09 136.732H468.782L467.822 139H466.742L470.402 130.576H471.518L475.178 139ZM470.15 133.468L469.13 135.88H472.742L471.722 133.468C471.314 132.508 470.954 131.572 470.954 131.572H470.93C470.93 131.572 470.558 132.508 470.15 133.468ZM484.019 139H482.891L480.695 135.208H477.383V139H476.351V130.576H481.031C482.879 130.576 483.659 131.488 483.659 132.892C483.659 134.104 483.083 134.944 481.727 135.16L484.019 139ZM480.971 131.476H477.383V134.308H480.971C482.123 134.308 482.615 133.828 482.615 132.892C482.615 131.956 482.123 131.476 480.971 131.476ZM488.826 133.12L490.938 130.576H492.162L488.502 134.98V139H487.47V134.98L483.81 130.576H485.058L487.17 133.12C487.686 133.732 487.974 134.116 487.974 134.116H487.998C487.998 134.116 488.31 133.732 488.826 133.12Z" fill="black"/>
<rect width="206" height="40" transform="translate(115.5 175)" fill="#F0F0F0"/>
<path d="M181.63 194.44C182.65 194.728 183.238 195.58 183.238 196.612C183.238 197.848 182.458 199 180.502 199H176.098V190.576H180.43C181.846 190.576 182.782 191.344 182.782 192.688C182.782 193.552 182.362 194.152 181.63 194.44ZM181.762 192.748C181.762 191.92 181.174 191.452 180.214 191.452H177.094V194.056H180.214C181.174 194.056 181.762 193.732 181.762 192.748ZM177.094 198.124H180.37C181.714 198.124 182.218 197.44 182.218 196.54C182.218 195.544 181.546 194.92 180.598 194.92H177.094V198.124ZM183.491 190.576H190.667V191.488H187.595V199H186.563V191.488H183.491V190.576ZM197.837 195.28V190.576H198.821V199H197.645L192.773 191.884H192.761C192.761 191.884 192.785 193.012 192.785 194.296V199H191.801V190.576H193.013L197.849 197.632H197.861C197.861 197.632 197.837 196.54 197.837 195.28ZM200.532 196.696V195.784H204.216V196.696H200.532ZM210.074 190.576C211.982 190.576 212.726 191.476 212.726 192.88C212.726 194.284 211.982 195.196 210.074 195.196H206.966V199H205.934V190.576H210.074ZM206.966 194.284H210.026C211.106 194.284 211.682 193.924 211.682 192.88C211.682 191.848 211.106 191.488 210.026 191.488H206.966V194.284ZM221.793 199H220.665L218.469 195.208H215.157V199H214.125V190.576H218.805C220.653 190.576 221.433 191.488 221.433 192.892C221.433 194.104 220.857 194.944 219.501 195.16L221.793 199ZM218.745 191.476H215.157V194.308H218.745C219.897 194.308 220.389 193.828 220.389 192.892C220.389 191.956 219.897 191.476 218.745 191.476ZM223.254 199V190.576H224.286V199H223.254ZM231.013 196.936L234.025 190.576H235.561V199H234.553V193.96C234.553 192.628 234.565 191.716 234.565 191.716H234.553L231.025 199.048H230.977L227.449 191.716H227.437C227.437 191.716 227.449 192.628 227.449 193.96V199H226.441V190.576H227.977L230.989 196.936H231.013ZM245.178 199H244.05L243.09 196.732H238.782L237.822 199H236.742L240.402 190.576H241.518L245.178 199ZM240.15 193.468L239.13 195.88H242.742L241.722 193.468C241.314 192.508 240.954 191.572 240.954 191.572H240.93C240.93 191.572 240.558 192.508 240.15 193.468ZM254.019 199H252.891L250.695 195.208H247.383V199H246.351V190.576H251.031C252.879 190.576 253.659 191.488 253.659 192.892C253.659 194.104 253.083 194.944 251.727 195.16L254.019 199ZM250.971 191.476H247.383V194.308H250.971C252.123 194.308 252.615 193.828 252.615 192.892C252.615 191.956 252.123 191.476 250.971 191.476ZM258.826 193.12L260.938 190.576H262.162L258.502 194.98V199H257.47V194.98L253.81 190.576H255.058L257.17 193.12C257.686 193.732 257.974 194.116 257.974 194.116H257.998C257.998 194.116 258.31 193.732 258.826 193.12Z" fill="#A9A9A9"/>
<rect width="206" height="40" transform="translate(345.5 175)" fill="#F0F0F0"/>
<path d="M411.63 194.44C412.65 194.728 413.238 195.58 413.238 196.612C413.238 197.848 412.458 199 410.502 199H406.098V190.576H410.43C411.846 190.576 412.782 191.344 412.782 192.688C412.782 193.552 412.362 194.152 411.63 194.44ZM411.762 192.748C411.762 191.92 411.174 191.452 410.214 191.452H407.094V194.056H410.214C411.174 194.056 411.762 193.732 411.762 192.748ZM407.094 198.124H410.37C411.714 198.124 412.218 197.44 412.218 196.54C412.218 195.544 411.546 194.92 410.598 194.92H407.094V198.124ZM413.491 190.576H420.667V191.488H417.595V199H416.563V191.488H413.491V190.576ZM427.837 195.28V190.576H428.821V199H427.645L422.773 191.884H422.761C422.761 191.884 422.785 193.012 422.785 194.296V199H421.801V190.576H423.013L427.849 197.632H427.861C427.861 197.632 427.837 196.54 427.837 195.28ZM430.532 196.696V195.784H434.216V196.696H430.532ZM440.074 190.576C441.982 190.576 442.726 191.476 442.726 192.88C442.726 194.284 441.982 195.196 440.074 195.196H436.966V199H435.934V190.576H440.074ZM436.966 194.284H440.026C441.106 194.284 441.682 193.924 441.682 192.88C441.682 191.848 441.106 191.488 440.026 191.488H436.966V194.284ZM451.793 199H450.665L448.469 195.208H445.157V199H444.125V190.576H448.805C450.653 190.576 451.433 191.488 451.433 192.892C451.433 194.104 450.857 194.944 449.501 195.16L451.793 199ZM448.745 191.476H445.157V194.308H448.745C449.897 194.308 450.389 193.828 450.389 192.892C450.389 191.956 449.897 191.476 448.745 191.476ZM453.254 199V190.576H454.286V199H453.254ZM461.013 196.936L464.025 190.576H465.561V199H464.553V193.96C464.553 192.628 464.565 191.716 464.565 191.716H464.553L461.025 199.048H460.977L457.449 191.716H457.437C457.437 191.716 457.449 192.628 457.449 193.96V199H456.441V190.576H457.977L460.989 196.936H461.013ZM475.178 199H474.05L473.09 196.732H468.782L467.822 199H466.742L470.402 190.576H471.518L475.178 199ZM470.15 193.468L469.13 195.88H472.742L471.722 193.468C471.314 192.508 470.954 191.572 470.954 191.572H470.93C470.93 191.572 470.558 192.508 470.15 193.468ZM484.019 199H482.891L480.695 195.208H477.383V199H476.351V190.576H481.031C482.879 190.576 483.659 191.488 483.659 192.892C483.659 194.104 483.083 194.944 481.727 195.16L484.019 199ZM480.971 191.476H477.383V194.308H480.971C482.123 194.308 482.615 193.828 482.615 192.892C482.615 191.956 482.123 191.476 480.971 191.476ZM488.826 193.12L490.938 190.576H492.162L488.502 194.98V199H487.47V194.98L483.81 190.576H485.058L487.17 193.12C487.686 193.732 487.974 194.116 487.974 194.116H487.998C487.998 194.116 488.31 193.732 488.826 193.12Z" fill="#A9A9A9"/>
</svg>
