<svg width="666" height="240" viewBox="0 0 666 240" fill="none" xmlns="http://www.w3.org/2000/svg">
<rect width="666" height="240" fill="#F7F7F7"/>
<g opacity="0.2">
<rect width="300" height="40" transform="translate(211 126)" fill="black"/>
<path fill-rule="evenodd" clip-rule="evenodd" d="M325 153C328.866 153 332 149.866 332 146C332 142.134 328.866 139 325 139C321.134 139 318 142.134 318 146C318 149.866 321.134 153 325 153ZM325 154C329.418 154 333 150.418 333 146C333 141.582 329.418 138 325 138C320.582 138 317 141.582 317 146C317 150.418 320.582 154 325 154Z" fill="white"/>
<path d="M343.565 141.576V149.088H348.257V150H342.533V141.576H343.565ZM356.97 150H355.842L354.882 147.732H350.574L349.614 150H348.534L352.194 141.576H353.31L356.97 150ZM351.942 144.468L350.922 146.88H354.534L353.514 144.468C353.106 143.508 352.746 142.572 352.746 142.572H352.722C352.722 142.572 352.35 143.508 351.942 144.468ZM363.674 145.44C364.695 145.728 365.283 146.58 365.283 147.612C365.283 148.848 364.503 150 362.547 150H358.143V141.576H362.475C363.891 141.576 364.827 142.344 364.827 143.688C364.827 144.552 364.407 145.152 363.674 145.44ZM363.807 143.748C363.807 142.92 363.219 142.452 362.259 142.452H359.139V145.056H362.259C363.219 145.056 363.807 144.732 363.807 143.748ZM359.139 149.124H362.415C363.759 149.124 364.263 148.44 364.263 147.54C364.263 146.544 363.591 145.92 362.643 145.92H359.139V149.124ZM367.787 145.944V149.088H373.043V150H366.791V141.576H372.995V142.488H367.787V145.032H372.779V145.944H367.787ZM375.675 141.576V149.088H380.367V150H374.643V141.576H375.675Z" fill="white"/>
<path fill-rule="evenodd" clip-rule="evenodd" d="M397 153C400.866 153 404 149.866 404 146C404 142.134 400.866 139 397 139C393.134 139 390 142.134 390 146C390 149.866 393.134 153 397 153ZM397 154C401.418 154 405 150.418 405 146C405 141.582 401.418 138 397 138C392.582 138 389 141.582 389 146C389 150.418 392.582 154 397 154Z" fill="white"/>
</g>
<g opacity="0.2">
<rect width="300" height="40" transform="translate(211 126)" fill="black"/>
<path fill-rule="evenodd" clip-rule="evenodd" d="M325 153C328.866 153 332 149.866 332 146C332 142.134 328.866 139 325 139C321.134 139 318 142.134 318 146C318 149.866 321.134 153 325 153ZM325 154C329.418 154 333 150.418 333 146C333 141.582 329.418 138 325 138C320.582 138 317 141.582 317 146C317 150.418 320.582 154 325 154Z" fill="white"/>
<path d="M343.565 141.576V149.088H348.257V150H342.533V141.576H343.565ZM356.97 150H355.842L354.882 147.732H350.574L349.614 150H348.534L352.194 141.576H353.31L356.97 150ZM351.942 144.468L350.922 146.88H354.534L353.514 144.468C353.106 143.508 352.746 142.572 352.746 142.572H352.722C352.722 142.572 352.35 143.508 351.942 144.468ZM363.674 145.44C364.695 145.728 365.283 146.58 365.283 147.612C365.283 148.848 364.503 150 362.547 150H358.143V141.576H362.475C363.891 141.576 364.827 142.344 364.827 143.688C364.827 144.552 364.407 145.152 363.674 145.44ZM363.807 143.748C363.807 142.92 363.219 142.452 362.259 142.452H359.139V145.056H362.259C363.219 145.056 363.807 144.732 363.807 143.748ZM359.139 149.124H362.415C363.759 149.124 364.263 148.44 364.263 147.54C364.263 146.544 363.591 145.92 362.643 145.92H359.139V149.124ZM367.787 145.944V149.088H373.043V150H366.791V141.576H372.995V142.488H367.787V145.032H372.779V145.944H367.787ZM375.675 141.576V149.088H380.367V150H374.643V141.576H375.675Z" fill="white"/>
<path fill-rule="evenodd" clip-rule="evenodd" d="M397 153C400.866 153 404 149.866 404 146C404 142.134 400.866 139 397 139C393.134 139 390 142.134 390 146C390 149.866 393.134 153 397 153ZM397 154C401.418 154 405 150.418 405 146C405 141.582 401.418 138 397 138C392.582 138 389 141.582 389 146C389 150.418 392.582 154 397 154Z" fill="white"/>
</g>
<rect x="210.5" y="125.5" width="301" height="41" stroke="#0D69D4"/>
<g clip-path="url(#clip0_29_309)">
<mask maskUnits="userSpaceOnUse" x="0" y="0" width="0" height="0" fill="black">
<rect fill="white" width="0" height="0"/>
</mask>
<path d="M155.293 77.2929C154.902 77.6834 154.902 78.3166 155.293 78.7071L161.657 85.0711C162.047 85.4616 162.681 85.4616 163.071 85.0711C163.462 84.6805 163.462 84.0474 163.071 83.6569L157.414 78L163.071 72.3431C163.462 71.9526 163.462 71.3195 163.071 70.9289C162.681 70.5384 162.047 70.5384 161.657 70.9289L155.293 77.2929ZM186.707 78.7071C187.098 78.3166 187.098 77.6834 186.707 77.2929L180.343 70.9289C179.953 70.5384 179.319 70.5384 178.929 70.9289C178.538 71.3195 178.538 71.9526 178.929 72.3431L184.586 78L178.929 83.6569C178.538 84.0474 178.538 84.6805 178.929 85.0711C179.319 85.4616 179.953 85.4616 180.343 85.0711L186.707 78.7071ZM156 79H186V77H156V79Z" fill="#6B6B6B" mask="url(#)"/>
</g>
<path fill-rule="evenodd" clip-rule="evenodd" d="M155 70L155 71L155 75.024L155 76.024L155 80.0185L155 81.0185L155 85.014L155 86.014H156H159.989H160.989H165.011H166.011H170H171V85.014V81.0185V80.0185V76.024V75.024V71V70H170H166.011H165.011H160.989H159.989H156H155ZM156 71V75.024H159.989V71H156ZM156 76.024V80.0185H159.989V76.024H156ZM156 81.0185V85.014H159.989V81.0185H156ZM170 81.0185V85.014H166.011V81.0185H170ZM170 76.024V80.0185H166.011V76.024H170ZM170 71V75.024H166.011V71H170ZM165.011 71H160.989V74.9915H165.011V71ZM165.011 81.0225H160.989V85.014H165.011V81.0225Z" fill="#6B6B6B"/>
<g clip-path="url(#clip1_29_309)">
<line x1="163.25" y1="126.75" x2="163.25" y2="165.25" stroke="#0D69D4" stroke-width="1.5" stroke-linecap="square"/>
<line x1="168.25" y1="126.75" x2="157.75" y2="126.75" stroke="#0D69D4" stroke-width="1.5" stroke-linecap="round"/>
<line x1="157.75" y1="165.25" x2="168.25" y2="165.25" stroke="#0D69D4" stroke-width="1.5" stroke-linecap="round"/>
</g>
<line x1="211.75" y1="77.75" x2="510.25" y2="77.75" stroke="#0D69D4" stroke-width="1.5" stroke-linecap="square"/>
<line x1="211.75" y1="72.75" x2="211.75" y2="83.25" stroke="#0D69D4" stroke-width="1.5" stroke-linecap="round"/>
<line x1="510.25" y1="83.25" x2="510.25" y2="72.75" stroke="#0D69D4" stroke-width="1.5" stroke-linecap="round"/>
<rect x="333" y="134" width="8" height="24" fill="#C54600" fill-opacity="0.3"/>
<line x1="333.5" y1="110" x2="333.5" y2="166" stroke="#C54600"/>
<line x1="340.5" y1="110" x2="340.5" y2="166" stroke="#C54600"/>
<path d="M336.963 106.119C336.307 106.119 335.723 106.013 335.212 105.8C334.703 105.584 334.304 105.29 334.014 104.918C333.724 104.545 333.58 104.124 333.58 103.652C333.58 103.288 333.662 102.955 333.827 102.651C333.994 102.344 334.222 102.089 334.509 101.888C334.795 101.683 335.116 101.553 335.472 101.496V101.436C335.006 101.342 334.628 101.116 334.338 100.759C334.048 100.398 333.903 99.9787 333.903 99.5014C333.903 99.0497 334.036 98.6477 334.3 98.2955C334.564 97.9403 334.926 97.6619 335.386 97.4602C335.849 97.2557 336.375 97.1534 336.963 97.1534C337.551 97.1534 338.075 97.2557 338.536 97.4602C338.999 97.6648 339.362 97.9446 339.626 98.2997C339.891 98.652 340.024 99.0526 340.027 99.5014C340.024 99.9815 339.876 100.401 339.584 100.759C339.291 101.116 338.916 101.342 338.459 101.436V101.496C338.808 101.553 339.125 101.683 339.409 101.888C339.696 102.089 339.923 102.344 340.091 102.651C340.261 102.955 340.348 103.288 340.351 103.652C340.348 104.124 340.202 104.545 339.912 104.918C339.622 105.29 339.222 105.584 338.71 105.8C338.202 106.013 337.619 106.119 336.963 106.119ZM336.963 104.764C337.256 104.764 337.511 104.712 337.73 104.607C337.949 104.499 338.119 104.351 338.241 104.163C338.366 103.973 338.429 103.754 338.429 103.507C338.429 103.254 338.365 103.031 338.237 102.838C338.109 102.642 337.936 102.489 337.717 102.378C337.499 102.264 337.247 102.207 336.963 102.207C336.682 102.207 336.43 102.264 336.209 102.378C335.987 102.489 335.813 102.642 335.685 102.838C335.56 103.031 335.497 103.254 335.497 103.507C335.497 103.754 335.558 103.973 335.68 104.163C335.803 104.351 335.974 104.499 336.196 104.607C336.418 104.712 336.673 104.764 336.963 104.764ZM336.963 100.865C337.207 100.865 337.425 100.815 337.615 100.716C337.805 100.616 337.955 100.479 338.062 100.303C338.17 100.126 338.224 99.9233 338.224 99.6932C338.224 99.4659 338.17 99.267 338.062 99.0966C337.955 98.9233 337.807 98.7884 337.619 98.6918C337.432 98.5923 337.213 98.5426 336.963 98.5426C336.716 98.5426 336.497 98.5923 336.307 98.6918C336.116 98.7884 335.967 98.9233 335.859 99.0966C335.754 99.267 335.702 99.4659 335.702 99.6932C335.702 99.9233 335.756 100.126 335.864 100.303C335.972 100.479 336.121 100.616 336.311 100.716C336.501 100.815 336.719 100.865 336.963 100.865Z" fill="#C54600"/>
<rect x="317" y="138" width="16" height="16" fill="#0D69D4" fill-opacity="0.2"/>
<rect x="381" y="134" width="8" height="24" fill="#C54600" fill-opacity="0.3"/>
<line x1="381.5" y1="110" x2="381.5" y2="166" stroke="#C54600"/>
<line x1="388.5" y1="110" x2="388.5" y2="166" stroke="#C54600"/>
<path d="M384.963 106.119C384.307 106.119 383.723 106.013 383.212 105.8C382.703 105.584 382.304 105.29 382.014 104.918C381.724 104.545 381.58 104.124 381.58 103.652C381.58 103.288 381.662 102.955 381.827 102.651C381.994 102.344 382.222 102.089 382.509 101.888C382.795 101.683 383.116 101.553 383.472 101.496V101.436C383.006 101.342 382.628 101.116 382.338 100.759C382.048 100.398 381.903 99.9787 381.903 99.5014C381.903 99.0497 382.036 98.6477 382.3 98.2955C382.564 97.9403 382.926 97.6619 383.386 97.4602C383.849 97.2557 384.375 97.1534 384.963 97.1534C385.551 97.1534 386.075 97.2557 386.536 97.4602C386.999 97.6648 387.362 97.9446 387.626 98.2997C387.891 98.652 388.024 99.0526 388.027 99.5014C388.024 99.9815 387.876 100.401 387.584 100.759C387.291 101.116 386.916 101.342 386.459 101.436V101.496C386.808 101.553 387.125 101.683 387.409 101.888C387.696 102.089 387.923 102.344 388.091 102.651C388.261 102.955 388.348 103.288 388.351 103.652C388.348 104.124 388.202 104.545 387.912 104.918C387.622 105.29 387.222 105.584 386.71 105.8C386.202 106.013 385.619 106.119 384.963 106.119ZM384.963 104.764C385.256 104.764 385.511 104.712 385.73 104.607C385.949 104.499 386.119 104.351 386.241 104.163C386.366 103.973 386.429 103.754 386.429 103.507C386.429 103.254 386.365 103.031 386.237 102.838C386.109 102.642 385.936 102.489 385.717 102.378C385.499 102.264 385.247 102.207 384.963 102.207C384.682 102.207 384.43 102.264 384.209 102.378C383.987 102.489 383.813 102.642 383.685 102.838C383.56 103.031 383.497 103.254 383.497 103.507C383.497 103.754 383.558 103.973 383.68 104.163C383.803 104.351 383.974 104.499 384.196 104.607C384.418 104.712 384.673 104.764 384.963 104.764ZM384.963 100.865C385.207 100.865 385.425 100.815 385.615 100.716C385.805 100.616 385.955 100.479 386.062 100.303C386.17 100.126 386.224 99.9233 386.224 99.6932C386.224 99.4659 386.17 99.267 386.062 99.0966C385.955 98.9233 385.807 98.7884 385.619 98.6918C385.432 98.5923 385.213 98.5426 384.963 98.5426C384.716 98.5426 384.497 98.5923 384.307 98.6918C384.116 98.7884 383.967 98.9233 383.859 99.0966C383.754 99.267 383.702 99.4659 383.702 99.6932C383.702 99.9233 383.756 100.126 383.864 100.303C383.972 100.479 384.121 100.616 384.311 100.716C384.501 100.815 384.719 100.865 384.963 100.865Z" fill="#C54600"/>
<g clip-path="url(#clip2_29_309)">
<mask maskUnits="userSpaceOnUse" x="0" y="0" width="0" height="0" fill="black">
<rect fill="white" width="0" height="0"/>
</mask>
<path d="M331.146 117.146C330.951 117.342 330.951 117.658 331.146 117.854L334.328 121.036C334.524 121.231 334.84 121.231 335.036 121.036C335.231 120.84 335.231 120.524 335.036 120.328L332.207 117.5L335.036 114.672C335.231 114.476 335.231 114.16 335.036 113.964C334.84 113.769 334.524 113.769 334.328 113.964L331.146 117.146ZM360.354 117.854C360.549 117.658 360.549 117.342 360.354 117.146L357.172 113.964C356.976 113.769 356.66 113.769 356.464 113.964C356.269 114.16 356.269 114.476 356.464 114.672L359.293 117.5L356.464 120.328C356.269 120.524 356.269 120.84 356.464 121.036C356.66 121.231 356.976 121.231 357.172 121.036L360.354 117.854ZM331.5 118H360V117H331.5V118Z" fill="#0D69D4" mask="url(#)"/>
<mask maskUnits="userSpaceOnUse" x="0" y="0" width="0" height="0" fill="black">
<rect fill="white" width="0" height="0"/>
</mask>
<path d="M361.646 117.146C361.451 117.342 361.451 117.658 361.646 117.854L364.828 121.036C365.024 121.231 365.34 121.231 365.536 121.036C365.731 120.84 365.731 120.524 365.536 120.328L362.707 117.5L365.536 114.672C365.731 114.476 365.731 114.16 365.536 113.964C365.34 113.769 365.024 113.769 364.828 113.964L361.646 117.146ZM390.854 117.854C391.049 117.658 391.049 117.342 390.854 117.146L387.672 113.964C387.476 113.769 387.16 113.769 386.964 113.964C386.769 114.16 386.769 114.476 386.964 114.672L389.793 117.5L386.964 120.328C386.769 120.524 386.769 120.84 386.964 121.036C387.16 121.231 387.476 121.231 387.672 121.036L390.854 117.854ZM362 118H390.5V117H362V118Z" fill="#0D69D4" mask="url(#)"/>
</g>
<rect x="341" y="142" width="40" height="8" fill="#0D69D4" fill-opacity="0.2"/>
<rect x="389" y="138" width="16" height="16" fill="#0D69D4" fill-opacity="0.2"/>
<rect x="211" y="126" width="300" height="8" fill="#007D00" fill-opacity="0.3"/>
<line x1="195" y1="126.5" x2="511" y2="126.5" stroke="#007D00"/>
<line x1="195" y1="133.5" x2="511" y2="133.5" stroke="#007D00"/>
<path d="M186.963 134.119C186.307 134.119 185.723 134.013 185.212 133.8C184.703 133.584 184.304 133.29 184.014 132.918C183.724 132.545 183.58 132.124 183.58 131.652C183.58 131.288 183.662 130.955 183.827 130.651C183.994 130.344 184.222 130.089 184.509 129.888C184.795 129.683 185.116 129.553 185.472 129.496V129.436C185.006 129.342 184.628 129.116 184.338 128.759C184.048 128.398 183.903 127.979 183.903 127.501C183.903 127.05 184.036 126.648 184.3 126.295C184.564 125.94 184.926 125.662 185.386 125.46C185.849 125.256 186.375 125.153 186.963 125.153C187.551 125.153 188.075 125.256 188.536 125.46C188.999 125.665 189.362 125.945 189.626 126.3C189.891 126.652 190.024 127.053 190.027 127.501C190.024 127.982 189.876 128.401 189.584 128.759C189.291 129.116 188.916 129.342 188.459 129.436V129.496C188.808 129.553 189.125 129.683 189.409 129.888C189.696 130.089 189.923 130.344 190.091 130.651C190.261 130.955 190.348 131.288 190.351 131.652C190.348 132.124 190.202 132.545 189.912 132.918C189.622 133.29 189.222 133.584 188.71 133.8C188.202 134.013 187.619 134.119 186.963 134.119ZM186.963 132.764C187.256 132.764 187.511 132.712 187.73 132.607C187.949 132.499 188.119 132.351 188.241 132.163C188.366 131.973 188.429 131.754 188.429 131.507C188.429 131.254 188.365 131.031 188.237 130.838C188.109 130.642 187.936 130.489 187.717 130.378C187.499 130.264 187.247 130.207 186.963 130.207C186.682 130.207 186.43 130.264 186.209 130.378C185.987 130.489 185.813 130.642 185.685 130.838C185.56 131.031 185.497 131.254 185.497 131.507C185.497 131.754 185.558 131.973 185.68 132.163C185.803 132.351 185.974 132.499 186.196 132.607C186.418 132.712 186.673 132.764 186.963 132.764ZM186.963 128.865C187.207 128.865 187.425 128.815 187.615 128.716C187.805 128.616 187.955 128.479 188.062 128.303C188.17 128.126 188.224 127.923 188.224 127.693C188.224 127.466 188.17 127.267 188.062 127.097C187.955 126.923 187.807 126.788 187.619 126.692C187.432 126.592 187.213 126.543 186.963 126.543C186.716 126.543 186.497 126.592 186.307 126.692C186.116 126.788 185.967 126.923 185.859 127.097C185.754 127.267 185.702 127.466 185.702 127.693C185.702 127.923 185.756 128.126 185.864 128.303C185.972 128.479 186.121 128.616 186.311 128.716C186.501 128.815 186.719 128.865 186.963 128.865Z" fill="#007D00"/>
<rect x="211" y="158" width="300" height="8" fill="#007D00" fill-opacity="0.3"/>
<line x1="195" y1="158.5" x2="511" y2="158.5" stroke="#007D00"/>
<line x1="195" y1="165.5" x2="511" y2="165.5" stroke="#007D00"/>
<path d="M186.963 166.119C186.307 166.119 185.723 166.013 185.212 165.8C184.703 165.584 184.304 165.29 184.014 164.918C183.724 164.545 183.58 164.124 183.58 163.652C183.58 163.288 183.662 162.955 183.827 162.651C183.994 162.344 184.222 162.089 184.509 161.888C184.795 161.683 185.116 161.553 185.472 161.496V161.436C185.006 161.342 184.628 161.116 184.338 160.759C184.048 160.398 183.903 159.979 183.903 159.501C183.903 159.05 184.036 158.648 184.3 158.295C184.564 157.94 184.926 157.662 185.386 157.46C185.849 157.256 186.375 157.153 186.963 157.153C187.551 157.153 188.075 157.256 188.536 157.46C188.999 157.665 189.362 157.945 189.626 158.3C189.891 158.652 190.024 159.053 190.027 159.501C190.024 159.982 189.876 160.401 189.584 160.759C189.291 161.116 188.916 161.342 188.459 161.436V161.496C188.808 161.553 189.125 161.683 189.409 161.888C189.696 162.089 189.923 162.344 190.091 162.651C190.261 162.955 190.348 163.288 190.351 163.652C190.348 164.124 190.202 164.545 189.912 164.918C189.622 165.29 189.222 165.584 188.71 165.8C188.202 166.013 187.619 166.119 186.963 166.119ZM186.963 164.764C187.256 164.764 187.511 164.712 187.73 164.607C187.949 164.499 188.119 164.351 188.241 164.163C188.366 163.973 188.429 163.754 188.429 163.507C188.429 163.254 188.365 163.031 188.237 162.838C188.109 162.642 187.936 162.489 187.717 162.378C187.499 162.264 187.247 162.207 186.963 162.207C186.682 162.207 186.43 162.264 186.209 162.378C185.987 162.489 185.813 162.642 185.685 162.838C185.56 163.031 185.497 163.254 185.497 163.507C185.497 163.754 185.558 163.973 185.68 164.163C185.803 164.351 185.974 164.499 186.196 164.607C186.418 164.712 186.673 164.764 186.963 164.764ZM186.963 160.865C187.207 160.865 187.425 160.815 187.615 160.716C187.805 160.616 187.955 160.479 188.062 160.303C188.17 160.126 188.224 159.923 188.224 159.693C188.224 159.466 188.17 159.267 188.062 159.097C187.955 158.923 187.807 158.788 187.619 158.692C187.432 158.592 187.213 158.543 186.963 158.543C186.716 158.543 186.497 158.592 186.307 158.692C186.116 158.788 185.967 158.923 185.859 159.097C185.754 159.267 185.702 159.466 185.702 159.693C185.702 159.923 185.756 160.126 185.864 160.303C185.972 160.479 186.121 160.616 186.311 160.716C186.501 160.815 186.719 160.865 186.963 160.865Z" fill="#007D00"/>
<rect x="211" y="134" width="16" height="24" fill="#007D00" fill-opacity="0.3"/>
<line x1="211.5" y1="110" x2="211.5" y2="166" stroke="#007D00"/>
<line x1="226.5" y1="110" x2="226.5" y2="166" stroke="#007D00"/>
<path d="M216.504 97.2727V106H214.659V99.0241H214.608L212.609 100.277V98.6406L214.77 97.2727H216.504ZM221.928 106.119C221.479 106.116 221.046 106.041 220.628 105.893C220.213 105.746 219.841 105.506 219.512 105.173C219.182 104.841 218.921 104.401 218.728 103.852C218.537 103.304 218.442 102.631 218.442 101.832C218.445 101.099 218.529 100.445 218.694 99.8679C218.861 99.2884 219.1 98.7969 219.409 98.3935C219.722 97.9901 220.096 97.6832 220.53 97.473C220.965 97.2599 221.452 97.1534 221.992 97.1534C222.574 97.1534 223.088 97.267 223.534 97.4943C223.98 97.7187 224.338 98.0241 224.608 98.4105C224.881 98.7969 225.046 99.2301 225.103 99.7102H223.283C223.212 99.4062 223.063 99.1676 222.836 98.9943C222.608 98.821 222.327 98.7344 221.992 98.7344C221.424 98.7344 220.992 98.9815 220.696 99.4759C220.404 99.9702 220.255 100.642 220.249 101.491H220.309C220.439 101.233 220.615 101.013 220.837 100.831C221.061 100.646 221.316 100.506 221.6 100.409C221.887 100.31 222.189 100.26 222.507 100.26C223.025 100.26 223.485 100.382 223.888 100.626C224.292 100.868 224.61 101.2 224.843 101.624C225.076 102.047 225.192 102.531 225.192 103.077C225.192 103.668 225.054 104.193 224.779 104.653C224.506 105.114 224.124 105.474 223.632 105.736C223.144 105.994 222.576 106.122 221.928 106.119ZM221.919 104.67C222.203 104.67 222.458 104.602 222.682 104.466C222.907 104.33 223.083 104.145 223.211 103.912C223.338 103.679 223.402 103.418 223.402 103.128C223.402 102.838 223.338 102.578 223.211 102.348C223.086 102.118 222.912 101.935 222.691 101.798C222.469 101.662 222.216 101.594 221.932 101.594C221.719 101.594 221.522 101.634 221.34 101.713C221.161 101.793 221.003 101.903 220.867 102.045C220.733 102.187 220.628 102.352 220.551 102.54C220.475 102.724 220.436 102.922 220.436 103.132C220.436 103.413 220.5 103.67 220.628 103.903C220.759 104.136 220.935 104.322 221.157 104.462C221.381 104.601 221.635 104.67 221.919 104.67Z" fill="#007D00"/>
<rect x="495" y="134" width="16" height="24" fill="#007D00" fill-opacity="0.3"/>
<line x1="495.5" y1="110" x2="495.5" y2="166" stroke="#007D00"/>
<line x1="510.5" y1="110" x2="510.5" y2="166" stroke="#007D00"/>
<path d="M500.504 97.2727V106H498.659V99.0241H498.608L496.609 100.277V98.6406L498.77 97.2727H500.504ZM505.928 106.119C505.479 106.116 505.046 106.041 504.628 105.893C504.213 105.746 503.841 105.506 503.512 105.173C503.182 104.841 502.921 104.401 502.728 103.852C502.537 103.304 502.442 102.631 502.442 101.832C502.445 101.099 502.529 100.445 502.694 99.8679C502.861 99.2884 503.1 98.7969 503.409 98.3935C503.722 97.9901 504.096 97.6832 504.53 97.473C504.965 97.2599 505.452 97.1534 505.992 97.1534C506.574 97.1534 507.088 97.267 507.534 97.4943C507.98 97.7187 508.338 98.0241 508.608 98.4105C508.881 98.7969 509.046 99.2301 509.103 99.7102H507.283C507.212 99.4062 507.063 99.1676 506.836 98.9943C506.608 98.821 506.327 98.7344 505.992 98.7344C505.424 98.7344 504.992 98.9815 504.696 99.4759C504.404 99.9702 504.255 100.642 504.249 101.491H504.309C504.439 101.233 504.615 101.013 504.837 100.831C505.061 100.646 505.316 100.506 505.6 100.409C505.887 100.31 506.189 100.26 506.507 100.26C507.025 100.26 507.485 100.382 507.888 100.626C508.292 100.868 508.61 101.2 508.843 101.624C509.076 102.047 509.192 102.531 509.192 103.077C509.192 103.668 509.054 104.193 508.779 104.653C508.506 105.114 508.124 105.474 507.632 105.736C507.144 105.994 506.576 106.122 505.928 106.119ZM505.919 104.67C506.203 104.67 506.458 104.602 506.682 104.466C506.907 104.33 507.083 104.145 507.211 103.912C507.338 103.679 507.402 103.418 507.402 103.128C507.402 102.838 507.338 102.578 507.211 102.348C507.086 102.118 506.912 101.935 506.691 101.798C506.469 101.662 506.216 101.594 505.932 101.594C505.719 101.594 505.522 101.634 505.34 101.713C505.161 101.793 505.003 101.903 504.867 102.045C504.733 102.187 504.628 102.352 504.551 102.54C504.475 102.724 504.436 102.922 504.436 103.132C504.436 103.413 504.5 103.67 504.628 103.903C504.759 104.136 504.935 104.322 505.157 104.462C505.381 104.601 505.635 104.67 505.919 104.67Z" fill="#007D00"/>
<defs>
<clipPath id="clip0_29_309">
<rect width="16" height="16" fill="white" transform="translate(171 70)"/>
</clipPath>
<clipPath id="clip1_29_309">
<rect width="40" height="16" fill="white" transform="matrix(0 1 -1 0 171 126)"/>
</clipPath>
<clipPath id="clip2_29_309">
<rect width="40" height="16" fill="white" transform="translate(341 110)"/>
</clipPath>
</defs>
</svg>
