<svg width="16" height="16" viewBox="0 0 16 16" fill="none" xmlns="http://www.w3.org/2000/svg">
<path fill-rule="evenodd" clip-rule="evenodd" d="M1.06667 13.9231L1.06667 10.3489C1.06667 10.0515 0.827885 9.81047 0.533333 9.81047C0.238782 9.81047 5.90097e-08 10.0515 5.54634e-08 10.3489L6.35783e-08 15L16 15L16 10.3489C16 10.0515 15.7612 9.81047 15.4667 9.81047C15.1721 9.81047 14.9333 10.0515 14.9333 10.3489L14.9333 13.9231L1.06667 13.9231ZM5.47075 9.37887C5.6681 9.15811 6.00535 9.14067 6.22401 9.33992L7.46667 10.4723L7.46667 1.53846C7.46667 1.24108 7.70545 1 8 1C8.29455 1 8.53333 1.24108 8.53333 1.53846L8.53333 10.5248L9.76711 9.3482C9.98125 9.144 10.3188 9.15372 10.5211 9.36991C10.7233 9.5861 10.7137 9.9269 10.4996 10.1311L8.05671 12.4607L5.50933 10.1394C5.29067 9.94012 5.27339 9.59963 5.47075 9.37887Z" fill="#292929"></path>
</svg>