<svg width="972" height="786" viewBox="0 0 972 786" fill="none" xmlns="http://www.w3.org/2000/svg">
<path opacity="0.1" d="M-5.616 33.648C-5.616 48.624 1.656 57.48 12.744 57.48C23.04 57.48 28.8 50.856 30.888 45.24L32.832 45.96C30.96 53.376 23.4 60.936 11.52 60.936C-4.896 60.936 -14.4 48.48 -14.4 33.576C-14.4 16.728 -1.512 6.36 13.536 6.36C18.792 6.36 23.832 7.224 28.872 9.24L30.384 25.008H29.088C26.352 12.984 20.88 8.952 12.096 8.952C3.384 8.952 -5.616 16.008 -5.616 33.648ZM49.4123 27.096C52.0043 24 55.5323 20.616 60.8603 20.616C67.1243 20.616 71.9483 24.792 71.9483 34.296V49.632C71.9483 57.048 72.0203 58.056 77.7083 58.704V60H58.9883V58.704C64.6763 58.056 64.7483 57.048 64.7483 49.632V35.736C64.7483 28.896 62.3003 25.656 57.2603 25.656C54.3083 25.656 50.9963 26.664 49.4123 29.04V49.632C49.4123 57.048 49.4843 58.056 55.1723 58.704V60H36.4523V58.704C42.1403 58.056 42.2123 57.048 42.2123 49.632V13.56C42.2123 6.432 42.2123 6.432 36.4523 6.432V5.136L49.5563 0.743999C49.4843 4.56 49.4123 9.096 49.4123 16.512V27.096ZM104.523 55.392C102.939 56.904 100.995 58.488 99.1946 59.568C97.6106 60.576 95.6666 60.936 93.2186 60.936C87.8906 60.936 81.8426 57.12 81.8426 51.432C81.8426 46.824 85.8746 44.016 93.4346 40.416C95.3786 39.48 99.3386 37.68 104.667 35.376V33.72C104.667 26.088 102.075 23.496 97.2506 23.496C90.5546 23.496 89.6906 27.96 90.0506 33.504H82.7786C82.8506 27.528 89.6906 20.688 98.9786 20.688C105.747 20.688 111.723 23.28 111.507 32.928L111.147 51.576C111.075 55.608 111.795 56.256 113.739 56.256C114.891 56.256 115.899 55.608 116.907 54.816L117.627 55.536C115.755 57.912 113.811 60.72 110.355 60.72C107.403 60.72 104.811 58.992 104.523 55.392ZM104.307 53.376L104.523 37.968C98.5466 40.128 95.5226 41.928 94.2986 42.648C91.2026 44.52 89.6906 46.32 89.8346 49.344C90.0506 52.944 92.9306 56.904 97.3946 56.904C100.059 56.904 102.363 55.392 104.307 53.376ZM119.843 60V58.704C125.531 58.056 125.603 57.048 125.603 49.632V33.432C125.603 26.304 125.603 26.304 119.843 26.304V25.008L132.659 20.616L132.803 27.888C135.539 24.432 138.707 20.544 143.243 20.544C146.411 20.544 148.427 22.416 148.427 25.08C148.427 27.528 146.843 29.472 144.323 29.472C143.387 29.472 142.883 29.256 142.019 28.536L139.643 26.448C139.139 26.016 138.851 25.8 138.419 25.8C137.051 25.8 134.747 27.384 132.803 29.976V49.632C132.803 57.768 133.163 58.2 141.515 58.632V60H119.843ZM157.989 13.56C157.989 6.432 157.989 6.432 152.229 6.432V5.136L165.333 0.743999C165.261 4.56 165.189 9.096 165.189 16.512V49.632C165.189 57.048 165.261 58.056 170.949 58.704V60H152.229V58.704C157.917 58.056 157.989 57.048 157.989 49.632V13.56ZM193.859 23.496C186.803 23.496 183.347 28.896 183.347 38.184C183.347 45.312 186.659 58.056 195.947 58.056C202.859 58.056 206.243 52.656 206.243 43.368C206.243 36.168 203.003 23.496 193.859 23.496ZM194.579 20.616C204.803 20.616 214.235 28.824 214.235 40.704C214.235 52.008 205.667 60.936 195.083 60.936C184.931 60.936 175.427 52.656 175.427 40.776C175.427 29.4 183.851 20.616 194.579 20.616ZM232.309 60.936C226.765 60.936 223.453 57.912 223.453 49.92V24.072H217.117V21.264H223.453V14.496L230.653 9.672V21.264H239.941V24.072H230.653V48.624C230.653 54.024 231.877 56.184 235.693 56.184C237.493 56.184 239.581 55.536 241.237 53.952L241.885 54.528C240.085 57.768 237.277 60.936 232.309 60.936ZM256.707 60.936C251.163 60.936 247.851 57.912 247.851 49.92V24.072H241.515V21.264H247.851V14.496L255.051 9.672V21.264H264.339V24.072H255.051V48.624C255.051 54.024 256.275 56.184 260.091 56.184C261.891 56.184 263.979 55.536 265.635 53.952L266.283 54.528C264.483 57.768 261.675 60.936 256.707 60.936ZM286.217 60.936C274.481 60.936 269.009 52.296 269.009 40.92C269.009 29.616 277.001 20.616 286.721 20.616C293.921 20.616 300.473 25.584 301.337 36.24H275.489V36.528C275.489 46.896 280.313 54.672 289.601 54.672C294.857 54.672 298.745 52.368 301.193 49.848L301.985 50.568C299.609 54.96 294.569 60.936 286.217 60.936ZM284.993 23.208C280.745 23.208 276.569 26.088 275.633 33.432H292.625C292.553 26.808 289.601 23.208 284.993 23.208ZM335.681 33.648C335.681 48.624 342.953 57.48 354.041 57.48C364.337 57.48 370.097 50.856 372.185 45.24L374.129 45.96C372.257 53.376 364.697 60.936 352.817 60.936C336.401 60.936 326.897 48.48 326.897 33.576C326.897 16.728 339.785 6.36 354.833 6.36C360.089 6.36 365.129 7.224 370.169 9.24L371.681 25.008H370.385C367.649 12.984 362.177 8.952 353.393 8.952C344.681 8.952 335.681 16.008 335.681 33.648ZM397.414 23.496C390.358 23.496 386.902 28.896 386.902 38.184C386.902 45.312 390.214 58.056 399.502 58.056C406.414 58.056 409.798 52.656 409.798 43.368C409.798 36.168 406.558 23.496 397.414 23.496ZM398.134 20.616C408.358 20.616 417.79 28.824 417.79 40.704C417.79 52.008 409.222 60.936 398.638 60.936C388.486 60.936 378.982 52.656 378.982 40.776C378.982 29.4 387.406 20.616 398.134 20.616ZM429.887 13.56C429.887 6.432 429.887 6.432 424.127 6.432V5.136L437.231 0.743999C437.159 4.56 437.087 9.096 437.087 16.512V49.632C437.087 57.048 437.159 58.056 442.847 58.704V60H424.127V58.704C429.815 58.056 429.887 57.048 429.887 49.632V13.56ZM454.004 13.56C454.004 6.432 454.004 6.432 448.244 6.432V5.136L461.348 0.743999C461.276 4.56 461.204 9.096 461.204 16.512V49.632C461.204 57.048 461.276 58.056 466.964 58.704V60H448.244V58.704C453.932 58.056 454.004 57.048 454.004 49.632V13.56ZM488.507 60.936C476.771 60.936 471.299 52.296 471.299 40.92C471.299 29.616 479.291 20.616 489.011 20.616C496.211 20.616 502.763 25.584 503.627 36.24H477.779V36.528C477.779 46.896 482.603 54.672 491.891 54.672C497.147 54.672 501.035 52.368 503.483 49.848L504.275 50.568C501.899 54.96 496.859 60.936 488.507 60.936ZM487.283 23.208C483.035 23.208 478.859 26.088 477.923 33.432H494.915C494.843 26.808 491.891 23.208 487.283 23.208ZM521.715 60.936C516.171 60.936 512.859 57.912 512.859 49.92V24.072H506.523V21.264H512.859V14.496L520.059 9.672V21.264H529.347V24.072H520.059V48.624C520.059 54.024 521.283 56.184 525.099 56.184C526.899 56.184 528.987 55.536 530.643 53.952L531.291 54.528C529.491 57.768 526.683 60.936 521.715 60.936ZM-5.616 112.648C-5.616 127.624 1.656 136.48 12.744 136.48C23.04 136.48 28.8 129.856 30.888 124.24L32.832 124.96C30.96 132.376 23.4 139.936 11.52 139.936C-4.896 139.936 -14.4 127.48 -14.4 112.576C-14.4 95.728 -1.512 85.36 13.536 85.36C18.792 85.36 23.832 86.224 28.872 88.24L30.384 104.008H29.088C26.352 91.984 20.88 87.952 12.096 87.952C3.384 87.952 -5.616 95.008 -5.616 112.648ZM49.4123 106.096C52.0043 103 55.5323 99.616 60.8603 99.616C67.1243 99.616 71.9483 103.792 71.9483 113.296V128.632C71.9483 136.048 72.0203 137.056 77.7083 137.704V139H58.9883V137.704C64.6763 137.056 64.7483 136.048 64.7483 128.632V114.736C64.7483 107.896 62.3003 104.656 57.2603 104.656C54.3083 104.656 50.9963 105.664 49.4123 108.04V128.632C49.4123 136.048 49.4843 137.056 55.1723 137.704V139H36.4523V137.704C42.1403 137.056 42.2123 136.048 42.2123 128.632V92.56C42.2123 85.432 42.2123 85.432 36.4523 85.432V84.136L49.5563 79.744C49.4843 83.56 49.4123 88.096 49.4123 95.512V106.096ZM104.523 134.392C102.939 135.904 100.995 137.488 99.1946 138.568C97.6106 139.576 95.6666 139.936 93.2186 139.936C87.8906 139.936 81.8426 136.12 81.8426 130.432C81.8426 125.824 85.8746 123.016 93.4346 119.416C95.3786 118.48 99.3386 116.68 104.667 114.376V112.72C104.667 105.088 102.075 102.496 97.2506 102.496C90.5546 102.496 89.6906 106.96 90.0506 112.504H82.7786C82.8506 106.528 89.6906 99.688 98.9786 99.688C105.747 99.688 111.723 102.28 111.507 111.928L111.147 130.576C111.075 134.608 111.795 135.256 113.739 135.256C114.891 135.256 115.899 134.608 116.907 133.816L117.627 134.536C115.755 136.912 113.811 139.72 110.355 139.72C107.403 139.72 104.811 137.992 104.523 134.392ZM104.307 132.376L104.523 116.968C98.5466 119.128 95.5226 120.928 94.2986 121.648C91.2026 123.52 89.6906 125.32 89.8346 128.344C90.0506 131.944 92.9306 135.904 97.3946 135.904C100.059 135.904 102.363 134.392 104.307 132.376ZM153.827 127.264C153.827 134.032 153.827 134.248 159.443 134.464V135.688L147.707 139.576L146.843 132.664C144.827 136.192 140.651 139.936 135.755 139.936C129.491 139.936 124.379 135.904 124.379 125.464C124.379 120.784 124.523 114.304 124.523 109.624C124.523 103.72 124.523 102.64 118.907 102.352V101.056L131.795 99.904C131.723 103.648 131.651 107.608 131.651 114.16V124.096C131.651 131.368 133.811 134.968 138.707 134.968C142.019 134.968 144.683 133.384 146.627 130.288V109.624C146.627 103.72 146.627 102.64 141.011 102.352V101.056L153.971 99.904C153.899 103.648 153.827 107.608 153.827 114.16V127.264ZM161.963 105.304V104.008L174.779 99.616L174.923 106.096C177.515 103 181.043 99.616 186.371 99.616C191.051 99.616 194.939 101.992 196.595 107.248C199.547 103.288 203.795 99.616 208.907 99.616C215.171 99.616 219.995 103.792 219.995 113.296V128.632C219.995 136.048 220.067 137.056 225.755 137.704V139H207.035V137.704C212.723 137.056 212.795 136.048 212.795 128.632V114.736C212.795 107.896 210.347 104.656 205.307 104.656C202.427 104.656 199.043 106.096 197.027 108.76C197.315 110.128 197.459 111.64 197.459 113.296V128.632C197.459 136.048 197.531 137.056 203.219 137.704V139H184.499V137.704C190.187 137.056 190.259 136.048 190.259 128.632V114.736C190.259 107.896 187.811 104.656 182.771 104.656C179.819 104.656 176.507 105.664 174.923 108.04V128.632C174.923 136.048 174.995 137.056 180.683 137.704V139H161.963V137.704C167.651 137.056 167.723 136.048 167.723 128.632V112.432C167.723 105.304 167.723 105.304 161.963 105.304ZM247.929 102.496C240.873 102.496 237.417 107.896 237.417 117.184C237.417 124.312 240.729 137.056 250.017 137.056C256.929 137.056 260.313 131.656 260.313 122.368C260.313 115.168 257.073 102.496 247.929 102.496ZM248.649 99.616C258.873 99.616 268.305 107.824 268.305 119.704C268.305 131.008 259.737 139.936 249.153 139.936C239.001 139.936 229.497 131.656 229.497 119.776C229.497 108.4 237.921 99.616 248.649 99.616ZM272.843 105.304V104.008L285.659 99.616L285.803 106.096C288.395 103 291.923 99.616 297.251 99.616C303.515 99.616 308.123 103.792 308.123 113.296V128.632C308.123 136.048 308.195 137.056 313.883 137.704V139H295.163V137.704C300.851 137.056 300.923 136.048 300.923 128.632V114.736C300.923 107.896 298.691 104.656 293.651 104.656C290.699 104.656 287.387 105.664 285.803 108.04V128.632C285.803 136.048 285.875 137.056 291.563 137.704V139H272.843V137.704C278.531 137.056 278.603 136.048 278.603 128.632V112.432C278.603 105.304 278.603 105.304 272.843 105.304ZM329.551 139.936C324.007 139.936 320.695 136.912 320.695 128.92V103.072H314.359V100.264H320.695V93.496L327.895 88.672V100.264H337.183V103.072H327.895V127.624C327.895 133.024 329.119 135.184 332.935 135.184C334.735 135.184 336.823 134.536 338.479 132.952L339.127 133.528C337.327 136.768 334.519 139.936 329.551 139.936ZM368.562 121.504H338.682V116.752H368.562V121.504ZM379.71 136.408H386.91C400.086 136.408 405.702 136.264 409.806 123.448H411.102L409.014 139.216C403.614 139 397.494 139 393.102 139H369.918V138.208L401.238 89.392H397.638C384.462 89.392 378.846 89.536 374.814 102.352H373.446L375.606 86.584C380.934 86.8 387.054 86.8 391.446 86.8H411.462V87.52L379.71 136.408ZM440.616 134.392C439.032 135.904 437.088 137.488 435.288 138.568C433.704 139.576 431.76 139.936 429.312 139.936C423.984 139.936 417.936 136.12 417.936 130.432C417.936 125.824 421.968 123.016 429.528 119.416C431.472 118.48 435.432 116.68 440.76 114.376V112.72C440.76 105.088 438.168 102.496 433.344 102.496C426.648 102.496 425.784 106.96 426.144 112.504H418.872C418.944 106.528 425.784 99.688 435.072 99.688C441.84 99.688 447.816 102.28 447.6 111.928L447.24 130.576C447.168 134.608 447.888 135.256 449.832 135.256C450.984 135.256 451.992 134.608 453 133.816L453.72 134.536C451.848 136.912 449.904 139.72 446.448 139.72C443.496 139.72 440.904 137.992 440.616 134.392ZM440.4 132.376L440.616 116.968C434.64 119.128 431.616 120.928 430.392 121.648C427.296 123.52 425.784 125.32 425.928 128.344C426.144 131.944 429.024 135.904 433.488 135.904C436.152 135.904 438.456 134.392 440.4 132.376ZM474.585 139.936C462.849 139.936 457.377 131.296 457.377 119.92C457.377 108.616 465.369 99.616 475.089 99.616C482.289 99.616 488.841 104.584 489.705 115.24H463.857V115.528C463.857 125.896 468.681 133.672 477.969 133.672C483.225 133.672 487.113 131.368 489.561 128.848L490.353 129.568C487.977 133.96 482.937 139.936 474.585 139.936ZM473.361 102.208C469.113 102.208 464.937 105.088 464.001 112.432H480.993C480.921 105.808 477.969 102.208 473.361 102.208ZM494.257 139V137.704C499.945 137.056 500.017 136.048 500.017 128.632V112.432C500.017 105.304 500.017 105.304 494.257 105.304V104.008L507.073 99.616L507.217 106.888C509.953 103.432 513.121 99.544 517.657 99.544C520.825 99.544 522.841 101.416 522.841 104.08C522.841 106.528 521.257 108.472 518.737 108.472C517.801 108.472 517.297 108.256 516.433 107.536L514.057 105.448C513.553 105.016 513.265 104.8 512.833 104.8C511.465 104.8 509.161 106.384 507.217 108.976V128.632C507.217 136.768 507.577 137.2 515.929 137.632V139H494.257ZM524.123 154.552V153.256C529.811 152.608 529.883 151.6 529.883 144.184V112.432C529.883 105.304 529.883 105.304 524.123 105.304V104.008L536.939 99.616V105.88C539.171 103.216 543.203 99.616 548.387 99.616C557.963 99.616 563.867 108.184 563.867 118.408C563.867 130.648 555.083 139.936 545.723 139.936C543.203 139.936 539.747 139.36 537.083 136.696V144.184C537.083 152.248 537.155 152.608 544.283 153.256V154.552H524.123ZM545.795 137.416C553.067 137.416 556.235 130.144 556.235 121.072C556.235 110.992 551.411 104.656 544.427 104.656C541.547 104.656 538.739 105.448 537.083 107.68V132.448C538.667 135.832 542.123 137.416 545.795 137.416ZM588.312 102.496C581.256 102.496 577.8 107.896 577.8 117.184C577.8 124.312 581.112 137.056 590.4 137.056C597.312 137.056 600.696 131.656 600.696 122.368C600.696 115.168 597.456 102.496 588.312 102.496ZM589.032 99.616C599.256 99.616 608.688 107.824 608.688 119.704C608.688 131.008 600.12 139.936 589.536 139.936C579.384 139.936 569.88 131.656 569.88 119.776C569.88 108.4 578.304 99.616 589.032 99.616ZM647.21 127.264C647.21 134.032 647.21 134.248 652.826 134.464V135.688L641.09 139.576L640.226 132.664C638.21 136.192 634.034 139.936 629.138 139.936C622.874 139.936 617.762 135.904 617.762 125.464C617.762 120.784 617.906 114.304 617.906 109.624C617.906 103.72 617.906 102.64 612.29 102.352V101.056L625.178 99.904C625.106 103.648 625.034 107.608 625.034 114.16V124.096C625.034 131.368 627.194 134.968 632.09 134.968C635.402 134.968 638.066 133.384 640.01 130.288V109.624C640.01 103.72 640.01 102.64 634.394 102.352V101.056L647.354 99.904C647.282 103.648 647.21 107.608 647.21 114.16V127.264ZM655.202 139V137.704C660.89 137.056 660.962 136.048 660.962 128.632V112.432C660.962 105.304 660.962 105.304 655.202 105.304V104.008L668.018 99.616L668.162 106.888C670.898 103.432 674.066 99.544 678.602 99.544C681.77 99.544 683.786 101.416 683.786 104.08C683.786 106.528 682.202 108.472 679.682 108.472C678.746 108.472 678.242 108.256 677.378 107.536L675.002 105.448C674.498 105.016 674.21 104.8 673.778 104.8C672.41 104.8 670.106 106.384 668.162 108.976V128.632C668.162 136.768 668.522 137.2 676.874 137.632V139H655.202ZM48.384 165.8V167.096C42.12 167.96 41.256 168.176 41.256 176.312V207.488C41.256 215.624 42.12 215.84 48.384 216.704V218H26.208V216.704C32.472 215.84 33.336 215.624 33.336 207.488V172.712L15.48 216.056H14.112L-4.752 171.632V207.488C-4.752 215.624 -3.888 215.84 2.376 216.704V218H-15.192V216.704C-8.928 215.84 -8.064 215.624 -8.064 207.488V176.312C-8.064 168.176 -8.928 167.96 -15.192 167.096V165.8H2.088L17.208 202.736L32.256 165.8H48.384ZM76.8195 213.392C75.2355 214.904 73.2915 216.488 71.4915 217.568C69.9075 218.576 67.9635 218.936 65.5155 218.936C60.1875 218.936 54.1395 215.12 54.1395 209.432C54.1395 204.824 58.1715 202.016 65.7315 198.416C67.6755 197.48 71.6355 195.68 76.9635 193.376V191.72C76.9635 184.088 74.3715 181.496 69.5475 181.496C62.8515 181.496 61.9875 185.96 62.3475 191.504H55.0755C55.1475 185.528 61.9875 178.688 71.2755 178.688C78.0435 178.688 84.0195 181.28 83.8035 190.928L83.4435 209.576C83.3715 213.608 84.0915 214.256 86.0355 214.256C87.1875 214.256 88.1955 213.608 89.2035 212.816L89.9235 213.536C88.0515 215.912 86.1075 218.72 82.6515 218.72C79.6995 218.72 77.1075 216.992 76.8195 213.392ZM76.6035 211.376L76.8195 195.968C70.8435 198.128 67.8195 199.928 66.5955 200.648C63.4995 202.52 61.9875 204.32 62.1315 207.344C62.3475 210.944 65.2275 214.904 69.6915 214.904C72.3555 214.904 74.6595 213.392 76.6035 211.376ZM105.676 218.936C100.132 218.936 96.8198 215.912 96.8198 207.92V182.072H90.4837V179.264H96.8198V172.496L104.02 167.672V179.264H113.308V182.072H104.02V206.624C104.02 212.024 105.244 214.184 109.06 214.184C110.86 214.184 112.948 213.536 114.604 211.952L115.252 212.528C113.452 215.768 110.644 218.936 105.676 218.936ZM129.498 185.096C132.09 182 135.618 178.616 140.946 178.616C147.21 178.616 152.034 182.792 152.034 192.296V207.632C152.034 215.048 152.106 216.056 157.794 216.704V218H139.074V216.704C144.762 216.056 144.834 215.048 144.834 207.632V193.736C144.834 186.896 142.386 183.656 137.346 183.656C134.394 183.656 131.082 184.664 129.498 187.04V207.632C129.498 215.048 129.57 216.056 135.258 216.704V218H116.538V216.704C122.226 216.056 122.298 215.048 122.298 207.632V171.56C122.298 164.432 122.298 164.432 116.538 164.432V163.136L129.642 158.744C129.57 162.56 129.498 167.096 129.498 174.512V185.096ZM175.033 194.384V207.632C175.033 215.048 175.105 216.056 180.793 216.704V218H162.073V216.704C167.761 216.056 167.833 215.048 167.833 207.632V191.432C167.833 184.304 167.833 184.304 162.073 184.304V183.008L175.177 178.616C175.105 182.432 175.033 186.968 175.033 194.384ZM171.073 169.688C168.265 169.688 165.961 167.6 165.961 164.792C165.961 162.056 168.265 159.896 171.073 159.896C173.953 159.896 176.113 162.056 176.113 164.792C176.113 167.6 173.953 169.688 171.073 169.688ZM201.809 178.616C204.473 178.616 208.721 179.264 211.097 180.344V191.072H209.585C208.217 184.16 204.977 181.496 200.225 181.496C196.553 181.496 193.241 183.44 193.241 186.68C193.241 189.776 195.977 191.504 199.361 193.232L203.465 195.392C209.513 198.488 213.257 201.008 213.257 207.56C213.257 214.76 206.345 218.936 199.217 218.936C195.617 218.936 190.793 217.856 187.697 216.2V202.736H189.137C190.289 211.736 193.889 215.624 199.721 215.624C203.465 215.624 207.425 213.968 207.425 209.288C207.425 206.12 204.833 204.248 200.801 202.232L196.697 200.072C191.369 197.336 187.841 194.744 187.841 188.84C187.841 181.64 195.833 178.616 201.809 178.616ZM302.212 165.8V167.096C295.948 167.96 295.084 168.176 295.084 176.312V207.488C295.084 215.624 295.948 215.84 302.212 216.704V218H280.036V216.704C286.3 215.84 287.164 215.624 287.164 207.488V172.712L269.308 216.056H267.94L249.076 171.632V207.488C249.076 215.624 249.94 215.84 256.204 216.704V218H238.636V216.704C244.9 215.84 245.764 215.624 245.764 207.488V176.312C245.764 168.176 244.9 167.96 238.636 167.096V165.8H255.916L271.036 202.736L286.084 165.8H302.212ZM326.328 181.496C319.272 181.496 315.816 186.896 315.816 196.184C315.816 203.312 319.128 216.056 328.416 216.056C335.328 216.056 338.712 210.656 338.712 201.368C338.712 194.168 335.472 181.496 326.328 181.496ZM327.048 178.616C337.272 178.616 346.704 186.824 346.704 198.704C346.704 210.008 338.136 218.936 327.552 218.936C317.4 218.936 307.896 210.656 307.896 198.776C307.896 187.4 316.32 178.616 327.048 178.616ZM358.801 171.56C358.801 164.432 358.801 164.432 353.041 164.432V163.136L366.145 158.744C366.073 162.56 366.001 167.096 366.001 174.512V207.632C366.001 215.048 366.073 216.056 371.761 216.704V218H353.041V216.704C358.729 216.056 358.801 215.048 358.801 207.632V171.56ZM390.119 194.384V207.632C390.119 215.048 390.191 216.056 395.879 216.704V218H377.159V216.704C382.847 216.056 382.919 215.048 382.919 207.632V191.432C382.919 184.304 382.919 184.304 377.159 184.304V183.008L390.263 178.616C390.191 182.432 390.119 186.968 390.119 194.384ZM386.159 169.688C383.351 169.688 381.047 167.6 381.047 164.792C381.047 162.056 383.351 159.896 386.159 159.896C389.039 159.896 391.199 162.056 391.199 164.792C391.199 167.6 389.039 169.688 386.159 169.688ZM399.687 184.304V183.008L412.503 178.616L412.647 185.096C415.239 182 418.767 178.616 424.095 178.616C430.359 178.616 434.967 182.792 434.967 192.296V207.632C434.967 215.048 435.039 216.056 440.727 216.704V218H422.007V216.704C427.695 216.056 427.767 215.048 427.767 207.632V193.736C427.767 186.896 425.535 183.656 420.495 183.656C417.543 183.656 414.231 184.664 412.647 187.04V207.632C412.647 215.048 412.719 216.056 418.407 216.704V218H399.687V216.704C405.375 216.056 405.447 215.048 405.447 207.632V191.432C405.447 184.304 405.447 184.304 399.687 184.304ZM457.619 194.384V207.632C457.619 215.048 457.691 216.056 463.379 216.704V218H444.659V216.704C450.347 216.056 450.419 215.048 450.419 207.632V191.432C450.419 184.304 450.419 184.304 444.659 184.304V183.008L457.763 178.616C457.691 182.432 457.619 186.968 457.619 194.384ZM453.659 169.688C450.851 169.688 448.547 167.6 448.547 164.792C448.547 162.056 450.851 159.896 453.659 159.896C456.539 159.896 458.699 162.056 458.699 164.792C458.699 167.6 456.539 169.688 453.659 169.688ZM485.132 218.936C473.396 218.936 467.924 210.296 467.924 198.92C467.924 187.616 475.916 178.616 485.636 178.616C492.836 178.616 499.388 183.584 500.252 194.24H474.404V194.528C474.404 204.896 479.228 212.672 488.516 212.672C493.772 212.672 497.66 210.368 500.108 207.848L500.9 208.568C498.524 212.96 493.484 218.936 485.132 218.936ZM483.908 181.208C479.66 181.208 475.484 184.088 474.548 191.432H491.54C491.468 184.808 488.516 181.208 483.908 181.208ZM488.3 162.416H497.228L484.124 174.584H482.972L488.3 162.416ZM-2.304 297V295.632C4.752 294.984 5.616 293.904 5.616 286.488V247.032H3.24C-7.632 247.032 -10.8 248.4 -14.832 260.352H-16.2L-14.112 244.584C-8.712 244.8 -2.592 244.8 1.8 244.8H17.352C21.744 244.8 27.864 244.8 33.264 244.584L35.352 260.352H34.056C29.952 248.4 26.784 247.032 15.912 247.032H13.536V286.488C13.536 293.904 14.4 294.984 21.456 295.632V297H-2.304ZM57.6945 292.392C56.1105 293.904 54.1665 295.488 52.3665 296.568C50.7825 297.576 48.8385 297.936 46.3905 297.936C41.0625 297.936 35.0145 294.12 35.0145 288.432C35.0145 283.824 39.0465 281.016 46.6065 277.416C48.5505 276.48 52.5105 274.68 57.8385 272.376V270.72C57.8385 263.088 55.2465 260.496 50.4225 260.496C43.7265 260.496 42.8625 264.96 43.2225 270.504H35.9505C36.0225 264.528 42.8625 257.688 52.1505 257.688C58.9185 257.688 64.8945 260.28 64.6785 269.928L64.3185 288.576C64.2465 292.608 64.9665 293.256 66.9105 293.256C68.0625 293.256 69.0705 292.608 70.0785 291.816L70.7985 292.536C68.9265 294.912 66.9825 297.72 63.5265 297.72C60.5745 297.72 57.9825 295.992 57.6945 292.392ZM57.4785 290.376L57.6945 274.968C51.7185 277.128 48.6945 278.928 47.4705 279.648C44.3745 281.52 42.8625 283.32 43.0065 286.344C43.2225 289.944 46.1025 293.904 50.5665 293.904C53.2305 293.904 55.5345 292.392 57.4785 290.376ZM73.0148 263.304V262.008L85.8308 257.616L85.9748 264.096C88.5668 261 92.0948 257.616 97.4228 257.616C103.687 257.616 108.295 261.792 108.295 271.296V286.632C108.295 294.048 108.367 295.056 114.055 295.704V297H95.3348V295.704C101.023 295.056 101.095 294.048 101.095 286.632V272.736C101.095 265.896 98.8628 262.656 93.8228 262.656C90.8708 262.656 87.5588 263.664 85.9748 266.04V286.632C85.9748 294.048 86.0468 295.056 91.7348 295.704V297H73.0148V295.704C78.7028 295.056 78.7748 294.048 78.7748 286.632V270.432C78.7748 263.304 78.7748 263.304 73.0148 263.304ZM123.935 312.912C119.975 312.912 117.599 311.04 117.599 308.232C117.599 305.64 119.471 304.2 120.911 304.2C121.415 304.2 122.207 304.344 123.143 305.352L126.671 309.024C127.823 307.152 128.831 305.064 130.775 300.456L132.143 297.216L118.319 264.384C116.879 261 116.159 259.776 113.423 259.56V258.264H130.415V259.56C124.871 259.848 125.159 261.792 126.599 265.248L136.247 288.216L144.239 269.064C146.831 262.8 146.687 260.496 141.503 259.56V258.264H155.327V259.56C151.583 260.28 151.078 261.576 148.991 266.616L133.799 302.328C130.775 309.384 128.975 312.912 123.935 312.912ZM177.718 292.392C176.134 293.904 174.19 295.488 172.39 296.568C170.806 297.576 168.862 297.936 166.414 297.936C161.086 297.936 155.038 294.12 155.038 288.432C155.038 283.824 159.07 281.016 166.63 277.416C168.574 276.48 172.534 274.68 177.862 272.376V270.72C177.862 263.088 175.27 260.496 170.446 260.496C163.75 260.496 162.886 264.96 163.246 270.504H155.974C156.046 264.528 162.886 257.688 172.174 257.688C178.942 257.688 184.918 260.28 184.702 269.928L184.342 288.576C184.27 292.608 184.99 293.256 186.934 293.256C188.086 293.256 189.094 292.608 190.102 291.816L190.822 292.536C188.95 294.912 187.006 297.72 183.55 297.72C180.598 297.72 178.006 295.992 177.718 292.392ZM177.502 290.376L177.718 274.968C171.742 277.128 168.718 278.928 167.494 279.648C164.398 281.52 162.886 283.32 163.03 286.344C163.246 289.944 166.126 293.904 170.59 293.904C173.254 293.904 175.558 292.392 177.502 290.376ZM236.077 292.392C234.493 293.904 232.549 295.488 230.749 296.568C229.165 297.576 227.221 297.936 224.773 297.936C219.445 297.936 213.397 294.12 213.397 288.432C213.397 283.824 217.429 281.016 224.989 277.416C226.933 276.48 230.893 274.68 236.221 272.376V270.72C236.221 263.088 233.629 260.496 228.805 260.496C222.109 260.496 221.245 264.96 221.605 270.504H214.333C214.405 264.528 221.245 257.688 230.533 257.688C237.301 257.688 243.277 260.28 243.061 269.928L242.701 288.576C242.629 292.608 243.349 293.256 245.293 293.256C246.445 293.256 247.453 292.608 248.461 291.816L249.181 292.536C247.309 294.912 245.365 297.72 241.909 297.72C238.957 297.72 236.365 295.992 236.077 292.392ZM235.861 290.376L236.077 274.968C230.101 277.128 227.077 278.928 225.853 279.648C222.757 281.52 221.245 283.32 221.389 286.344C221.605 289.944 224.485 293.904 228.949 293.904C231.613 293.904 233.917 292.392 235.861 290.376ZM251.398 263.304V262.008L264.214 257.616L264.358 264.096C266.95 261 270.478 257.616 275.806 257.616C282.07 257.616 286.678 261.792 286.678 271.296V286.632C286.678 294.048 286.75 295.056 292.438 295.704V297H273.718V295.704C279.406 295.056 279.478 294.048 279.478 286.632V272.736C279.478 265.896 277.246 262.656 272.206 262.656C269.254 262.656 265.942 263.664 264.358 266.04V286.632C264.358 294.048 264.43 295.056 270.118 295.704V297H251.398V295.704C257.086 295.056 257.158 294.048 257.158 286.632V270.432C257.158 263.304 257.158 263.304 251.398 263.304ZM322.865 250.2C322.865 243.504 322.865 243.432 316.385 243.432V242.136L330.209 237.744C330.137 241.56 330.065 246.096 330.065 253.512V285.264C330.065 292.032 330.065 292.248 335.681 292.464V293.688L324.017 297.576L323.081 291.384C320.777 295.128 316.745 297.936 311.561 297.936C301.985 297.936 296.009 289.728 296.009 279C296.009 266.688 304.865 257.616 314.225 257.616C316.745 257.616 320.201 258.192 322.865 260.856V250.2ZM314.153 260.136C306.953 260.136 303.641 267.192 303.641 276.264C303.641 286.344 308.609 293.112 315.593 293.112C318.401 293.112 321.209 291.96 322.865 289.584V265.104C321.281 261.72 317.825 260.136 314.153 260.136ZM368.39 294.408H375.59C388.766 294.408 394.382 294.264 398.486 281.448H399.782L397.694 297.216C392.294 297 386.174 297 381.782 297H358.598V296.208L389.918 247.392H386.318C373.142 247.392 367.526 247.536 363.494 260.352H362.126L364.286 244.584C369.614 244.8 375.734 244.8 380.126 244.8H400.142V245.52L368.39 294.408ZM417.92 264.096C420.512 261 424.04 257.616 429.368 257.616C435.632 257.616 440.456 261.792 440.456 271.296V286.632C440.456 294.048 440.528 295.056 446.216 295.704V297H427.496V295.704C433.184 295.056 433.256 294.048 433.256 286.632V272.736C433.256 265.896 430.808 262.656 425.768 262.656C422.816 262.656 419.504 263.664 417.92 266.04V286.632C417.92 294.048 417.992 295.056 423.68 295.704V297H404.96V295.704C410.648 295.056 410.72 294.048 410.72 286.632V250.56C410.72 243.432 410.72 243.432 404.96 243.432V242.136L418.064 237.744C417.992 241.56 417.92 246.096 417.92 253.512V264.096ZM467.342 297.936C455.606 297.936 450.134 289.296 450.134 277.92C450.134 266.616 458.126 257.616 467.846 257.616C475.046 257.616 481.598 262.584 482.462 273.24H456.614V273.528C456.614 283.896 461.438 291.672 470.726 291.672C475.982 291.672 479.87 289.368 482.318 286.848L483.11 287.568C480.734 291.96 475.694 297.936 467.342 297.936ZM466.118 260.208C461.87 260.208 457.694 263.088 456.758 270.432H473.75C473.678 263.808 470.726 260.208 466.118 260.208ZM487.015 263.304V262.008L499.831 257.616L499.975 264.096C502.567 261 506.095 257.616 511.423 257.616C517.687 257.616 522.295 261.792 522.295 271.296V286.632C522.295 294.048 522.367 295.056 528.055 295.704V297H509.335V295.704C515.023 295.056 515.095 294.048 515.095 286.632V272.736C515.095 265.896 512.863 262.656 507.823 262.656C504.871 262.656 501.559 263.664 499.975 266.04V286.632C499.975 294.048 500.047 295.056 505.735 295.704V297H487.015V295.704C492.703 295.056 492.775 294.048 492.775 286.632V270.432C492.775 263.304 492.775 263.304 487.015 263.304ZM537.935 312.912C533.975 312.912 531.599 311.04 531.599 308.232C531.599 305.64 533.471 304.2 534.911 304.2C535.415 304.2 536.207 304.344 537.143 305.352L540.671 309.024C541.823 307.152 542.831 305.064 544.775 300.456L546.143 297.216L532.319 264.384C530.879 261 530.159 259.776 527.423 259.56V258.264H544.415V259.56C538.871 259.848 539.159 261.792 540.599 265.248L550.247 288.216L558.239 269.064C560.831 262.8 560.687 260.496 555.503 259.56V258.264H569.327V259.56C565.583 260.28 565.078 261.576 562.991 266.616L547.799 302.328C544.775 309.384 542.975 312.912 537.935 312.912ZM591.718 292.392C590.134 293.904 588.19 295.488 586.39 296.568C584.806 297.576 582.862 297.936 580.414 297.936C575.086 297.936 569.038 294.12 569.038 288.432C569.038 283.824 573.07 281.016 580.63 277.416C582.574 276.48 586.534 274.68 591.862 272.376V270.72C591.862 263.088 589.27 260.496 584.446 260.496C577.75 260.496 576.886 264.96 577.246 270.504H569.974C570.046 264.528 576.886 257.688 586.174 257.688C592.942 257.688 598.918 260.28 598.702 269.928L598.342 288.576C598.27 292.608 598.99 293.256 600.934 293.256C602.086 293.256 603.094 292.608 604.102 291.816L604.822 292.536C602.95 294.912 601.006 297.72 597.55 297.72C594.598 297.72 592.006 295.992 591.718 292.392ZM591.502 290.376L591.718 274.968C585.742 277.128 582.718 278.928 581.494 279.648C578.398 281.52 576.886 283.32 577.03 286.344C577.246 289.944 580.126 293.904 584.59 293.904C587.254 293.904 589.558 292.392 591.502 290.376ZM662.605 259.92C662.605 249.696 657.421 247.392 648.493 247.392H642.301V272.448H648.493C657.421 272.448 662.605 270.144 662.605 259.92ZM627.253 297V295.704C633.517 294.84 634.381 294.624 634.381 286.488V255.312C634.381 247.176 633.517 246.96 627.253 246.096V244.8H634.885C640.285 244.8 645.613 244.728 649.069 244.728C661.309 244.728 671.389 248.184 671.389 259.92C671.389 271.656 661.309 275.112 649.069 275.112H642.301V286.56C642.301 293.688 642.445 295.056 650.077 295.632V297H627.253ZM693.078 260.496C686.022 260.496 682.566 265.896 682.566 275.184C682.566 282.312 685.878 295.056 695.166 295.056C702.078 295.056 705.462 289.656 705.462 280.368C705.462 273.168 702.222 260.496 693.078 260.496ZM693.798 257.616C704.022 257.616 713.454 265.824 713.454 277.704C713.454 289.008 704.886 297.936 694.302 297.936C684.15 297.936 674.646 289.656 674.646 277.776C674.646 266.4 683.07 257.616 693.798 257.616ZM735.199 257.616C737.863 257.616 742.111 258.264 744.487 259.344V270.072H742.975C741.607 263.16 738.367 260.496 733.615 260.496C729.943 260.496 726.631 262.44 726.631 265.68C726.631 268.776 729.367 270.504 732.751 272.232L736.855 274.392C742.903 277.488 746.647 280.008 746.647 286.56C746.647 293.76 739.735 297.936 732.607 297.936C729.007 297.936 724.183 296.856 721.087 295.2V281.736H722.527C723.679 290.736 727.279 294.624 733.111 294.624C736.855 294.624 740.815 292.968 740.815 288.288C740.815 285.12 738.223 283.248 734.191 281.232L730.087 279.072C724.759 276.336 721.231 273.744 721.231 267.84C721.231 260.64 729.223 257.616 735.199 257.616ZM765.348 297.936C759.804 297.936 756.492 294.912 756.492 286.92V261.072H750.156V258.264H756.492V251.496L763.692 246.672V258.264H772.98V261.072H763.692V285.624C763.692 291.024 764.916 293.184 768.732 293.184C770.532 293.184 772.62 292.536 774.276 290.952L774.924 291.528C773.124 294.768 770.316 297.936 765.348 297.936ZM794.858 297.936C783.122 297.936 777.65 289.296 777.65 277.92C777.65 266.616 785.642 257.616 795.362 257.616C802.562 257.616 809.114 262.584 809.978 273.24H784.13V273.528C784.13 283.896 788.954 291.672 798.242 291.672C803.498 291.672 807.386 289.368 809.834 286.848L810.626 287.568C808.25 291.96 803.21 297.936 794.858 297.936ZM793.634 260.208C789.386 260.208 785.21 263.088 784.274 270.432H801.266C801.194 263.808 798.242 260.208 793.634 260.208ZM814.53 297V295.704C820.218 295.056 820.29 294.048 820.29 286.632V270.432C820.29 263.304 820.29 263.304 814.53 263.304V262.008L827.346 257.616L827.49 264.888C830.226 261.432 833.394 257.544 837.93 257.544C841.098 257.544 843.114 259.416 843.114 262.08C843.114 264.528 841.53 266.472 839.01 266.472C838.074 266.472 837.57 266.256 836.706 265.536L834.33 263.448C833.826 263.016 833.538 262.8 833.106 262.8C831.738 262.8 829.434 264.384 827.49 266.976V286.632C827.49 294.768 827.85 295.2 836.202 295.632V297H814.53ZM845.116 263.304V262.008L857.932 257.616L858.076 264.096C860.668 261 864.196 257.616 869.524 257.616C875.788 257.616 880.396 261.792 880.396 271.296V286.632C880.396 294.048 880.468 295.056 886.156 295.704V297H867.436V295.704C873.124 295.056 873.196 294.048 873.196 286.632V272.736C873.196 265.896 870.964 262.656 865.924 262.656C862.972 262.656 859.66 263.664 858.076 266.04V286.632C858.076 294.048 858.148 295.056 863.836 295.704V297H845.116V295.704C850.804 295.056 850.876 294.048 850.876 286.632V270.432C850.876 263.304 850.876 263.304 845.116 263.304ZM912.624 292.392C911.04 293.904 909.096 295.488 907.296 296.568C905.712 297.576 903.768 297.936 901.32 297.936C895.992 297.936 889.944 294.12 889.944 288.432C889.944 283.824 893.976 281.016 901.536 277.416C903.48 276.48 907.44 274.68 912.768 272.376V270.72C912.768 263.088 910.176 260.496 905.352 260.496C898.656 260.496 897.792 264.96 898.152 270.504H890.88C890.952 264.528 897.792 257.688 907.08 257.688C913.848 257.688 919.824 260.28 919.608 269.928L919.248 288.576C919.176 292.608 919.896 293.256 921.84 293.256C922.992 293.256 924 292.608 925.008 291.816L925.728 292.536C923.856 294.912 921.912 297.72 918.456 297.72C915.504 297.72 912.912 295.992 912.624 292.392ZM912.408 290.376L912.624 274.968C906.648 277.128 903.624 278.928 902.4 279.648C899.304 281.52 897.792 283.32 897.936 286.344C898.152 289.944 901.032 293.904 905.496 293.904C908.16 293.904 910.464 292.392 912.408 290.376ZM933.704 250.56C933.704 243.432 933.704 243.432 927.944 243.432V242.136L941.048 237.744C940.976 241.56 940.904 246.096 940.904 253.512V286.632C940.904 294.048 940.976 295.056 946.664 295.704V297H927.944V295.704C933.632 295.056 933.704 294.048 933.704 286.632V250.56ZM952.064 297V295.704C957.32 295.416 956.456 293.688 953.864 290.664L941.12 276.048L953.432 265.824C957.32 262.584 959.192 259.776 953.144 259.56V258.264H969.776V259.56C964.952 259.56 962.792 261.576 957.392 265.824L947.672 273.456L963.872 291.528C966.248 294.12 968.192 295.56 971.36 295.704V297H952.064ZM-17.64 376V374.704C-12.744 374.272 -12.024 372.976 -7.848 362.464L7.776 323.296C9.216 323.152 10.584 322.36 11.52 321.064H11.808L30.384 367.504C32.544 372.904 33.264 374.488 38.016 374.704V376H17.136V374.704C22.104 374.128 23.688 372.76 22.248 369.088L18.216 359.008H-3.096L-3.456 360.016C-8.64 373.264 -7.704 374.128 -1.512 374.704V376H-17.64ZM7.56 332.08L-1.656 355.48H16.848L7.56 332.08ZM39.6866 342.304V341.008L52.5026 336.616L52.6466 343.096C55.2386 340 58.7666 336.616 64.0946 336.616C70.3586 336.616 74.9666 340.792 74.9666 350.296V365.632C74.9666 373.048 75.0386 374.056 80.7266 374.704V376H62.0066V374.704C67.6946 374.056 67.7666 373.048 67.7666 365.632V351.736C67.7666 344.896 65.5346 341.656 60.4946 341.656C57.5426 341.656 54.2306 342.664 52.6466 345.04V365.632C52.6466 373.048 52.7186 374.056 58.4066 374.704V376H39.6866V374.704C45.3746 374.056 45.4466 373.048 45.4466 365.632V349.432C45.4466 342.304 45.4466 342.304 39.6866 342.304ZM107.195 371.392C105.611 372.904 103.667 374.488 101.867 375.568C100.283 376.576 98.3385 376.936 95.8905 376.936C90.5625 376.936 84.5145 373.12 84.5145 367.432C84.5145 362.824 88.5465 360.016 96.1065 356.416C98.0505 355.48 102.011 353.68 107.339 351.376V349.72C107.339 342.088 104.747 339.496 99.9225 339.496C93.2265 339.496 92.3625 343.96 92.7225 349.504H85.4505C85.5225 343.528 92.3625 336.688 101.651 336.688C108.419 336.688 114.395 339.28 114.179 348.928L113.819 367.576C113.747 371.608 114.467 372.256 116.411 372.256C117.562 372.256 118.57 371.608 119.578 370.816L120.299 371.536C118.427 373.912 116.483 376.72 113.027 376.72C110.075 376.72 107.483 374.992 107.195 371.392ZM106.979 369.376L107.195 353.968C101.219 356.128 98.1945 357.928 96.9705 358.648C93.8745 360.52 92.3625 362.32 92.5065 365.344C92.7225 368.944 95.6025 372.904 100.066 372.904C102.73 372.904 105.035 371.392 106.979 369.376ZM121.003 324.88C121.003 322.36 122.875 320.416 125.467 320.416C127.915 320.416 129.859 322.36 129.859 324.88C129.859 327.544 127.915 329.416 125.467 329.416C122.875 329.416 121.003 327.544 121.003 324.88ZM136.699 324.88C136.699 322.36 138.643 320.416 141.235 320.416C143.611 320.416 145.627 322.36 145.627 324.88C145.627 327.544 143.611 329.416 141.235 329.416C138.643 329.416 136.699 327.544 136.699 324.88ZM137.275 352.384V365.632C137.275 373.048 137.347 374.056 143.035 374.704V376H124.315V374.704C130.003 374.056 130.075 373.048 130.075 365.632V349.432C130.075 342.304 130.075 342.304 124.315 342.304V341.008L137.419 336.616C137.347 340.432 137.275 344.968 137.275 352.384ZM167.596 336.616C173.644 336.616 178.108 340.144 178.108 343.888C178.108 346.048 176.524 347.776 174.004 347.776C172.636 347.776 171.412 347.344 170.62 345.76L168.316 341.008C167.74 339.856 167.02 339.568 165.652 339.568C160.468 339.568 154.132 343.24 154.132 353.968C154.132 362.536 158.452 370.672 167.956 370.672C171.628 370.672 175.516 369.088 178.396 366.496L179.188 367.216C176.668 371.392 172.276 376.936 163.996 376.936C152.836 376.936 147.58 367.864 147.58 357.496C147.58 344.536 157.012 336.616 167.596 336.616ZM188.181 329.56C188.181 322.432 188.181 322.432 182.421 322.432V321.136L195.525 316.744C195.453 320.56 195.381 325.096 195.381 332.512V365.632C195.381 373.048 195.453 374.056 201.141 374.704V376H182.421V374.704C188.109 374.056 188.181 373.048 188.181 365.632V329.56ZM206.541 376V374.704C211.797 374.416 210.933 372.688 208.341 369.664L195.597 355.048L207.909 344.824C211.797 341.584 213.669 338.776 207.621 338.56V337.264H224.253V338.56C219.429 338.56 217.269 340.576 211.869 344.824L202.149 352.456L218.349 370.528C220.725 373.12 222.669 374.56 225.837 374.704V376H206.541ZM247.496 376V374.704C253.76 373.84 254.624 373.624 254.624 365.488V334.312C254.624 326.176 253.76 325.96 247.496 325.096V323.8H269.672V325.096C263.408 325.96 262.544 326.176 262.544 334.312V370.24C262.544 372.904 262.904 373.552 265.784 373.552H266.72C279.752 373.48 283.712 372.4 288.104 360.232H289.472L286.664 376.072C281.336 376 275.144 376 270.752 376H247.496ZM310.194 376.936C298.458 376.936 292.986 368.296 292.986 356.92C292.986 345.616 300.978 336.616 310.698 336.616C317.898 336.616 324.45 341.584 325.314 352.24H299.466V352.528C299.466 362.896 304.29 370.672 313.578 370.672C318.834 370.672 322.722 368.368 325.17 365.848L325.962 366.568C323.586 370.96 318.546 376.936 310.194 376.936ZM308.97 339.208C304.722 339.208 300.546 342.088 299.61 349.432H316.602C316.53 342.808 313.578 339.208 308.97 339.208ZM336.49 349.432C336.49 342.304 336.49 342.304 330.73 342.304V341.008L343.834 336.616C343.762 340.432 343.69 344.968 343.69 352.384V369.088C343.69 378.592 341.746 386.296 330.01 392.776L329.434 392.056C335.77 385.288 336.49 378.736 336.49 370.24V349.432ZM339.514 327.688C336.706 327.688 334.402 325.6 334.402 322.792C334.402 320.056 336.706 317.896 339.514 317.896C342.394 317.896 344.554 320.056 344.554 322.792C344.554 325.6 342.394 327.688 339.514 327.688ZM376.07 371.392C374.486 372.904 372.542 374.488 370.742 375.568C369.158 376.576 367.214 376.936 364.766 376.936C359.438 376.936 353.39 373.12 353.39 367.432C353.39 362.824 357.422 360.016 364.982 356.416C366.926 355.48 370.886 353.68 376.214 351.376V349.72C376.214 342.088 373.622 339.496 368.798 339.496C362.102 339.496 361.238 343.96 361.598 349.504H354.326C354.398 343.528 361.238 336.688 370.526 336.688C377.294 336.688 383.27 339.28 383.054 348.928L382.694 367.576C382.622 371.608 383.342 372.256 385.286 372.256C386.438 372.256 387.445 371.608 388.453 370.816L389.174 371.536C387.302 373.912 385.358 376.72 381.902 376.72C378.95 376.72 376.358 374.992 376.07 371.392ZM375.854 369.376L376.07 353.968C370.094 356.128 367.07 357.928 365.846 358.648C362.75 360.52 361.238 362.32 361.382 365.344C361.598 368.944 364.478 372.904 368.941 372.904C371.605 372.904 373.91 371.392 375.854 369.376ZM391.39 376V374.704C397.078 374.056 397.15 373.048 397.15 365.632V349.432C397.15 342.304 397.15 342.304 391.39 342.304V341.008L404.206 336.616L404.35 343.888C407.086 340.432 410.254 336.544 414.79 336.544C417.958 336.544 419.974 338.416 419.974 341.08C419.974 343.528 418.39 345.472 415.87 345.472C414.934 345.472 414.43 345.256 413.566 344.536L411.19 342.448C410.686 342.016 410.398 341.8 409.966 341.8C408.598 341.8 406.294 343.384 404.35 345.976V365.632C404.35 373.768 404.71 374.2 413.062 374.632V376H391.39ZM435.512 376.936C429.968 376.936 426.656 373.912 426.656 365.92V340.072H420.32V337.264H426.656V330.496L433.856 325.672V337.264H443.144V340.072H433.856V364.624C433.856 370.024 435.08 372.184 438.896 372.184C440.696 372.184 442.784 371.536 444.44 369.952L445.088 370.528C443.288 373.768 440.48 376.936 435.512 376.936ZM-3.528 413.312C-3.528 405.176 -4.392 404.96 -10.656 404.096V402.8H11.52V404.096C5.256 404.96 4.392 405.176 4.392 413.312V438.152C4.392 452.552 -2.16 455.936 -8.712 455.936C-11.376 455.936 -15.336 455.504 -17.208 454.928V445.28H-16.416C-14.544 448.448 -11.088 453.344 -7.992 453.344C-5.76 453.344 -3.528 452.48 -3.528 438.656V413.312ZM48.0066 443.264C48.0066 450.032 48.0066 450.248 53.6226 450.464V451.688L41.8866 455.576L41.0226 448.664C39.0066 452.192 34.8306 455.936 29.9346 455.936C23.6706 455.936 18.5586 451.904 18.5586 441.464C18.5586 436.784 18.7026 430.304 18.7026 425.624C18.7026 419.72 18.7026 418.64 13.0866 418.352V417.056L25.9746 415.904C25.9026 419.648 25.8306 423.608 25.8306 430.16V440.096C25.8306 447.368 27.9906 450.968 32.8866 450.968C36.1986 450.968 38.8626 449.384 40.8066 446.288V425.624C40.8066 419.72 40.8066 418.64 35.1906 418.352V417.056L48.1506 415.904C48.0786 419.648 48.0066 423.608 48.0066 430.16V443.264ZM63.5591 408.56C63.5591 401.432 63.5591 401.432 57.7991 401.432V400.136L70.9031 395.744C70.8311 399.56 70.7591 404.096 70.7591 411.512V444.632C70.7591 452.048 70.8311 453.056 76.5191 453.704V455H57.7991V453.704C63.4871 453.056 63.5591 452.048 63.5591 444.632V408.56ZM94.8763 431.384V444.632C94.8763 452.048 94.9483 453.056 100.636 453.704V455H81.9163V453.704C87.6043 453.056 87.6763 452.048 87.6763 444.632V428.432C87.6763 421.304 87.6763 421.304 81.9163 421.304V420.008L95.0203 415.616C94.9483 419.432 94.8763 423.968 94.8763 431.384ZM90.9163 406.688C88.1083 406.688 85.8043 404.6 85.8043 401.792C85.8043 399.056 88.1083 396.896 90.9163 396.896C93.7963 396.896 95.9563 399.056 95.9563 401.792C95.9563 404.6 93.7963 406.688 90.9163 406.688ZM122.389 455.936C110.653 455.936 105.181 447.296 105.181 435.92C105.181 424.616 113.173 415.616 122.893 415.616C130.093 415.616 136.645 420.584 137.509 431.24H111.661V431.528C111.661 441.896 116.485 449.672 125.773 449.672C131.029 449.672 134.917 447.368 137.365 444.848L138.157 445.568C135.781 449.96 130.741 455.936 122.389 455.936ZM121.165 418.208C116.917 418.208 112.741 421.088 111.805 428.432H128.797C128.725 421.808 125.773 418.208 121.165 418.208ZM155.598 455.936C150.054 455.936 146.742 452.912 146.742 444.92V419.072H140.406V416.264H146.742V409.496L153.942 404.672V416.264H163.23V419.072H153.942V443.624C153.942 449.024 155.166 451.184 158.982 451.184C160.782 451.184 162.87 450.536 164.526 448.952L165.174 449.528C163.374 452.768 160.566 455.936 155.598 455.936ZM179.996 455.936C174.452 455.936 171.14 452.912 171.14 444.92V419.072H164.804V416.264H171.14V409.496L178.34 404.672V416.264H187.628V419.072H178.34V443.624C178.34 449.024 179.564 451.184 183.38 451.184C185.18 451.184 187.268 450.536 188.924 448.952L189.572 449.528C187.772 452.768 184.964 455.936 179.996 455.936ZM209.507 455.936C197.771 455.936 192.299 447.296 192.299 435.92C192.299 424.616 200.291 415.616 210.011 415.616C217.211 415.616 223.763 420.584 224.627 431.24H198.779V431.528C198.779 441.896 203.603 449.672 212.891 449.672C218.147 449.672 222.035 447.368 224.483 444.848L225.275 445.568C222.899 449.96 217.859 455.936 209.507 455.936ZM208.283 418.208C204.035 418.208 199.859 421.088 198.923 428.432H215.915C215.843 421.808 212.891 418.208 208.283 418.208ZM259.546 452.408H266.746C279.922 452.408 285.538 452.264 289.642 439.448H290.938L288.85 455.216C283.45 455 277.33 455 272.938 455H249.754V454.208L281.074 405.392H277.474C264.298 405.392 258.682 405.536 254.65 418.352H253.282L255.442 402.584C260.77 402.8 266.89 402.8 271.282 402.8H291.298V403.52L259.546 452.408ZM320.452 450.392C318.868 451.904 316.924 453.488 315.124 454.568C313.54 455.576 311.596 455.936 309.148 455.936C303.82 455.936 297.772 452.12 297.772 446.432C297.772 441.824 301.804 439.016 309.364 435.416C311.308 434.48 315.268 432.68 320.596 430.376V428.72C320.596 421.088 318.004 418.496 313.18 418.496C306.484 418.496 305.62 422.96 305.98 428.504H298.708C298.78 422.528 305.62 415.688 314.908 415.688C321.676 415.688 327.652 418.28 327.436 427.928L327.076 446.576C327.004 450.608 327.724 451.256 329.668 451.256C330.82 451.256 331.828 450.608 332.836 449.816L333.556 450.536C331.684 452.912 329.74 455.72 326.284 455.72C323.332 455.72 320.74 453.992 320.452 450.392ZM320.236 448.376L320.452 432.968C314.476 435.128 311.452 436.928 310.228 437.648C307.132 439.52 305.62 441.32 305.764 444.344C305.98 447.944 308.86 451.904 313.324 451.904C315.988 451.904 318.292 450.392 320.236 448.376ZM341.533 408.56C341.533 401.432 341.533 401.432 335.773 401.432V400.136L348.877 395.744C348.805 399.56 348.733 404.096 348.733 411.512V444.632C348.733 452.048 348.805 453.056 354.493 453.704V455H335.773V453.704C341.461 453.056 341.533 452.048 341.533 444.632V408.56ZM359.893 455V453.704C365.149 453.416 364.285 451.688 361.693 448.664L348.949 434.048L361.261 423.824C365.149 420.584 367.021 417.776 360.973 417.56V416.264H377.605V417.56C372.781 417.56 370.621 419.576 365.221 423.824L355.501 431.456L371.701 449.528C374.077 452.12 376.021 453.56 379.189 453.704V455H359.893ZM398.82 418.496C391.764 418.496 388.308 423.896 388.308 433.184C388.308 440.312 391.62 453.056 400.908 453.056C407.82 453.056 411.204 447.656 411.204 438.368C411.204 431.168 407.964 418.496 398.82 418.496ZM399.54 415.616C409.764 415.616 419.196 423.824 419.196 435.704C419.196 447.008 410.628 455.936 400.044 455.936C389.892 455.936 380.388 447.656 380.388 435.776C380.388 424.4 388.812 415.616 399.54 415.616ZM459.191 455.936L449.543 427.208L439.679 455.936H438.311L426.287 422.456C424.991 419 424.199 417.92 421.391 417.56V416.264H438.383V417.56C432.839 417.848 433.415 419.792 434.567 423.32L441.047 443.192L450.263 416.264H452.927L461.927 443.192L467.759 426.92C470.351 419.792 470.423 417.992 465.743 417.56V416.264H478.487V417.56C475.247 417.848 474.095 419.504 472.151 424.544L460.631 455.936H459.191ZM497.366 455.936C485.63 455.936 480.158 447.296 480.158 435.92C480.158 424.616 488.15 415.616 497.87 415.616C505.07 415.616 511.622 420.584 512.486 431.24H486.638V431.528C486.638 441.896 491.462 449.672 500.75 449.672C506.006 449.672 509.894 447.368 512.342 444.848L513.134 445.568C510.758 449.96 505.718 455.936 497.366 455.936ZM496.142 418.208C491.894 418.208 487.718 421.088 486.782 428.432H503.774C503.702 421.808 500.75 418.208 496.142 418.208ZM526.326 451.544L522.222 455.648H521.07C521.214 451.544 521.358 447.368 521.358 443.264V408.56C521.358 401.432 521.358 401.432 515.598 401.432V400.136L528.702 395.744C528.63 399.56 528.558 404.096 528.558 411.512V422.024C530.862 419.216 534.678 415.616 539.862 415.616C549.438 415.616 555.342 424.184 555.342 434.408C555.342 446.648 546.702 455.936 537.054 455.936C532.014 455.936 528.558 453.776 526.326 451.544ZM537.27 453.056C544.758 453.056 547.71 446.144 547.71 437.072C547.71 426.992 542.886 420.656 535.902 420.656C533.022 420.656 530.214 421.592 528.558 423.968V448.52C530.358 451.4 533.958 453.056 537.27 453.056ZM-5.616 507.648C-5.616 522.624 1.656 531.48 12.744 531.48C23.04 531.48 28.8 524.856 30.888 519.24L32.832 519.96C30.96 527.376 23.4 534.936 11.52 534.936C-4.896 534.936 -14.4 522.48 -14.4 507.576C-14.4 490.728 -1.512 480.36 13.536 480.36C18.792 480.36 23.832 481.224 28.872 483.24L30.384 499.008H29.088C26.352 486.984 20.88 482.952 12.096 482.952C3.384 482.952 -5.616 490.008 -5.616 507.648ZM49.4123 501.096C52.0043 498 55.5323 494.616 60.8603 494.616C67.1243 494.616 71.9483 498.792 71.9483 508.296V523.632C71.9483 531.048 72.0203 532.056 77.7083 532.704V534H58.9883V532.704C64.6763 532.056 64.7483 531.048 64.7483 523.632V509.736C64.7483 502.896 62.3003 499.656 57.2603 499.656C54.3083 499.656 50.9963 500.664 49.4123 503.04V523.632C49.4123 531.048 49.4843 532.056 55.1723 532.704V534H36.4523V532.704C42.1403 532.056 42.2123 531.048 42.2123 523.632V487.56C42.2123 480.432 42.2123 480.432 36.4523 480.432V479.136L49.5563 474.744C49.4843 478.56 49.4123 483.096 49.4123 490.512V501.096ZM104.523 529.392C102.939 530.904 100.995 532.488 99.1946 533.568C97.6106 534.576 95.6666 534.936 93.2186 534.936C87.8906 534.936 81.8426 531.12 81.8426 525.432C81.8426 520.824 85.8746 518.016 93.4346 514.416C95.3786 513.48 99.3386 511.68 104.667 509.376V507.72C104.667 500.088 102.075 497.496 97.2506 497.496C90.5546 497.496 89.6906 501.96 90.0506 507.504H82.7786C82.8506 501.528 89.6906 494.688 98.9786 494.688C105.747 494.688 111.723 497.28 111.507 506.928L111.147 525.576C111.075 529.608 111.795 530.256 113.739 530.256C114.891 530.256 115.899 529.608 116.907 528.816L117.627 529.536C115.755 531.912 113.811 534.72 110.355 534.72C107.403 534.72 104.811 532.992 104.523 529.392ZM104.307 527.376L104.523 511.968C98.5466 514.128 95.5226 515.928 94.2986 516.648C91.2026 518.52 89.6906 520.32 89.8346 523.344C90.0506 526.944 92.9306 530.904 97.3946 530.904C100.059 530.904 102.363 529.392 104.307 527.376ZM119.843 534V532.704C125.531 532.056 125.603 531.048 125.603 523.632V507.432C125.603 500.304 125.603 500.304 119.843 500.304V499.008L132.659 494.616L132.803 501.888C135.539 498.432 138.707 494.544 143.243 494.544C146.411 494.544 148.427 496.416 148.427 499.08C148.427 501.528 146.843 503.472 144.323 503.472C143.387 503.472 142.883 503.256 142.019 502.536L139.643 500.448C139.139 500.016 138.851 499.8 138.419 499.8C137.051 499.8 134.747 501.384 132.803 503.976V523.632C132.803 531.768 133.163 532.2 141.515 532.632V534H119.843ZM157.989 487.56C157.989 480.432 157.989 480.432 152.229 480.432V479.136L165.333 474.744C165.261 478.56 165.189 483.096 165.189 490.512V523.632C165.189 531.048 165.261 532.056 170.949 532.704V534H152.229V532.704C157.917 532.056 157.989 531.048 157.989 523.632V487.56ZM193.859 497.496C186.803 497.496 183.347 502.896 183.347 512.184C183.347 519.312 186.659 532.056 195.947 532.056C202.859 532.056 206.243 526.656 206.243 517.368C206.243 510.168 203.003 497.496 193.859 497.496ZM194.579 494.616C204.803 494.616 214.235 502.824 214.235 514.704C214.235 526.008 205.667 534.936 195.083 534.936C184.931 534.936 175.427 526.656 175.427 514.776C175.427 503.4 183.851 494.616 194.579 494.616ZM232.309 534.936C226.765 534.936 223.453 531.912 223.453 523.92V498.072H217.117V495.264H223.453V488.496L230.653 483.672V495.264H239.941V498.072H230.653V522.624C230.653 528.024 231.877 530.184 235.693 530.184C237.493 530.184 239.581 529.536 241.237 527.952L241.885 528.528C240.085 531.768 237.277 534.936 232.309 534.936ZM256.707 534.936C251.163 534.936 247.851 531.912 247.851 523.92V498.072H241.515V495.264H247.851V488.496L255.051 483.672V495.264H264.339V498.072H255.051V522.624C255.051 528.024 256.275 530.184 260.091 530.184C261.891 530.184 263.979 529.536 265.635 527.952L266.283 528.528C264.483 531.768 261.675 534.936 256.707 534.936ZM286.217 534.936C274.481 534.936 269.009 526.296 269.009 514.92C269.009 503.616 277.001 494.616 286.721 494.616C293.921 494.616 300.473 499.584 301.337 510.24H275.489V510.528C275.489 520.896 280.313 528.672 289.601 528.672C294.857 528.672 298.745 526.368 301.193 523.848L301.985 524.568C299.609 528.96 294.569 534.936 286.217 534.936ZM284.993 497.208C280.745 497.208 276.569 500.088 275.633 507.432H292.625C292.553 500.808 289.601 497.208 284.993 497.208ZM335.681 507.648C335.681 522.624 342.953 531.48 354.041 531.48C364.337 531.48 370.097 524.856 372.185 519.24L374.129 519.96C372.257 527.376 364.697 534.936 352.817 534.936C336.401 534.936 326.897 522.48 326.897 507.576C326.897 490.728 339.785 480.36 354.833 480.36C360.089 480.36 365.129 481.224 370.169 483.24L371.681 499.008H370.385C367.649 486.984 362.177 482.952 353.393 482.952C344.681 482.952 335.681 490.008 335.681 507.648ZM397.414 497.496C390.358 497.496 386.902 502.896 386.902 512.184C386.902 519.312 390.214 532.056 399.502 532.056C406.414 532.056 409.798 526.656 409.798 517.368C409.798 510.168 406.558 497.496 397.414 497.496ZM398.134 494.616C408.358 494.616 417.79 502.824 417.79 514.704C417.79 526.008 409.222 534.936 398.638 534.936C388.486 534.936 378.982 526.656 378.982 514.776C378.982 503.4 387.406 494.616 398.134 494.616ZM429.887 487.56C429.887 480.432 429.887 480.432 424.127 480.432V479.136L437.231 474.744C437.159 478.56 437.087 483.096 437.087 490.512V523.632C437.087 531.048 437.159 532.056 442.847 532.704V534H424.127V532.704C429.815 532.056 429.887 531.048 429.887 523.632V487.56ZM454.004 487.56C454.004 480.432 454.004 480.432 448.244 480.432V479.136L461.348 474.744C461.276 478.56 461.204 483.096 461.204 490.512V523.632C461.204 531.048 461.276 532.056 466.964 532.704V534H448.244V532.704C453.932 532.056 454.004 531.048 454.004 523.632V487.56ZM488.507 534.936C476.771 534.936 471.299 526.296 471.299 514.92C471.299 503.616 479.291 494.616 489.011 494.616C496.211 494.616 502.763 499.584 503.627 510.24H477.779V510.528C477.779 520.896 482.603 528.672 491.891 528.672C497.147 528.672 501.035 526.368 503.483 523.848L504.275 524.568C501.899 528.96 496.859 534.936 488.507 534.936ZM487.283 497.208C483.035 497.208 478.859 500.088 477.923 507.432H494.915C494.843 500.808 491.891 497.208 487.283 497.208ZM521.715 534.936C516.171 534.936 512.859 531.912 512.859 523.92V498.072H506.523V495.264H512.859V488.496L520.059 483.672V495.264H529.347V498.072H520.059V522.624C520.059 528.024 521.283 530.184 525.099 530.184C526.899 530.184 528.987 529.536 530.643 527.952L531.291 528.528C529.491 531.768 526.683 534.936 521.715 534.936ZM-5.616 586.648C-5.616 601.624 1.656 610.48 12.744 610.48C23.04 610.48 28.8 603.856 30.888 598.24L32.832 598.96C30.96 606.376 23.4 613.936 11.52 613.936C-4.896 613.936 -14.4 601.48 -14.4 586.576C-14.4 569.728 -1.512 559.36 13.536 559.36C18.792 559.36 23.832 560.224 28.872 562.24L30.384 578.008H29.088C26.352 565.984 20.88 561.952 12.096 561.952C3.384 561.952 -5.616 569.008 -5.616 586.648ZM49.4123 580.096C52.0043 577 55.5323 573.616 60.8603 573.616C67.1243 573.616 71.9483 577.792 71.9483 587.296V602.632C71.9483 610.048 72.0203 611.056 77.7083 611.704V613H58.9883V611.704C64.6763 611.056 64.7483 610.048 64.7483 602.632V588.736C64.7483 581.896 62.3003 578.656 57.2603 578.656C54.3083 578.656 50.9963 579.664 49.4123 582.04V602.632C49.4123 610.048 49.4843 611.056 55.1723 611.704V613H36.4523V611.704C42.1403 611.056 42.2123 610.048 42.2123 602.632V566.56C42.2123 559.432 42.2123 559.432 36.4523 559.432V558.136L49.5563 553.744C49.4843 557.56 49.4123 562.096 49.4123 569.512V580.096ZM104.523 608.392C102.939 609.904 100.995 611.488 99.1946 612.568C97.6106 613.576 95.6666 613.936 93.2186 613.936C87.8906 613.936 81.8426 610.12 81.8426 604.432C81.8426 599.824 85.8746 597.016 93.4346 593.416C95.3786 592.48 99.3386 590.68 104.667 588.376V586.72C104.667 579.088 102.075 576.496 97.2506 576.496C90.5546 576.496 89.6906 580.96 90.0506 586.504H82.7786C82.8506 580.528 89.6906 573.688 98.9786 573.688C105.747 573.688 111.723 576.28 111.507 585.928L111.147 604.576C111.075 608.608 111.795 609.256 113.739 609.256C114.891 609.256 115.899 608.608 116.907 607.816L117.627 608.536C115.755 610.912 113.811 613.72 110.355 613.72C107.403 613.72 104.811 611.992 104.523 608.392ZM104.307 606.376L104.523 590.968C98.5466 593.128 95.5226 594.928 94.2986 595.648C91.2026 597.52 89.6906 599.32 89.8346 602.344C90.0506 605.944 92.9306 609.904 97.3946 609.904C100.059 609.904 102.363 608.392 104.307 606.376ZM153.827 601.264C153.827 608.032 153.827 608.248 159.443 608.464V609.688L147.707 613.576L146.843 606.664C144.827 610.192 140.651 613.936 135.755 613.936C129.491 613.936 124.379 609.904 124.379 599.464C124.379 594.784 124.523 588.304 124.523 583.624C124.523 577.72 124.523 576.64 118.907 576.352V575.056L131.795 573.904C131.723 577.648 131.651 581.608 131.651 588.16V598.096C131.651 605.368 133.811 608.968 138.707 608.968C142.019 608.968 144.683 607.384 146.627 604.288V583.624C146.627 577.72 146.627 576.64 141.011 576.352V575.056L153.971 573.904C153.899 577.648 153.827 581.608 153.827 588.16V601.264ZM161.963 579.304V578.008L174.779 573.616L174.923 580.096C177.515 577 181.043 573.616 186.371 573.616C191.051 573.616 194.939 575.992 196.595 581.248C199.547 577.288 203.795 573.616 208.907 573.616C215.171 573.616 219.995 577.792 219.995 587.296V602.632C219.995 610.048 220.067 611.056 225.755 611.704V613H207.035V611.704C212.723 611.056 212.795 610.048 212.795 602.632V588.736C212.795 581.896 210.347 578.656 205.307 578.656C202.427 578.656 199.043 580.096 197.027 582.76C197.315 584.128 197.459 585.64 197.459 587.296V602.632C197.459 610.048 197.531 611.056 203.219 611.704V613H184.499V611.704C190.187 611.056 190.259 610.048 190.259 602.632V588.736C190.259 581.896 187.811 578.656 182.771 578.656C179.819 578.656 176.507 579.664 174.923 582.04V602.632C174.923 610.048 174.995 611.056 180.683 611.704V613H161.963V611.704C167.651 611.056 167.723 610.048 167.723 602.632V586.432C167.723 579.304 167.723 579.304 161.963 579.304ZM247.929 576.496C240.873 576.496 237.417 581.896 237.417 591.184C237.417 598.312 240.729 611.056 250.017 611.056C256.929 611.056 260.313 605.656 260.313 596.368C260.313 589.168 257.073 576.496 247.929 576.496ZM248.649 573.616C258.873 573.616 268.305 581.824 268.305 593.704C268.305 605.008 259.737 613.936 249.153 613.936C239.001 613.936 229.497 605.656 229.497 593.776C229.497 582.4 237.921 573.616 248.649 573.616ZM272.843 579.304V578.008L285.659 573.616L285.803 580.096C288.395 577 291.923 573.616 297.251 573.616C303.515 573.616 308.123 577.792 308.123 587.296V602.632C308.123 610.048 308.195 611.056 313.883 611.704V613H295.163V611.704C300.851 611.056 300.923 610.048 300.923 602.632V588.736C300.923 581.896 298.691 578.656 293.651 578.656C290.699 578.656 287.387 579.664 285.803 582.04V602.632C285.803 610.048 285.875 611.056 291.563 611.704V613H272.843V611.704C278.531 611.056 278.603 610.048 278.603 602.632V586.432C278.603 579.304 278.603 579.304 272.843 579.304ZM329.551 613.936C324.007 613.936 320.695 610.912 320.695 602.92V577.072H314.359V574.264H320.695V567.496L327.895 562.672V574.264H337.183V577.072H327.895V601.624C327.895 607.024 329.119 609.184 332.935 609.184C334.735 609.184 336.823 608.536 338.479 606.952L339.127 607.528C337.327 610.768 334.519 613.936 329.551 613.936ZM368.562 595.504H338.682V590.752H368.562V595.504ZM379.71 610.408H386.91C400.086 610.408 405.702 610.264 409.806 597.448H411.102L409.014 613.216C403.614 613 397.494 613 393.102 613H369.918V612.208L401.238 563.392H397.638C384.462 563.392 378.846 563.536 374.814 576.352H373.446L375.606 560.584C380.934 560.8 387.054 560.8 391.446 560.8H411.462V561.52L379.71 610.408ZM440.616 608.392C439.032 609.904 437.088 611.488 435.288 612.568C433.704 613.576 431.76 613.936 429.312 613.936C423.984 613.936 417.936 610.12 417.936 604.432C417.936 599.824 421.968 597.016 429.528 593.416C431.472 592.48 435.432 590.68 440.76 588.376V586.72C440.76 579.088 438.168 576.496 433.344 576.496C426.648 576.496 425.784 580.96 426.144 586.504H418.872C418.944 580.528 425.784 573.688 435.072 573.688C441.84 573.688 447.816 576.28 447.6 585.928L447.24 604.576C447.168 608.608 447.888 609.256 449.832 609.256C450.984 609.256 451.992 608.608 453 607.816L453.72 608.536C451.848 610.912 449.904 613.72 446.448 613.72C443.496 613.72 440.904 611.992 440.616 608.392ZM440.4 606.376L440.616 590.968C434.64 593.128 431.616 594.928 430.392 595.648C427.296 597.52 425.784 599.32 425.928 602.344C426.144 605.944 429.024 609.904 433.488 609.904C436.152 609.904 438.456 608.392 440.4 606.376ZM474.585 613.936C462.849 613.936 457.377 605.296 457.377 593.92C457.377 582.616 465.369 573.616 475.089 573.616C482.289 573.616 488.841 578.584 489.705 589.24H463.857V589.528C463.857 599.896 468.681 607.672 477.969 607.672C483.225 607.672 487.113 605.368 489.561 602.848L490.353 603.568C487.977 607.96 482.937 613.936 474.585 613.936ZM473.361 576.208C469.113 576.208 464.937 579.088 464.001 586.432H480.993C480.921 579.808 477.969 576.208 473.361 576.208ZM494.257 613V611.704C499.945 611.056 500.017 610.048 500.017 602.632V586.432C500.017 579.304 500.017 579.304 494.257 579.304V578.008L507.073 573.616L507.217 580.888C509.953 577.432 513.121 573.544 517.657 573.544C520.825 573.544 522.841 575.416 522.841 578.08C522.841 580.528 521.257 582.472 518.737 582.472C517.801 582.472 517.297 582.256 516.433 581.536L514.057 579.448C513.553 579.016 513.265 578.8 512.833 578.8C511.465 578.8 509.161 580.384 507.217 582.976V602.632C507.217 610.768 507.577 611.2 515.929 611.632V613H494.257ZM524.123 628.552V627.256C529.811 626.608 529.883 625.6 529.883 618.184V586.432C529.883 579.304 529.883 579.304 524.123 579.304V578.008L536.939 573.616V579.88C539.171 577.216 543.203 573.616 548.387 573.616C557.963 573.616 563.867 582.184 563.867 592.408C563.867 604.648 555.083 613.936 545.723 613.936C543.203 613.936 539.747 613.36 537.083 610.696V618.184C537.083 626.248 537.155 626.608 544.283 627.256V628.552H524.123ZM545.795 611.416C553.067 611.416 556.235 604.144 556.235 595.072C556.235 584.992 551.411 578.656 544.427 578.656C541.547 578.656 538.739 579.448 537.083 581.68V606.448C538.667 609.832 542.123 611.416 545.795 611.416ZM588.312 576.496C581.256 576.496 577.8 581.896 577.8 591.184C577.8 598.312 581.112 611.056 590.4 611.056C597.312 611.056 600.696 605.656 600.696 596.368C600.696 589.168 597.456 576.496 588.312 576.496ZM589.032 573.616C599.256 573.616 608.688 581.824 608.688 593.704C608.688 605.008 600.12 613.936 589.536 613.936C579.384 613.936 569.88 605.656 569.88 593.776C569.88 582.4 578.304 573.616 589.032 573.616ZM647.21 601.264C647.21 608.032 647.21 608.248 652.826 608.464V609.688L641.09 613.576L640.226 606.664C638.21 610.192 634.034 613.936 629.138 613.936C622.874 613.936 617.762 609.904 617.762 599.464C617.762 594.784 617.906 588.304 617.906 583.624C617.906 577.72 617.906 576.64 612.29 576.352V575.056L625.178 573.904C625.106 577.648 625.034 581.608 625.034 588.16V598.096C625.034 605.368 627.194 608.968 632.09 608.968C635.402 608.968 638.066 607.384 640.01 604.288V583.624C640.01 577.72 640.01 576.64 634.394 576.352V575.056L647.354 573.904C647.282 577.648 647.21 581.608 647.21 588.16V601.264ZM655.202 613V611.704C660.89 611.056 660.962 610.048 660.962 602.632V586.432C660.962 579.304 660.962 579.304 655.202 579.304V578.008L668.018 573.616L668.162 580.888C670.898 577.432 674.066 573.544 678.602 573.544C681.77 573.544 683.786 575.416 683.786 578.08C683.786 580.528 682.202 582.472 679.682 582.472C678.746 582.472 678.242 582.256 677.378 581.536L675.002 579.448C674.498 579.016 674.21 578.8 673.778 578.8C672.41 578.8 670.106 580.384 668.162 582.976V602.632C668.162 610.768 668.522 611.2 676.874 611.632V613H655.202ZM48.384 639.8V641.096C42.12 641.96 41.256 642.176 41.256 650.312V681.488C41.256 689.624 42.12 689.84 48.384 690.704V692H26.208V690.704C32.472 689.84 33.336 689.624 33.336 681.488V646.712L15.48 690.056H14.112L-4.752 645.632V681.488C-4.752 689.624 -3.888 689.84 2.376 690.704V692H-15.192V690.704C-8.928 689.84 -8.064 689.624 -8.064 681.488V650.312C-8.064 642.176 -8.928 641.96 -15.192 641.096V639.8H2.088L17.208 676.736L32.256 639.8H48.384ZM76.8195 687.392C75.2355 688.904 73.2915 690.488 71.4915 691.568C69.9075 692.576 67.9635 692.936 65.5155 692.936C60.1875 692.936 54.1395 689.12 54.1395 683.432C54.1395 678.824 58.1715 676.016 65.7315 672.416C67.6755 671.48 71.6355 669.68 76.9635 667.376V665.72C76.9635 658.088 74.3715 655.496 69.5475 655.496C62.8515 655.496 61.9875 659.96 62.3475 665.504H55.0755C55.1475 659.528 61.9875 652.688 71.2755 652.688C78.0435 652.688 84.0195 655.28 83.8035 664.928L83.4435 683.576C83.3715 687.608 84.0915 688.256 86.0355 688.256C87.1875 688.256 88.1955 687.608 89.2035 686.816L89.9235 687.536C88.0515 689.912 86.1075 692.72 82.6515 692.72C79.6995 692.72 77.1075 690.992 76.8195 687.392ZM76.6035 685.376L76.8195 669.968C70.8435 672.128 67.8195 673.928 66.5955 674.648C63.4995 676.52 61.9875 678.32 62.1315 681.344C62.3475 684.944 65.2275 688.904 69.6915 688.904C72.3555 688.904 74.6595 687.392 76.6035 685.376ZM105.676 692.936C100.132 692.936 96.8198 689.912 96.8198 681.92V656.072H90.4837V653.264H96.8198V646.496L104.02 641.672V653.264H113.308V656.072H104.02V680.624C104.02 686.024 105.244 688.184 109.06 688.184C110.86 688.184 112.948 687.536 114.604 685.952L115.252 686.528C113.452 689.768 110.644 692.936 105.676 692.936ZM129.498 659.096C132.09 656 135.618 652.616 140.946 652.616C147.21 652.616 152.034 656.792 152.034 666.296V681.632C152.034 689.048 152.106 690.056 157.794 690.704V692H139.074V690.704C144.762 690.056 144.834 689.048 144.834 681.632V667.736C144.834 660.896 142.386 657.656 137.346 657.656C134.394 657.656 131.082 658.664 129.498 661.04V681.632C129.498 689.048 129.57 690.056 135.258 690.704V692H116.538V690.704C122.226 690.056 122.298 689.048 122.298 681.632V645.56C122.298 638.432 122.298 638.432 116.538 638.432V637.136L129.642 632.744C129.57 636.56 129.498 641.096 129.498 648.512V659.096ZM175.033 668.384V681.632C175.033 689.048 175.105 690.056 180.793 690.704V692H162.073V690.704C167.761 690.056 167.833 689.048 167.833 681.632V665.432C167.833 658.304 167.833 658.304 162.073 658.304V657.008L175.177 652.616C175.105 656.432 175.033 660.968 175.033 668.384ZM171.073 643.688C168.265 643.688 165.961 641.6 165.961 638.792C165.961 636.056 168.265 633.896 171.073 633.896C173.953 633.896 176.113 636.056 176.113 638.792C176.113 641.6 173.953 643.688 171.073 643.688ZM201.809 652.616C204.473 652.616 208.721 653.264 211.097 654.344V665.072H209.585C208.217 658.16 204.977 655.496 200.225 655.496C196.553 655.496 193.241 657.44 193.241 660.68C193.241 663.776 195.977 665.504 199.361 667.232L203.465 669.392C209.513 672.488 213.257 675.008 213.257 681.56C213.257 688.76 206.345 692.936 199.217 692.936C195.617 692.936 190.793 691.856 187.697 690.2V676.736H189.137C190.289 685.736 193.889 689.624 199.721 689.624C203.465 689.624 207.425 687.968 207.425 683.288C207.425 680.12 204.833 678.248 200.801 676.232L196.697 674.072C191.369 671.336 187.841 668.744 187.841 662.84C187.841 655.64 195.833 652.616 201.809 652.616ZM302.212 639.8V641.096C295.948 641.96 295.084 642.176 295.084 650.312V681.488C295.084 689.624 295.948 689.84 302.212 690.704V692H280.036V690.704C286.3 689.84 287.164 689.624 287.164 681.488V646.712L269.308 690.056H267.94L249.076 645.632V681.488C249.076 689.624 249.94 689.84 256.204 690.704V692H238.636V690.704C244.9 689.84 245.764 689.624 245.764 681.488V650.312C245.764 642.176 244.9 641.96 238.636 641.096V639.8H255.916L271.036 676.736L286.084 639.8H302.212ZM326.328 655.496C319.272 655.496 315.816 660.896 315.816 670.184C315.816 677.312 319.128 690.056 328.416 690.056C335.328 690.056 338.712 684.656 338.712 675.368C338.712 668.168 335.472 655.496 326.328 655.496ZM327.048 652.616C337.272 652.616 346.704 660.824 346.704 672.704C346.704 684.008 338.136 692.936 327.552 692.936C317.4 692.936 307.896 684.656 307.896 672.776C307.896 661.4 316.32 652.616 327.048 652.616ZM358.801 645.56C358.801 638.432 358.801 638.432 353.041 638.432V637.136L366.145 632.744C366.073 636.56 366.001 641.096 366.001 648.512V681.632C366.001 689.048 366.073 690.056 371.761 690.704V692H353.041V690.704C358.729 690.056 358.801 689.048 358.801 681.632V645.56ZM390.119 668.384V681.632C390.119 689.048 390.191 690.056 395.879 690.704V692H377.159V690.704C382.847 690.056 382.919 689.048 382.919 681.632V665.432C382.919 658.304 382.919 658.304 377.159 658.304V657.008L390.263 652.616C390.191 656.432 390.119 660.968 390.119 668.384ZM386.159 643.688C383.351 643.688 381.047 641.6 381.047 638.792C381.047 636.056 383.351 633.896 386.159 633.896C389.039 633.896 391.199 636.056 391.199 638.792C391.199 641.6 389.039 643.688 386.159 643.688ZM399.687 658.304V657.008L412.503 652.616L412.647 659.096C415.239 656 418.767 652.616 424.095 652.616C430.359 652.616 434.967 656.792 434.967 666.296V681.632C434.967 689.048 435.039 690.056 440.727 690.704V692H422.007V690.704C427.695 690.056 427.767 689.048 427.767 681.632V667.736C427.767 660.896 425.535 657.656 420.495 657.656C417.543 657.656 414.231 658.664 412.647 661.04V681.632C412.647 689.048 412.719 690.056 418.407 690.704V692H399.687V690.704C405.375 690.056 405.447 689.048 405.447 681.632V665.432C405.447 658.304 405.447 658.304 399.687 658.304ZM457.619 668.384V681.632C457.619 689.048 457.691 690.056 463.379 690.704V692H444.659V690.704C450.347 690.056 450.419 689.048 450.419 681.632V665.432C450.419 658.304 450.419 658.304 444.659 658.304V657.008L457.763 652.616C457.691 656.432 457.619 660.968 457.619 668.384ZM453.659 643.688C450.851 643.688 448.547 641.6 448.547 638.792C448.547 636.056 450.851 633.896 453.659 633.896C456.539 633.896 458.699 636.056 458.699 638.792C458.699 641.6 456.539 643.688 453.659 643.688ZM485.132 692.936C473.396 692.936 467.924 684.296 467.924 672.92C467.924 661.616 475.916 652.616 485.636 652.616C492.836 652.616 499.388 657.584 500.252 668.24H474.404V668.528C474.404 678.896 479.228 686.672 488.516 686.672C493.772 686.672 497.66 684.368 500.108 681.848L500.9 682.568C498.524 686.96 493.484 692.936 485.132 692.936ZM483.908 655.208C479.66 655.208 475.484 658.088 474.548 665.432H491.54C491.468 658.808 488.516 655.208 483.908 655.208ZM488.3 636.416H497.228L484.124 648.584H482.972L488.3 636.416ZM-2.304 771V769.632C4.752 768.984 5.616 767.904 5.616 760.488V721.032H3.24C-7.632 721.032 -10.8 722.4 -14.832 734.352H-16.2L-14.112 718.584C-8.712 718.8 -2.592 718.8 1.8 718.8H17.352C21.744 718.8 27.864 718.8 33.264 718.584L35.352 734.352H34.056C29.952 722.4 26.784 721.032 15.912 721.032H13.536V760.488C13.536 767.904 14.4 768.984 21.456 769.632V771H-2.304ZM57.6945 766.392C56.1105 767.904 54.1665 769.488 52.3665 770.568C50.7825 771.576 48.8385 771.936 46.3905 771.936C41.0625 771.936 35.0145 768.12 35.0145 762.432C35.0145 757.824 39.0465 755.016 46.6065 751.416C48.5505 750.48 52.5105 748.68 57.8385 746.376V744.72C57.8385 737.088 55.2465 734.496 50.4225 734.496C43.7265 734.496 42.8625 738.96 43.2225 744.504H35.9505C36.0225 738.528 42.8625 731.688 52.1505 731.688C58.9185 731.688 64.8945 734.28 64.6785 743.928L64.3185 762.576C64.2465 766.608 64.9665 767.256 66.9105 767.256C68.0625 767.256 69.0705 766.608 70.0785 765.816L70.7985 766.536C68.9265 768.912 66.9825 771.72 63.5265 771.72C60.5745 771.72 57.9825 769.992 57.6945 766.392ZM57.4785 764.376L57.6945 748.968C51.7185 751.128 48.6945 752.928 47.4705 753.648C44.3745 755.52 42.8625 757.32 43.0065 760.344C43.2225 763.944 46.1025 767.904 50.5665 767.904C53.2305 767.904 55.5345 766.392 57.4785 764.376ZM73.0148 737.304V736.008L85.8308 731.616L85.9748 738.096C88.5668 735 92.0948 731.616 97.4228 731.616C103.687 731.616 108.295 735.792 108.295 745.296V760.632C108.295 768.048 108.367 769.056 114.055 769.704V771H95.3348V769.704C101.023 769.056 101.095 768.048 101.095 760.632V746.736C101.095 739.896 98.8628 736.656 93.8228 736.656C90.8708 736.656 87.5588 737.664 85.9748 740.04V760.632C85.9748 768.048 86.0468 769.056 91.7348 769.704V771H73.0148V769.704C78.7028 769.056 78.7748 768.048 78.7748 760.632V744.432C78.7748 737.304 78.7748 737.304 73.0148 737.304ZM123.935 786.912C119.975 786.912 117.599 785.04 117.599 782.232C117.599 779.64 119.471 778.2 120.911 778.2C121.415 778.2 122.207 778.344 123.143 779.352L126.671 783.024C127.823 781.152 128.831 779.064 130.775 774.456L132.143 771.216L118.319 738.384C116.879 735 116.159 733.776 113.423 733.56V732.264H130.415V733.56C124.871 733.848 125.159 735.792 126.599 739.248L136.247 762.216L144.239 743.064C146.831 736.8 146.687 734.496 141.503 733.56V732.264H155.327V733.56C151.583 734.28 151.078 735.576 148.991 740.616L133.799 776.328C130.775 783.384 128.975 786.912 123.935 786.912ZM177.718 766.392C176.134 767.904 174.19 769.488 172.39 770.568C170.806 771.576 168.862 771.936 166.414 771.936C161.086 771.936 155.038 768.12 155.038 762.432C155.038 757.824 159.07 755.016 166.63 751.416C168.574 750.48 172.534 748.68 177.862 746.376V744.72C177.862 737.088 175.27 734.496 170.446 734.496C163.75 734.496 162.886 738.96 163.246 744.504H155.974C156.046 738.528 162.886 731.688 172.174 731.688C178.942 731.688 184.918 734.28 184.702 743.928L184.342 762.576C184.27 766.608 184.99 767.256 186.934 767.256C188.086 767.256 189.094 766.608 190.102 765.816L190.822 766.536C188.95 768.912 187.006 771.72 183.55 771.72C180.598 771.72 178.006 769.992 177.718 766.392ZM177.502 764.376L177.718 748.968C171.742 751.128 168.718 752.928 167.494 753.648C164.398 755.52 162.886 757.32 163.03 760.344C163.246 763.944 166.126 767.904 170.59 767.904C173.254 767.904 175.558 766.392 177.502 764.376ZM236.077 766.392C234.493 767.904 232.549 769.488 230.749 770.568C229.165 771.576 227.221 771.936 224.773 771.936C219.445 771.936 213.397 768.12 213.397 762.432C213.397 757.824 217.429 755.016 224.989 751.416C226.933 750.48 230.893 748.68 236.221 746.376V744.72C236.221 737.088 233.629 734.496 228.805 734.496C222.109 734.496 221.245 738.96 221.605 744.504H214.333C214.405 738.528 221.245 731.688 230.533 731.688C237.301 731.688 243.277 734.28 243.061 743.928L242.701 762.576C242.629 766.608 243.349 767.256 245.293 767.256C246.445 767.256 247.453 766.608 248.461 765.816L249.181 766.536C247.309 768.912 245.365 771.72 241.909 771.72C238.957 771.72 236.365 769.992 236.077 766.392ZM235.861 764.376L236.077 748.968C230.101 751.128 227.077 752.928 225.853 753.648C222.757 755.52 221.245 757.32 221.389 760.344C221.605 763.944 224.485 767.904 228.949 767.904C231.613 767.904 233.917 766.392 235.861 764.376ZM251.398 737.304V736.008L264.214 731.616L264.358 738.096C266.95 735 270.478 731.616 275.806 731.616C282.07 731.616 286.678 735.792 286.678 745.296V760.632C286.678 768.048 286.75 769.056 292.438 769.704V771H273.718V769.704C279.406 769.056 279.478 768.048 279.478 760.632V746.736C279.478 739.896 277.246 736.656 272.206 736.656C269.254 736.656 265.942 737.664 264.358 740.04V760.632C264.358 768.048 264.43 769.056 270.118 769.704V771H251.398V769.704C257.086 769.056 257.158 768.048 257.158 760.632V744.432C257.158 737.304 257.158 737.304 251.398 737.304ZM322.865 724.2C322.865 717.504 322.865 717.432 316.385 717.432V716.136L330.209 711.744C330.137 715.56 330.065 720.096 330.065 727.512V759.264C330.065 766.032 330.065 766.248 335.681 766.464V767.688L324.017 771.576L323.081 765.384C320.777 769.128 316.745 771.936 311.561 771.936C301.985 771.936 296.009 763.728 296.009 753C296.009 740.688 304.865 731.616 314.225 731.616C316.745 731.616 320.201 732.192 322.865 734.856V724.2ZM314.153 734.136C306.953 734.136 303.641 741.192 303.641 750.264C303.641 760.344 308.609 767.112 315.593 767.112C318.401 767.112 321.209 765.96 322.865 763.584V739.104C321.281 735.72 317.825 734.136 314.153 734.136ZM368.39 768.408H375.59C388.766 768.408 394.382 768.264 398.486 755.448H399.782L397.694 771.216C392.294 771 386.174 771 381.782 771H358.598V770.208L389.918 721.392H386.318C373.142 721.392 367.526 721.536 363.494 734.352H362.126L364.286 718.584C369.614 718.8 375.734 718.8 380.126 718.8H400.142V719.52L368.39 768.408ZM417.92 738.096C420.512 735 424.04 731.616 429.368 731.616C435.632 731.616 440.456 735.792 440.456 745.296V760.632C440.456 768.048 440.528 769.056 446.216 769.704V771H427.496V769.704C433.184 769.056 433.256 768.048 433.256 760.632V746.736C433.256 739.896 430.808 736.656 425.768 736.656C422.816 736.656 419.504 737.664 417.92 740.04V760.632C417.92 768.048 417.992 769.056 423.68 769.704V771H404.96V769.704C410.648 769.056 410.72 768.048 410.72 760.632V724.56C410.72 717.432 410.72 717.432 404.96 717.432V716.136L418.064 711.744C417.992 715.56 417.92 720.096 417.92 727.512V738.096ZM467.342 771.936C455.606 771.936 450.134 763.296 450.134 751.92C450.134 740.616 458.126 731.616 467.846 731.616C475.046 731.616 481.598 736.584 482.462 747.24H456.614V747.528C456.614 757.896 461.438 765.672 470.726 765.672C475.982 765.672 479.87 763.368 482.318 760.848L483.11 761.568C480.734 765.96 475.694 771.936 467.342 771.936ZM466.118 734.208C461.87 734.208 457.694 737.088 456.758 744.432H473.75C473.678 737.808 470.726 734.208 466.118 734.208ZM487.015 737.304V736.008L499.831 731.616L499.975 738.096C502.567 735 506.095 731.616 511.423 731.616C517.687 731.616 522.295 735.792 522.295 745.296V760.632C522.295 768.048 522.367 769.056 528.055 769.704V771H509.335V769.704C515.023 769.056 515.095 768.048 515.095 760.632V746.736C515.095 739.896 512.863 736.656 507.823 736.656C504.871 736.656 501.559 737.664 499.975 740.04V760.632C499.975 768.048 500.047 769.056 505.735 769.704V771H487.015V769.704C492.703 769.056 492.775 768.048 492.775 760.632V744.432C492.775 737.304 492.775 737.304 487.015 737.304ZM537.935 786.912C533.975 786.912 531.599 785.04 531.599 782.232C531.599 779.64 533.471 778.2 534.911 778.2C535.415 778.2 536.207 778.344 537.143 779.352L540.671 783.024C541.823 781.152 542.831 779.064 544.775 774.456L546.143 771.216L532.319 738.384C530.879 735 530.159 733.776 527.423 733.56V732.264H544.415V733.56C538.871 733.848 539.159 735.792 540.599 739.248L550.247 762.216L558.239 743.064C560.831 736.8 560.687 734.496 555.503 733.56V732.264H569.327V733.56C565.583 734.28 565.078 735.576 562.991 740.616L547.799 776.328C544.775 783.384 542.975 786.912 537.935 786.912ZM591.718 766.392C590.134 767.904 588.19 769.488 586.39 770.568C584.806 771.576 582.862 771.936 580.414 771.936C575.086 771.936 569.038 768.12 569.038 762.432C569.038 757.824 573.07 755.016 580.63 751.416C582.574 750.48 586.534 748.68 591.862 746.376V744.72C591.862 737.088 589.27 734.496 584.446 734.496C577.75 734.496 576.886 738.96 577.246 744.504H569.974C570.046 738.528 576.886 731.688 586.174 731.688C592.942 731.688 598.918 734.28 598.702 743.928L598.342 762.576C598.27 766.608 598.99 767.256 600.934 767.256C602.086 767.256 603.094 766.608 604.102 765.816L604.822 766.536C602.95 768.912 601.006 771.72 597.55 771.72C594.598 771.72 592.006 769.992 591.718 766.392ZM591.502 764.376L591.718 748.968C585.742 751.128 582.718 752.928 581.494 753.648C578.398 755.52 576.886 757.32 577.03 760.344C577.246 763.944 580.126 767.904 584.59 767.904C587.254 767.904 589.558 766.392 591.502 764.376ZM662.605 733.92C662.605 723.696 657.421 721.392 648.493 721.392H642.301V746.448H648.493C657.421 746.448 662.605 744.144 662.605 733.92ZM627.253 771V769.704C633.517 768.84 634.381 768.624 634.381 760.488V729.312C634.381 721.176 633.517 720.96 627.253 720.096V718.8H634.885C640.285 718.8 645.613 718.728 649.069 718.728C661.309 718.728 671.389 722.184 671.389 733.92C671.389 745.656 661.309 749.112 649.069 749.112H642.301V760.56C642.301 767.688 642.445 769.056 650.077 769.632V771H627.253ZM693.078 734.496C686.022 734.496 682.566 739.896 682.566 749.184C682.566 756.312 685.878 769.056 695.166 769.056C702.078 769.056 705.462 763.656 705.462 754.368C705.462 747.168 702.222 734.496 693.078 734.496ZM693.798 731.616C704.022 731.616 713.454 739.824 713.454 751.704C713.454 763.008 704.886 771.936 694.302 771.936C684.15 771.936 674.646 763.656 674.646 751.776C674.646 740.4 683.07 731.616 693.798 731.616ZM735.199 731.616C737.863 731.616 742.111 732.264 744.487 733.344V744.072H742.975C741.607 737.16 738.367 734.496 733.615 734.496C729.943 734.496 726.631 736.44 726.631 739.68C726.631 742.776 729.367 744.504 732.751 746.232L736.855 748.392C742.903 751.488 746.647 754.008 746.647 760.56C746.647 767.76 739.735 771.936 732.607 771.936C729.007 771.936 724.183 770.856 721.087 769.2V755.736H722.527C723.679 764.736 727.279 768.624 733.111 768.624C736.855 768.624 740.815 766.968 740.815 762.288C740.815 759.12 738.223 757.248 734.191 755.232L730.087 753.072C724.759 750.336 721.231 747.744 721.231 741.84C721.231 734.64 729.223 731.616 735.199 731.616ZM765.348 771.936C759.804 771.936 756.492 768.912 756.492 760.92V735.072H750.156V732.264H756.492V725.496L763.692 720.672V732.264H772.98V735.072H763.692V759.624C763.692 765.024 764.916 767.184 768.732 767.184C770.532 767.184 772.62 766.536 774.276 764.952L774.924 765.528C773.124 768.768 770.316 771.936 765.348 771.936ZM794.858 771.936C783.122 771.936 777.65 763.296 777.65 751.92C777.65 740.616 785.642 731.616 795.362 731.616C802.562 731.616 809.114 736.584 809.978 747.24H784.13V747.528C784.13 757.896 788.954 765.672 798.242 765.672C803.498 765.672 807.386 763.368 809.834 760.848L810.626 761.568C808.25 765.96 803.21 771.936 794.858 771.936ZM793.634 734.208C789.386 734.208 785.21 737.088 784.274 744.432H801.266C801.194 737.808 798.242 734.208 793.634 734.208ZM814.53 771V769.704C820.218 769.056 820.29 768.048 820.29 760.632V744.432C820.29 737.304 820.29 737.304 814.53 737.304V736.008L827.346 731.616L827.49 738.888C830.226 735.432 833.394 731.544 837.93 731.544C841.098 731.544 843.114 733.416 843.114 736.08C843.114 738.528 841.53 740.472 839.01 740.472C838.074 740.472 837.57 740.256 836.706 739.536L834.33 737.448C833.826 737.016 833.538 736.8 833.106 736.8C831.738 736.8 829.434 738.384 827.49 740.976V760.632C827.49 768.768 827.85 769.2 836.202 769.632V771H814.53ZM845.116 737.304V736.008L857.932 731.616L858.076 738.096C860.668 735 864.196 731.616 869.524 731.616C875.788 731.616 880.396 735.792 880.396 745.296V760.632C880.396 768.048 880.468 769.056 886.156 769.704V771H867.436V769.704C873.124 769.056 873.196 768.048 873.196 760.632V746.736C873.196 739.896 870.964 736.656 865.924 736.656C862.972 736.656 859.66 737.664 858.076 740.04V760.632C858.076 768.048 858.148 769.056 863.836 769.704V771H845.116V769.704C850.804 769.056 850.876 768.048 850.876 760.632V744.432C850.876 737.304 850.876 737.304 845.116 737.304ZM912.624 766.392C911.04 767.904 909.096 769.488 907.296 770.568C905.712 771.576 903.768 771.936 901.32 771.936C895.992 771.936 889.944 768.12 889.944 762.432C889.944 757.824 893.976 755.016 901.536 751.416C903.48 750.48 907.44 748.68 912.768 746.376V744.72C912.768 737.088 910.176 734.496 905.352 734.496C898.656 734.496 897.792 738.96 898.152 744.504H890.88C890.952 738.528 897.792 731.688 907.08 731.688C913.848 731.688 919.824 734.28 919.608 743.928L919.248 762.576C919.176 766.608 919.896 767.256 921.84 767.256C922.992 767.256 924 766.608 925.008 765.816L925.728 766.536C923.856 768.912 921.912 771.72 918.456 771.72C915.504 771.72 912.912 769.992 912.624 766.392ZM912.408 764.376L912.624 748.968C906.648 751.128 903.624 752.928 902.4 753.648C899.304 755.52 897.792 757.32 897.936 760.344C898.152 763.944 901.032 767.904 905.496 767.904C908.16 767.904 910.464 766.392 912.408 764.376ZM933.704 724.56C933.704 717.432 933.704 717.432 927.944 717.432V716.136L941.048 711.744C940.976 715.56 940.904 720.096 940.904 727.512V760.632C940.904 768.048 940.976 769.056 946.664 769.704V771H927.944V769.704C933.632 769.056 933.704 768.048 933.704 760.632V724.56ZM952.064 771V769.704C957.32 769.416 956.456 767.688 953.864 764.664L941.12 750.048L953.432 739.824C957.32 736.584 959.192 733.776 953.144 733.56V732.264H969.776V733.56C964.952 733.56 962.792 735.576 957.392 739.824L947.672 747.456L963.872 765.528C966.248 768.12 968.192 769.56 971.36 769.704V771H952.064Z" fill="black"/>
</svg>
