<svg width="1682" height="2391" viewBox="0 0 1682 2391" fill="none" xmlns="http://www.w3.org/2000/svg">
<rect width="28368" height="4736" transform="translate(-1616 -425)" fill="#292929"/>
<path d="M0 1328H25549" stroke="white" stroke-width="8"/>
<rect y="1105" width="950.751" height="447" rx="223.5" fill="#46A1B5"/>
<path d="M352.791 1350.5L339.759 1328.18C347.607 1326.67 350.847 1321.41 350.847 1314.36C350.847 1305.93 346.167 1299.96 334.575 1299.96H306.279V1350.5H314.055V1328.68H332.127L344.367 1350.5H352.791ZM333.999 1306.65C340.191 1306.65 342.999 1309.32 342.999 1314.36C342.999 1319.32 340.191 1321.99 333.999 1321.99H314.055V1306.65H333.999ZM383.413 1338.48C381.829 1342.94 378.517 1345.39 373.693 1345.39C368.437 1345.39 363.901 1341.93 363.829 1335.24H389.389C389.389 1334.66 389.461 1334.16 389.461 1333.58C389.461 1323.07 382.261 1316.52 373.045 1316.52C363.757 1316.52 356.485 1323.43 356.485 1333.87C356.485 1344.52 363.757 1351.29 373.405 1351.29C381.541 1351.29 387.877 1346.68 389.965 1339.92L383.413 1338.48ZM372.973 1321.7C377.437 1321.7 381.397 1324.51 381.901 1330.27H363.901C364.549 1324.72 368.581 1321.7 372.973 1321.7ZM422.003 1324H421.931C419.915 1320.12 416.099 1316.88 410.267 1316.88C402.563 1316.88 395.579 1322.71 395.579 1333.87C395.579 1345.1 402.563 1350.93 410.267 1350.93C416.099 1350.93 419.915 1347.69 421.931 1343.8H422.003C422.003 1343.8 421.859 1348.92 421.859 1352.88V1363.03H429.419V1317.31H422.003V1324ZM412.787 1344.96C408.107 1344.96 403.283 1341.86 403.283 1333.87C403.283 1325.95 408.107 1322.85 412.787 1322.85C416.891 1322.85 422.147 1325.88 422.147 1333.87C422.147 1341.93 416.891 1344.96 412.787 1344.96ZM462.896 1335.74C462.896 1340.2 459.368 1344.88 454.112 1344.88C449.72 1344.88 446.984 1342.29 446.984 1337.4V1317.31H439.424V1338.48C439.424 1346.25 444.104 1350.93 451.232 1350.93C457.64 1350.93 461.456 1346.47 462.968 1343.59H463.04V1350.5H470.456V1317.31H462.896V1335.74ZM488.478 1309.89V1298.59H480.918V1309.89H488.478ZM488.478 1350.5V1317.31H480.918V1350.5H488.478ZM495.102 1339.77C496.182 1344.67 500.502 1351.15 512.454 1351.15C522.246 1351.15 528.006 1346.47 528.006 1340.49C528.006 1337.68 527.07 1335.45 524.91 1333.72C522.822 1332 519.582 1330.92 513.174 1330.34C506.838 1329.69 504.462 1328.97 504.462 1326.31C504.462 1324.08 506.91 1322.2 511.95 1322.2C517.278 1322.2 520.23 1324.94 520.95 1328.68L527.646 1327.82C526.566 1322.28 521.814 1316.66 511.878 1316.66C501.726 1316.66 497.406 1321.99 497.406 1326.74C497.406 1329.48 498.414 1331.78 500.43 1333.29C502.374 1334.8 505.182 1335.81 511.806 1336.46C518.358 1337.11 520.878 1337.97 520.878 1340.92C520.878 1343.23 518.574 1345.6 512.526 1345.6C505.83 1345.6 502.59 1342.08 501.798 1338.84L495.102 1339.77ZM543.111 1309.89V1298.59H535.551V1309.89H543.111ZM543.111 1350.5V1317.31H535.551V1350.5H543.111ZM566.799 1344.45C563.775 1344.45 562.551 1343.37 562.551 1340.71V1323.36H571.479V1317.31H562.551V1306H554.991V1317.31H548.511V1323.36H554.991V1341.86C554.991 1348.7 559.023 1350.86 565.215 1350.86C567.807 1350.86 570.255 1350.57 571.839 1350.14V1343.66C570.615 1344.09 568.671 1344.45 566.799 1344.45ZM593.148 1316.52C583.572 1316.52 575.508 1323.21 575.508 1333.87C575.508 1344.6 583.572 1351.29 593.148 1351.29C602.652 1351.29 610.716 1344.6 610.716 1333.87C610.716 1323.21 602.652 1316.52 593.148 1316.52ZM593.148 1345.17C587.964 1345.17 583.212 1341.36 583.212 1333.87C583.212 1326.45 587.964 1322.64 593.148 1322.64C598.26 1322.64 603.012 1326.45 603.012 1333.87C603.012 1341.36 598.26 1345.17 593.148 1345.17ZM614.985 1339.77C616.065 1344.67 620.385 1351.15 632.337 1351.15C642.129 1351.15 647.889 1346.47 647.889 1340.49C647.889 1337.68 646.953 1335.45 644.793 1333.72C642.705 1332 639.465 1330.92 633.057 1330.34C626.721 1329.69 624.345 1328.97 624.345 1326.31C624.345 1324.08 626.793 1322.2 631.833 1322.2C637.161 1322.2 640.113 1324.94 640.833 1328.68L647.529 1327.82C646.449 1322.28 641.697 1316.66 631.761 1316.66C621.609 1316.66 617.289 1321.99 617.289 1326.74C617.289 1329.48 618.297 1331.78 620.313 1333.29C622.257 1334.8 625.065 1335.81 631.689 1336.46C638.241 1337.11 640.761 1337.97 640.761 1340.92C640.761 1343.23 638.457 1345.6 632.409 1345.6C625.713 1345.6 622.473 1342.08 621.681 1338.84L614.985 1339.77Z" fill="white"/>
<rect y="1713" width="288" height="288" rx="144" fill="#226D7D"/>
<path d="M121.392 1828.46H95.904V1879H103.68V1857.04H121.392C133.344 1857.04 137.592 1851.21 137.592 1842.78C137.592 1834.36 133.344 1828.46 121.392 1828.46ZM103.68 1850.27V1835.22H120.96C126.648 1835.22 129.816 1837.17 129.816 1842.78C129.816 1848.33 126.648 1850.27 120.96 1850.27H103.68ZM168.034 1827.52C154.066 1827.52 142.042 1837.1 142.042 1853.73C142.042 1870.36 154.066 1879.94 168.034 1879.94C182.002 1879.94 194.026 1870.36 194.026 1853.73C194.026 1837.1 182.002 1827.52 168.034 1827.52ZM168.034 1873.02C158.026 1873.02 150.034 1866.18 150.034 1853.73C150.034 1841.27 158.026 1834.43 168.034 1834.43C178.042 1834.43 186.034 1841.27 186.034 1853.73C186.034 1866.18 178.042 1873.02 168.034 1873.02Z" fill="white"/>
<rect x="338" y="1713" width="295" height="288" rx="144" fill="#8FDEED"/>
<path d="M469.616 1854.45C469.616 1861.94 469.76 1868.49 469.76 1868.49H469.688L442.76 1828.46H433.904V1879H441.32V1852.94C441.32 1845.38 441.176 1838.54 441.176 1838.54H441.248L468.392 1879H476.96V1828.46H469.616V1854.45ZM510.706 1857.69H530.506C530.362 1865.68 524.098 1873.1 512.722 1873.1C502.93 1873.1 494.29 1866.69 494.29 1853.73C494.29 1840.77 502.93 1834.36 512.434 1834.36C521.506 1834.36 527.986 1839.26 529.858 1847.25L537.202 1845.88C534.61 1834.36 524.746 1827.52 512.434 1827.52C499.114 1827.52 486.37 1836.95 486.37 1853.73C486.37 1870.5 498.898 1879.72 511.642 1879.72C524.818 1879.72 530.074 1872.23 531.442 1869.71H531.514L531.802 1879H537.634V1851.28H510.706V1857.69Z" fill="white"/>
<path d="M1296 1018V458H16478V1018" stroke="white" stroke-width="8" stroke-dasharray="48 48"/>
<circle cx="1296" cy="1062" r="46" stroke="white" stroke-width="8"/>
</svg>
