<svg width="2018" height="2391" viewBox="0 0 2018 2391" fill="none" xmlns="http://www.w3.org/2000/svg">
<rect width="28368" height="4736" transform="translate(-18434 -425)" fill="#292929"/>
<path d="M-16818 1328H8731" stroke="white" stroke-width="8"/>
<rect y="1105" width="1318" height="447" rx="223.5" fill="#FF7A43"/>
<path d="M420.464 1327.03H449.552V1320.26H420.464V1306.72H450.848V1299.96H412.904V1350.5H451.136V1343.73H420.464V1327.03ZM455.548 1339.77C456.628 1344.67 460.948 1351.15 472.9 1351.15C482.692 1351.15 488.452 1346.47 488.452 1340.49C488.452 1337.68 487.516 1335.45 485.356 1333.72C483.268 1332 480.028 1330.92 473.62 1330.34C467.284 1329.69 464.908 1328.97 464.908 1326.31C464.908 1324.08 467.356 1322.2 472.396 1322.2C477.724 1322.2 480.676 1324.94 481.396 1328.68L488.092 1327.82C487.012 1322.28 482.26 1316.66 472.324 1316.66C462.172 1316.66 457.852 1321.99 457.852 1326.74C457.852 1329.48 458.86 1331.78 460.876 1333.29C462.82 1334.8 465.628 1335.81 472.252 1336.46C478.804 1337.11 481.324 1337.97 481.324 1340.92C481.324 1343.23 479.02 1345.6 472.972 1345.6C466.276 1345.6 463.036 1342.08 462.244 1338.84L455.548 1339.77ZM509.245 1344.45C506.221 1344.45 504.997 1343.37 504.997 1340.71V1323.36H513.925V1317.31H504.997V1306H497.437V1317.31H490.957V1323.36H497.437V1341.86C497.437 1348.7 501.469 1350.86 507.661 1350.86C510.253 1350.86 512.701 1350.57 514.285 1350.14V1343.66C513.061 1344.09 511.117 1344.45 509.245 1344.45ZM528.447 1309.89V1298.59H520.887V1309.89H528.447ZM528.447 1350.5V1317.31H520.887V1350.5H528.447ZM581.079 1316.88C574.527 1316.88 570.639 1321.2 569.055 1324.72H568.983C567.471 1319.68 563.439 1316.88 557.967 1316.88C551.559 1316.88 547.887 1321.34 546.375 1324.22H546.303V1317.31H538.887V1350.5H546.447V1332.07C546.447 1327.6 549.903 1322.92 555.159 1322.92C559.407 1322.92 562.071 1325.52 562.071 1330.41V1350.5H569.631V1332.07C569.631 1327.6 573.015 1322.92 578.343 1322.92C582.519 1322.92 585.255 1325.52 585.255 1330.41V1350.5H592.815V1329.26C592.815 1321.48 588.135 1316.88 581.079 1316.88ZM631.387 1327.46C631.387 1320.76 625.843 1316.52 616.987 1316.52C606.475 1316.52 601.867 1322.28 600.715 1328.54L607.267 1329.55C607.987 1325.66 610.219 1322.28 616.987 1322.28C622.027 1322.28 624.187 1324.36 624.187 1326.67C624.187 1329.91 619.867 1330.12 613.099 1331.28C604.387 1332.72 599.923 1335.6 599.923 1341.72C599.923 1346.9 603.955 1351.29 612.019 1351.29C620.083 1351.29 623.755 1346.61 624.763 1344.31H624.835C624.835 1346.61 625.195 1348.84 625.627 1350.5H632.611C631.963 1348.7 631.387 1345.1 631.387 1341.07V1327.46ZM613.603 1345.96C608.923 1345.96 607.123 1343.73 607.123 1341.21C607.123 1338.48 608.851 1336.82 615.403 1335.74C621.019 1334.8 623.251 1334.3 624.187 1333.51V1335.74C624.187 1342.44 619.219 1345.96 613.603 1345.96ZM656.59 1345.17C651.838 1345.17 647.158 1341.72 647.158 1333.87C647.158 1326.09 651.838 1322.64 656.59 1322.64C660.982 1322.64 664.654 1325.3 665.59 1331.13L672.79 1329.98C671.494 1321.92 665.518 1316.52 656.59 1316.52C647.374 1316.52 639.454 1323.21 639.454 1333.87C639.454 1344.6 647.374 1351.29 656.59 1351.29C665.518 1351.29 671.494 1345.89 672.79 1337.83L665.59 1336.68C664.654 1342.51 660.982 1345.17 656.59 1345.17ZM688.127 1309.89V1298.59H680.567V1309.89H688.127ZM688.127 1350.5V1317.31H680.567V1350.5H688.127ZM715.775 1299.96L710.591 1312.41H717.503L724.343 1299.96H715.775ZM714.047 1316.52C704.471 1316.52 696.407 1323.21 696.407 1333.87C696.407 1344.6 704.471 1351.29 714.047 1351.29C723.551 1351.29 731.615 1344.6 731.615 1333.87C731.615 1323.21 723.551 1316.52 714.047 1316.52ZM714.047 1345.17C708.863 1345.17 704.111 1341.36 704.111 1333.87C704.111 1326.45 708.863 1322.64 714.047 1322.64C719.159 1322.64 723.911 1326.45 723.911 1333.87C723.911 1341.36 719.159 1345.17 714.047 1345.17ZM759.28 1316.88C752.656 1316.88 748.84 1321.34 747.328 1324.22H747.256V1317.31H739.84V1350.5H747.4V1332.07C747.4 1327.6 750.928 1322.92 756.544 1322.92C760.864 1322.92 763.6 1325.52 763.6 1330.41V1350.5H771.16V1329.26C771.16 1321.48 766.552 1316.88 759.28 1316.88ZM797.678 1317.31H791.27V1323.36H797.678V1350.5H805.238V1323.36H811.646V1317.31H805.094V1308.24C805.094 1304.49 806.894 1303.48 810.062 1303.48C811.574 1303.48 812.942 1303.63 813.878 1303.92V1297.44C812.942 1297.22 811.358 1297.08 809.486 1297.08C802.862 1297.08 797.678 1299.6 797.678 1308.09V1317.31ZM817.622 1309.89H825.182V1298.59H817.622V1309.89ZM825.182 1350.5V1317.31H817.622V1350.5H825.182ZM855.046 1316.88C848.422 1316.88 844.606 1321.34 843.094 1324.22H843.022V1317.31H835.606V1350.5H843.166V1332.07C843.166 1327.6 846.694 1322.92 852.31 1322.92C856.63 1322.92 859.366 1325.52 859.366 1330.41V1350.5H866.926V1329.26C866.926 1321.48 862.318 1316.88 855.046 1316.88ZM905.606 1327.46C905.606 1320.76 900.062 1316.52 891.206 1316.52C880.694 1316.52 876.086 1322.28 874.934 1328.54L881.486 1329.55C882.206 1325.66 884.438 1322.28 891.206 1322.28C896.246 1322.28 898.406 1324.36 898.406 1326.67C898.406 1329.91 894.086 1330.12 887.318 1331.28C878.606 1332.72 874.142 1335.6 874.142 1341.72C874.142 1346.9 878.174 1351.29 886.238 1351.29C894.302 1351.29 897.974 1346.61 898.982 1344.31H899.054C899.054 1346.61 899.414 1348.84 899.846 1350.5H906.83C906.182 1348.7 905.606 1345.1 905.606 1341.07V1327.46ZM887.822 1345.96C883.142 1345.96 881.342 1343.73 881.342 1341.21C881.342 1338.48 883.07 1336.82 889.622 1335.74C895.238 1334.8 897.47 1334.3 898.406 1333.51V1335.74C898.406 1342.44 893.438 1345.96 887.822 1345.96Z" fill="white"/>
<rect y="1713" width="288" height="288" rx="144" fill="#226D7D"/>
<path d="M121.392 1828.46H95.904V1879H103.68V1857.04H121.392C133.344 1857.04 137.592 1851.21 137.592 1842.78C137.592 1834.36 133.344 1828.46 121.392 1828.46ZM103.68 1850.27V1835.22H120.96C126.648 1835.22 129.816 1837.17 129.816 1842.78C129.816 1848.33 126.648 1850.27 120.96 1850.27H103.68ZM168.034 1827.52C154.066 1827.52 142.042 1837.1 142.042 1853.73C142.042 1870.36 154.066 1879.94 168.034 1879.94C182.002 1879.94 194.026 1870.36 194.026 1853.73C194.026 1837.1 182.002 1827.52 168.034 1827.52ZM168.034 1873.02C158.026 1873.02 150.034 1866.18 150.034 1853.73C150.034 1841.27 158.026 1834.43 168.034 1834.43C178.042 1834.43 186.034 1841.27 186.034 1853.73C186.034 1866.18 178.042 1873.02 168.034 1873.02Z" fill="white"/>
<rect x="338" y="1713" width="282" height="288" rx="141" fill="#515151"/>
<path d="M441.464 1855.53H470.552V1848.76H441.464V1835.22H471.848V1828.46H433.904V1879H472.136V1872.23H441.464V1855.53ZM481.084 1828.46V1879H500.02C519.748 1879 526.084 1866.62 526.084 1853.73C526.084 1840.84 519.748 1828.46 500.02 1828.46H481.084ZM488.86 1872.3V1835.15H500.308C512.98 1835.15 518.164 1842.5 518.164 1853.73C518.164 1864.96 512.98 1872.3 500.308 1872.3H488.86Z" fill="white"/>
<rect x="683" y="1713" width="285" height="288" rx="142.5" fill="#CB312E"/>
<path d="M825.416 1879L812.384 1856.68C820.232 1855.17 823.472 1849.91 823.472 1842.86C823.472 1834.43 818.792 1828.46 807.2 1828.46H778.904V1879H786.68V1857.18H804.752L816.992 1879H825.416ZM806.624 1835.15C812.816 1835.15 815.624 1837.82 815.624 1842.86C815.624 1847.82 812.816 1850.49 806.624 1850.49H786.68V1835.15H806.624ZM859.095 1828.46H833.607V1879H841.383V1857.04H859.095C871.047 1857.04 875.295 1851.21 875.295 1842.78C875.295 1834.36 871.047 1828.46 859.095 1828.46ZM841.383 1850.27V1835.22H858.663C864.351 1835.22 867.519 1837.17 867.519 1842.78C867.519 1848.33 864.351 1850.27 858.663 1850.27H841.383Z" fill="white"/>
</svg>
