<svg width="2018" height="2391" viewBox="0 0 2018 2391" fill="none" xmlns="http://www.w3.org/2000/svg">
<rect width="28368" height="4736" transform="translate(-20452 -425)" fill="#292929"/>
<path d="M-18836 1328H6713" stroke="white" stroke-width="8"/>
<rect y="1105" width="1318" height="447" rx="223.5" fill="#FC6028"/>
<path d="M495.904 1299.96V1350.5H514.84C534.568 1350.5 540.904 1338.12 540.904 1325.23C540.904 1312.34 534.568 1299.96 514.84 1299.96H495.904ZM503.68 1343.8V1306.65H515.128C527.8 1306.65 532.984 1314 532.984 1325.23C532.984 1336.46 527.8 1343.8 515.128 1343.8H503.68ZM574.304 1338.48C572.72 1342.94 569.408 1345.39 564.584 1345.39C559.328 1345.39 554.792 1341.93 554.72 1335.24H580.28C580.28 1334.66 580.352 1334.16 580.352 1333.58C580.352 1323.07 573.152 1316.52 563.936 1316.52C554.648 1316.52 547.376 1323.43 547.376 1333.87C547.376 1344.52 554.648 1351.29 564.296 1351.29C572.432 1351.29 578.768 1346.68 580.856 1339.92L574.304 1338.48ZM563.864 1321.7C568.328 1321.7 572.288 1324.51 572.792 1330.27H554.792C555.44 1324.72 559.472 1321.7 563.864 1321.7ZM584.673 1339.77C585.753 1344.67 590.073 1351.15 602.025 1351.15C611.817 1351.15 617.577 1346.47 617.577 1340.49C617.577 1337.68 616.641 1335.45 614.481 1333.72C612.393 1332 609.153 1330.92 602.745 1330.34C596.409 1329.69 594.033 1328.97 594.033 1326.31C594.033 1324.08 596.481 1322.2 601.521 1322.2C606.849 1322.2 609.801 1324.94 610.521 1328.68L617.217 1327.82C616.137 1322.28 611.385 1316.66 601.449 1316.66C591.297 1316.66 586.977 1321.99 586.977 1326.74C586.977 1329.48 587.985 1331.78 590.001 1333.29C591.945 1334.8 594.753 1335.81 601.377 1336.46C607.929 1337.11 610.449 1337.97 610.449 1340.92C610.449 1343.23 608.145 1345.6 602.097 1345.6C595.401 1345.6 592.161 1342.08 591.369 1338.84L584.673 1339.77ZM653.778 1327.46C653.778 1320.76 648.234 1316.52 639.378 1316.52C628.866 1316.52 624.258 1322.28 623.106 1328.54L629.658 1329.55C630.378 1325.66 632.61 1322.28 639.378 1322.28C644.418 1322.28 646.578 1324.36 646.578 1326.67C646.578 1329.91 642.258 1330.12 635.49 1331.28C626.778 1332.72 622.313 1335.6 622.313 1341.72C622.313 1346.9 626.346 1351.29 634.41 1351.29C642.474 1351.29 646.146 1346.61 647.154 1344.31H647.226C647.226 1346.61 647.586 1348.84 648.018 1350.5H655.002C654.354 1348.7 653.778 1345.1 653.778 1341.07V1327.46ZM635.994 1345.96C631.314 1345.96 629.514 1343.73 629.514 1341.21C629.514 1338.48 631.242 1336.82 637.794 1335.74C643.41 1334.8 645.642 1334.3 646.578 1333.51V1335.74C646.578 1342.44 641.61 1345.96 635.994 1345.96ZM682.076 1317.16C675.596 1317.16 672.572 1321.34 671.492 1324.08H671.42V1317.31H664.004V1350.5H671.564V1332.72C671.564 1326.81 675.668 1324 681.068 1324C682.076 1324 683.084 1324.15 683.876 1324.29V1317.24C683.084 1317.16 682.436 1317.16 682.076 1317.16ZM707.389 1317.16C700.909 1317.16 697.885 1321.34 696.805 1324.08H696.733V1317.31H689.317V1350.5H696.877V1332.72C696.877 1326.81 700.981 1324 706.381 1324C707.389 1324 708.397 1324.15 709.189 1324.29V1317.24C708.397 1317.16 707.749 1317.16 707.389 1317.16ZM729.617 1316.52C720.041 1316.52 711.977 1323.21 711.977 1333.87C711.977 1344.6 720.041 1351.29 729.617 1351.29C739.121 1351.29 747.185 1344.6 747.185 1333.87C747.185 1323.21 739.121 1316.52 729.617 1316.52ZM729.617 1345.17C724.433 1345.17 719.681 1341.36 719.681 1333.87C719.681 1326.45 724.433 1322.64 729.617 1322.64C734.729 1322.64 739.481 1326.45 739.481 1333.87C739.481 1341.36 734.729 1345.17 729.617 1345.17ZM755.411 1350.5H762.971V1297.36H755.411V1350.5ZM773.411 1350.5H780.971V1297.36H773.411V1350.5ZM806.891 1316.52C797.315 1316.52 789.251 1323.21 789.251 1333.87C789.251 1344.6 797.315 1351.29 806.891 1351.29C816.395 1351.29 824.459 1344.6 824.459 1333.87C824.459 1323.21 816.395 1316.52 806.891 1316.52ZM806.891 1345.17C801.707 1345.17 796.955 1341.36 796.955 1333.87C796.955 1326.45 801.707 1322.64 806.891 1322.64C812.003 1322.64 816.755 1326.45 816.755 1333.87C816.755 1341.36 812.003 1345.17 806.891 1345.17Z" fill="white"/>
<rect y="1713" width="282" height="288" rx="141" fill="#515151"/>
<path d="M103.464 1855.53H132.552V1848.76H103.464V1835.22H133.848V1828.46H95.904V1879H134.136V1872.23H103.464V1855.53ZM143.084 1828.46V1879H162.02C181.748 1879 188.084 1866.62 188.084 1853.73C188.084 1840.84 181.748 1828.46 162.02 1828.46H143.084ZM150.86 1872.3V1835.15H162.308C174.98 1835.15 180.164 1842.5 180.164 1853.73C180.164 1864.96 174.98 1872.3 162.308 1872.3H150.86Z" fill="white"/>
</svg>
