<svg width="2018" height="2391" viewBox="0 0 2018 2391" fill="none" xmlns="http://www.w3.org/2000/svg">
<rect width="28368" height="4736" transform="translate(-22470 -425)" fill="#292929"/>
<path d="M-20854 1328H4695" stroke="white" stroke-width="8"/>
<rect y="1105" width="1318" height="447" rx="223.5" fill="#FF642A"/>
<path d="M399.916 1350.5L386.884 1328.18C394.732 1326.67 397.972 1321.41 397.972 1314.36C397.972 1305.93 393.292 1299.96 381.7 1299.96H353.404V1350.5H361.18V1328.68H379.252L391.492 1350.5H399.916ZM381.124 1306.65C387.316 1306.65 390.124 1309.32 390.124 1314.36C390.124 1319.32 387.316 1321.99 381.124 1321.99H361.18V1306.65H381.124ZM430.538 1338.48C428.954 1342.94 425.642 1345.39 420.818 1345.39C415.562 1345.39 411.026 1341.93 410.954 1335.24H436.514C436.514 1334.66 436.586 1334.16 436.586 1333.58C436.586 1323.07 429.386 1316.52 420.17 1316.52C410.882 1316.52 403.61 1323.43 403.61 1333.87C403.61 1344.52 410.882 1351.29 420.53 1351.29C428.666 1351.29 435.002 1346.68 437.09 1339.92L430.538 1338.48ZM420.098 1321.7C424.562 1321.7 428.522 1324.51 429.026 1330.27H411.026C411.674 1324.72 415.706 1321.7 420.098 1321.7ZM459.217 1335.96C457.921 1339.27 456.625 1342.8 456.625 1342.8H456.553C456.553 1342.8 455.329 1339.27 454.033 1335.96L446.905 1317.31H439.057L452.809 1350.5H460.369L474.049 1317.31H466.417L459.217 1335.96ZM487.299 1309.89V1298.59H479.739V1309.89H487.299ZM487.299 1350.5V1317.31H479.739V1350.5H487.299ZM493.923 1339.77C495.003 1344.67 499.323 1351.15 511.275 1351.15C521.067 1351.15 526.827 1346.47 526.827 1340.49C526.827 1337.68 525.891 1335.45 523.731 1333.72C521.643 1332 518.403 1330.92 511.995 1330.34C505.659 1329.69 503.283 1328.97 503.283 1326.31C503.283 1324.08 505.731 1322.2 510.771 1322.2C516.099 1322.2 519.051 1324.94 519.771 1328.68L526.467 1327.82C525.387 1322.28 520.635 1316.66 510.699 1316.66C500.547 1316.66 496.227 1321.99 496.227 1326.74C496.227 1329.48 497.235 1331.78 499.251 1333.29C501.195 1334.8 504.003 1335.81 510.627 1336.46C517.179 1337.11 519.699 1337.97 519.699 1340.92C519.699 1343.23 517.395 1345.6 511.347 1345.6C504.651 1345.6 501.411 1342.08 500.619 1338.84L493.923 1339.77ZM541.932 1309.89V1298.59H534.372V1309.89H541.932ZM541.932 1350.5V1317.31H534.372V1350.5H541.932ZM569.58 1299.96L564.396 1312.41H571.308L578.148 1299.96H569.58ZM567.852 1316.52C558.276 1316.52 550.212 1323.21 550.212 1333.87C550.212 1344.6 558.276 1351.29 567.852 1351.29C577.356 1351.29 585.42 1344.6 585.42 1333.87C585.42 1323.21 577.356 1316.52 567.852 1316.52ZM567.852 1345.17C562.668 1345.17 557.916 1341.36 557.916 1333.87C557.916 1326.45 562.668 1322.64 567.852 1322.64C572.964 1322.64 577.716 1326.45 577.716 1333.87C577.716 1341.36 572.964 1345.17 567.852 1345.17ZM613.085 1316.88C606.461 1316.88 602.645 1321.34 601.133 1324.22H601.061V1317.31H593.645V1350.5H601.205V1332.07C601.205 1327.6 604.733 1322.92 610.349 1322.92C614.669 1322.92 617.405 1325.52 617.405 1330.41V1350.5H624.965V1329.26C624.965 1321.48 620.357 1316.88 613.085 1316.88ZM673.874 1314.93C673.874 1318.82 674.018 1324 674.018 1324H673.946C671.93 1320.12 668.114 1316.88 662.282 1316.88C654.578 1316.88 647.594 1322.71 647.594 1333.87C647.594 1345.1 654.578 1350.93 662.282 1350.93C668.114 1350.93 671.93 1347.69 673.946 1343.8H674.018V1350.5H681.434V1297.36H673.874V1314.93ZM664.802 1344.96C660.122 1344.96 655.298 1341.86 655.298 1333.87C655.298 1325.95 660.122 1322.85 664.802 1322.85C668.906 1322.85 674.162 1325.88 674.162 1333.87C674.162 1341.93 668.906 1344.96 664.802 1344.96ZM716.64 1338.48C715.056 1342.94 711.744 1345.39 706.92 1345.39C701.664 1345.39 697.128 1341.93 697.056 1335.24H722.616C722.616 1334.66 722.688 1334.16 722.688 1333.58C722.688 1323.07 715.488 1316.52 706.272 1316.52C696.984 1316.52 689.712 1323.43 689.712 1333.87C689.712 1344.52 696.984 1351.29 706.632 1351.29C714.768 1351.29 721.104 1346.68 723.192 1339.92L716.64 1338.48ZM706.2 1321.7C710.664 1321.7 714.624 1324.51 715.128 1330.27H697.128C697.776 1324.72 701.808 1321.7 706.2 1321.7ZM727.009 1339.77C728.089 1344.67 732.409 1351.15 744.361 1351.15C754.153 1351.15 759.913 1346.47 759.913 1340.49C759.913 1337.68 758.977 1335.45 756.817 1333.72C754.729 1332 751.489 1330.92 745.081 1330.34C738.745 1329.69 736.369 1328.97 736.369 1326.31C736.369 1324.08 738.817 1322.2 743.857 1322.2C749.185 1322.2 752.137 1324.94 752.857 1328.68L759.553 1327.82C758.473 1322.28 753.721 1316.66 743.785 1316.66C733.633 1316.66 729.313 1321.99 729.313 1326.74C729.313 1329.48 730.321 1331.78 732.337 1333.29C734.281 1334.8 737.089 1335.81 743.713 1336.46C750.265 1337.11 752.785 1337.97 752.785 1340.92C752.785 1343.23 750.481 1345.6 744.433 1345.6C737.737 1345.6 734.497 1342.08 733.705 1338.84L727.009 1339.77ZM796.113 1327.46C796.113 1320.76 790.569 1316.52 781.713 1316.52C771.201 1316.52 766.593 1322.28 765.441 1328.54L771.993 1329.55C772.713 1325.66 774.945 1322.28 781.713 1322.28C786.753 1322.28 788.913 1324.36 788.913 1326.67C788.913 1329.91 784.593 1330.12 777.825 1331.28C769.113 1332.72 764.649 1335.6 764.649 1341.72C764.649 1346.9 768.681 1351.29 776.745 1351.29C784.809 1351.29 788.481 1346.61 789.489 1344.31H789.561C789.561 1346.61 789.921 1348.84 790.353 1350.5H797.337C796.689 1348.7 796.113 1345.1 796.113 1341.07V1327.46ZM778.329 1345.96C773.649 1345.96 771.849 1343.73 771.849 1341.21C771.849 1338.48 773.577 1336.82 780.129 1335.74C785.745 1334.8 787.977 1334.3 788.913 1333.51V1335.74C788.913 1342.44 783.945 1345.96 778.329 1345.96ZM824.412 1317.16C817.932 1317.16 814.908 1321.34 813.828 1324.08H813.756V1317.31H806.34V1350.5H813.9V1332.72C813.9 1326.81 818.004 1324 823.404 1324C824.412 1324 825.42 1324.15 826.212 1324.29V1317.24C825.42 1317.16 824.772 1317.16 824.412 1317.16ZM849.725 1317.16C843.245 1317.16 840.221 1321.34 839.141 1324.08H839.069V1317.31H831.653V1350.5H839.213V1332.72C839.213 1326.81 843.317 1324 848.717 1324C849.725 1324 850.733 1324.15 851.525 1324.29V1317.24C850.733 1317.16 850.085 1317.16 849.725 1317.16ZM871.953 1316.52C862.377 1316.52 854.313 1323.21 854.313 1333.87C854.313 1344.6 862.377 1351.29 871.953 1351.29C881.457 1351.29 889.521 1344.6 889.521 1333.87C889.521 1323.21 881.457 1316.52 871.953 1316.52ZM871.953 1345.17C866.769 1345.17 862.017 1341.36 862.017 1333.87C862.017 1326.45 866.769 1322.64 871.953 1322.64C877.065 1322.64 881.817 1326.45 881.817 1333.87C881.817 1341.36 877.065 1345.17 871.953 1345.17ZM897.747 1350.5H905.307V1297.36H897.747V1350.5ZM915.747 1350.5H923.307V1297.36H915.747V1350.5ZM949.227 1316.52C939.651 1316.52 931.587 1323.21 931.587 1333.87C931.587 1344.6 939.651 1351.29 949.227 1351.29C958.731 1351.29 966.795 1344.6 966.795 1333.87C966.795 1323.21 958.731 1316.52 949.227 1316.52ZM949.227 1345.17C944.043 1345.17 939.291 1341.36 939.291 1333.87C939.291 1326.45 944.043 1322.64 949.227 1322.64C954.339 1322.64 959.091 1326.45 959.091 1333.87C959.091 1341.36 954.339 1345.17 949.227 1345.17Z" fill="white"/>
<rect y="1713" width="290" height="288" rx="144" fill="#FC6028"/>
<path d="M136.728 1873.96C142.056 1869.42 145.44 1862.58 145.44 1853.73C145.44 1837.1 133.416 1827.52 119.448 1827.52C105.48 1827.52 93.456 1837.1 93.456 1853.73C93.456 1870.36 105.48 1879.94 119.448 1879.94C123.408 1879.94 127.224 1879.14 130.68 1877.7L138.744 1887.71H147.816L136.728 1873.96ZM101.448 1853.73C101.448 1841.27 109.44 1834.43 119.448 1834.43C129.456 1834.43 137.448 1841.27 137.448 1853.73C137.448 1866.18 129.456 1873.02 119.448 1873.02C109.44 1873.02 101.448 1866.18 101.448 1853.73ZM198.869 1879L177.413 1828.46H168.773L147.317 1879H155.453L160.637 1866.26H185.189L190.373 1879H198.869ZM168.413 1847.18C170.645 1841.63 172.805 1835.8 172.805 1835.8H172.949C172.949 1835.8 175.181 1841.63 177.413 1847.18L182.597 1859.99H163.229L168.413 1847.18Z" fill="white"/>
<rect x="340" y="1713" width="287" height="288" rx="143.5" fill="#6459AA"/>
<path d="M435.904 1828.46V1879H454.84C474.568 1879 480.904 1866.62 480.904 1853.73C480.904 1840.84 474.568 1828.46 454.84 1828.46H435.904ZM443.68 1872.3V1835.15H455.128C467.8 1835.15 472.984 1842.5 472.984 1853.73C472.984 1864.96 467.8 1872.3 455.128 1872.3H443.68ZM485.72 1862.66C487.376 1871.51 495.152 1879.94 510.56 1879.94C525.176 1879.94 532.952 1872.59 532.952 1864.53C532.952 1860.21 531.584 1856.9 528.632 1854.3C525.608 1851.71 521.72 1850.06 511.496 1848.83C501.2 1847.61 497.024 1846.02 497.024 1841.27C497.024 1837.74 500.264 1833.86 509.552 1833.86C518.336 1833.86 523.592 1838.46 524.672 1844.15L531.8 1842.71C530.144 1833.71 521.792 1827.52 509.984 1827.52C495.368 1827.52 489.464 1835.01 489.464 1841.56C489.464 1845.02 490.472 1848.04 493.136 1850.49C495.8 1852.86 499.688 1854.66 510.344 1855.89C520.928 1857.11 525.32 1859.2 525.32 1864.82C525.32 1869.28 521.36 1873.53 511.352 1873.53C499.4 1873.53 494.216 1866.98 492.992 1861.22L485.72 1862.66Z" fill="white"/>
</svg>
