<svg width="2018" height="2391" viewBox="0 0 2018 2391" fill="none" xmlns="http://www.w3.org/2000/svg">
<rect width="28368" height="4736" transform="translate(-24488 -425)" fill="#292929"/>
<path d="M-22872 1328H2677" stroke="white" stroke-width="8"/>
<rect y="1105" width="1318" height="447" rx="223.5" fill="#FF3E1E"/>
<path d="M593.044 1334.08C593.044 1343.16 598.3 1351.44 614.356 1351.44C630.484 1351.44 635.74 1343.16 635.74 1334.08V1299.96H627.964V1333.51C627.964 1340.2 624.292 1344.74 614.356 1344.74C604.42 1344.74 600.82 1340.2 600.82 1333.51V1299.96H593.044V1334.08ZM692.009 1350.5L670.553 1299.96H661.913L640.457 1350.5H648.593L653.777 1337.76H678.329L683.513 1350.5H692.009ZM661.553 1318.68C663.785 1313.13 665.945 1307.3 665.945 1307.3H666.089C666.089 1307.3 668.321 1313.13 670.553 1318.68L675.737 1331.49H656.369L661.553 1318.68ZM686.085 1299.96V1306.72H703.869V1350.5H711.645V1306.72H729.357V1299.96H686.085Z" fill="white"/>
<rect y="1713" width="288" height="288" rx="144" fill="#226D7D"/>
<path d="M121.392 1828.46H95.904V1879H103.68V1857.04H121.392C133.344 1857.04 137.592 1851.21 137.592 1842.78C137.592 1834.36 133.344 1828.46 121.392 1828.46ZM103.68 1850.27V1835.22H120.96C126.648 1835.22 129.816 1837.17 129.816 1842.78C129.816 1848.33 126.648 1850.27 120.96 1850.27H103.68ZM168.034 1827.52C154.066 1827.52 142.042 1837.1 142.042 1853.73C142.042 1870.36 154.066 1879.94 168.034 1879.94C182.002 1879.94 194.026 1870.36 194.026 1853.73C194.026 1837.1 182.002 1827.52 168.034 1827.52ZM168.034 1873.02C158.026 1873.02 150.034 1866.18 150.034 1853.73C150.034 1841.27 158.026 1834.43 168.034 1834.43C178.042 1834.43 186.034 1841.27 186.034 1853.73C186.034 1866.18 178.042 1873.02 168.034 1873.02Z" fill="white"/>
<rect x="338" y="1713" width="295" height="288" rx="144" fill="#8FDEED"/>
<path d="M469.616 1854.45C469.616 1861.94 469.76 1868.49 469.76 1868.49H469.688L442.76 1828.46H433.904V1879H441.32V1852.94C441.32 1845.38 441.176 1838.54 441.176 1838.54H441.248L468.392 1879H476.96V1828.46H469.616V1854.45ZM510.706 1857.69H530.506C530.362 1865.68 524.098 1873.1 512.722 1873.1C502.93 1873.1 494.29 1866.69 494.29 1853.73C494.29 1840.77 502.93 1834.36 512.434 1834.36C521.506 1834.36 527.986 1839.26 529.858 1847.25L537.202 1845.88C534.61 1834.36 524.746 1827.52 512.434 1827.52C499.114 1827.52 486.37 1836.95 486.37 1853.73C486.37 1870.5 498.898 1879.72 511.642 1879.72C524.818 1879.72 530.074 1872.23 531.442 1869.71H531.514L531.802 1879H537.634V1851.28H510.706V1857.69Z" fill="white"/>
</svg>
