<svg width="1646" height="2391" viewBox="0 0 1646 2391" fill="none" xmlns="http://www.w3.org/2000/svg">
<rect width="28368" height="4736" transform="translate(-26506 -425)" fill="#292929"/>
<path d="M-24890 1328H659.001" stroke="white" stroke-width="8"/>
<rect y="1105" width="1318" height="447" rx="223.5" fill="#9A2118"/>
<path d="M502.392 1299.96H476.904V1350.5H484.68V1328.54H502.392C514.344 1328.54 518.592 1322.71 518.592 1314.28C518.592 1305.86 514.344 1299.96 502.392 1299.96ZM484.68 1321.77V1306.72H501.96C507.648 1306.72 510.816 1308.67 510.816 1314.28C510.816 1319.83 507.648 1321.77 501.96 1321.77H484.68ZM542.842 1317.16C536.362 1317.16 533.338 1321.34 532.258 1324.08H532.186V1317.31H524.77V1350.5H532.33V1332.72C532.33 1326.81 536.434 1324 541.834 1324C542.842 1324 543.85 1324.15 544.642 1324.29V1317.24C543.85 1317.16 543.202 1317.16 542.842 1317.16ZM565.07 1316.52C555.494 1316.52 547.43 1323.21 547.43 1333.87C547.43 1344.6 555.494 1351.29 565.07 1351.29C574.574 1351.29 582.638 1344.6 582.638 1333.87C582.638 1323.21 574.574 1316.52 565.07 1316.52ZM565.07 1345.17C559.886 1345.17 555.134 1341.36 555.134 1333.87C555.134 1326.45 559.886 1322.64 565.07 1322.64C570.182 1322.64 574.934 1326.45 574.934 1333.87C574.934 1341.36 570.182 1345.17 565.07 1345.17ZM614.984 1314.93C614.984 1318.82 615.128 1324 615.128 1324H615.056C613.04 1320.12 609.224 1316.88 603.392 1316.88C595.688 1316.88 588.704 1322.71 588.704 1333.87C588.704 1345.1 595.688 1350.93 603.392 1350.93C609.224 1350.93 613.04 1347.69 615.056 1343.8H615.128V1350.5H622.544V1297.36H614.984V1314.93ZM605.912 1344.96C601.232 1344.96 596.408 1341.86 596.408 1333.87C596.408 1325.95 601.232 1322.85 605.912 1322.85C610.016 1322.85 615.272 1325.88 615.272 1333.87C615.272 1341.93 610.016 1344.96 605.912 1344.96ZM656.021 1335.74C656.021 1340.2 652.493 1344.88 647.237 1344.88C642.845 1344.88 640.109 1342.29 640.109 1337.4V1317.31H632.549V1338.48C632.549 1346.25 637.229 1350.93 644.357 1350.93C650.765 1350.93 654.581 1346.47 656.093 1343.59H656.165V1350.5H663.581V1317.31H656.021V1335.74ZM689.019 1345.17C684.267 1345.17 679.587 1341.72 679.587 1333.87C679.587 1326.09 684.267 1322.64 689.019 1322.64C693.411 1322.64 697.083 1325.3 698.019 1331.13L705.219 1329.98C703.923 1321.92 697.947 1316.52 689.019 1316.52C679.803 1316.52 671.883 1323.21 671.883 1333.87C671.883 1344.6 679.803 1351.29 689.019 1351.29C697.947 1351.29 703.923 1345.89 705.219 1337.83L698.019 1336.68C697.083 1342.51 693.411 1345.17 689.019 1345.17ZM726.988 1345.17C722.236 1345.17 717.556 1341.72 717.556 1333.87C717.556 1326.09 722.236 1322.64 726.988 1322.64C731.38 1322.64 735.052 1325.3 735.988 1331.13L743.188 1329.98C741.892 1321.92 735.916 1316.52 726.988 1316.52C717.772 1316.52 709.852 1323.21 709.852 1333.87C709.852 1344.6 717.772 1351.29 726.988 1351.29C735.916 1351.29 741.892 1345.89 743.188 1337.83L735.988 1336.68C735.052 1342.51 731.38 1345.17 726.988 1345.17ZM758.525 1309.89V1298.59H750.965V1309.89H758.525ZM758.525 1350.5V1317.31H750.965V1350.5H758.525ZM786.173 1299.96L780.989 1312.41H787.901L794.741 1299.96H786.173ZM784.445 1316.52C774.869 1316.52 766.805 1323.21 766.805 1333.87C766.805 1344.6 774.869 1351.29 784.445 1351.29C793.949 1351.29 802.013 1344.6 802.013 1333.87C802.013 1323.21 793.949 1316.52 784.445 1316.52ZM784.445 1345.17C779.261 1345.17 774.509 1341.36 774.509 1333.87C774.509 1326.45 779.261 1322.64 784.445 1322.64C789.557 1322.64 794.309 1326.45 794.309 1333.87C794.309 1341.36 789.557 1345.17 784.445 1345.17ZM829.679 1316.88C823.055 1316.88 819.239 1321.34 817.727 1324.22H817.655V1317.31H810.239V1350.5H817.799V1332.07C817.799 1327.6 821.327 1322.92 826.943 1322.92C831.263 1322.92 833.999 1325.52 833.999 1330.41V1350.5H841.559V1329.26C841.559 1321.48 836.951 1316.88 829.679 1316.88Z" fill="white"/>
<rect y="1713" width="303" height="288" rx="144" fill="#4FA559"/>
<path d="M142.416 1879L129.384 1856.68C137.232 1855.17 140.472 1849.91 140.472 1842.86C140.472 1834.43 135.792 1828.46 124.2 1828.46H95.904V1879H103.68V1857.18H121.752L133.992 1879H142.416ZM123.624 1835.15C129.816 1835.15 132.624 1837.82 132.624 1842.86C132.624 1847.82 129.816 1850.49 123.624 1850.49H103.68V1835.15H123.624ZM178.687 1863.45H178.543L161.983 1828.46H150.607V1879H158.239V1850.49C158.239 1842.71 158.167 1837.31 158.167 1837.31H158.239L178.399 1879.36H178.759L198.919 1837.31H198.991C198.991 1837.31 198.919 1842.71 198.919 1850.49V1879H206.551V1828.46H195.175L178.687 1863.45Z" fill="white"/>
</svg>
