<svg width="1682" height="2391" viewBox="0 0 1682 2391" fill="none" xmlns="http://www.w3.org/2000/svg">
<rect width="28368" height="4736" transform="translate(-3298 -425)" fill="#292929"/>
<path d="M-1682 1328H23867" stroke="white" stroke-width="8"/>
<rect y="1105" width="950.751" height="447" rx="223.5" fill="#46A1B5"/>
<path d="M157.779 1299.96V1350.5H176.715C196.443 1350.5 202.779 1338.12 202.779 1325.23C202.779 1312.34 196.443 1299.96 176.715 1299.96H157.779ZM165.555 1343.8V1306.65H177.003C189.675 1306.65 194.859 1314 194.859 1325.23C194.859 1336.46 189.675 1343.8 177.003 1343.8H165.555ZM236.179 1338.48C234.595 1342.94 231.283 1345.39 226.459 1345.39C221.203 1345.39 216.667 1341.93 216.595 1335.24H242.155C242.155 1334.66 242.227 1334.16 242.227 1333.58C242.227 1323.07 235.027 1316.52 225.811 1316.52C216.523 1316.52 209.251 1323.43 209.251 1333.87C209.251 1344.52 216.523 1351.29 226.171 1351.29C234.307 1351.29 240.643 1346.68 242.731 1339.92L236.179 1338.48ZM225.739 1321.7C230.203 1321.7 234.163 1324.51 234.667 1330.27H216.667C217.315 1324.72 221.347 1321.7 225.739 1321.7ZM251.881 1317.31H245.473V1323.36H251.881V1350.5H259.441V1323.36H265.849V1317.31H259.297V1308.24C259.297 1304.49 261.097 1303.48 264.265 1303.48C265.777 1303.48 267.145 1303.63 268.081 1303.92V1297.44C267.145 1297.22 265.561 1297.08 263.689 1297.08C257.065 1297.08 251.881 1299.6 251.881 1308.09V1317.31ZM271.825 1309.89H279.385V1298.59H271.825V1309.89ZM279.385 1350.5V1317.31H271.825V1350.5H279.385ZM309.249 1316.88C302.625 1316.88 298.809 1321.34 297.297 1324.22H297.225V1317.31H289.809V1350.5H297.369V1332.07C297.369 1327.6 300.897 1322.92 306.513 1322.92C310.833 1322.92 313.569 1325.52 313.569 1330.41V1350.5H321.129V1329.26C321.129 1321.48 316.521 1316.88 309.249 1316.88ZM338.713 1309.89V1298.59H331.153V1309.89H338.713ZM338.713 1350.5V1317.31H331.153V1350.5H338.713ZM364.129 1345.17C359.377 1345.17 354.697 1341.72 354.697 1333.87C354.697 1326.09 359.377 1322.64 364.129 1322.64C368.521 1322.64 372.193 1325.3 373.129 1331.13L380.329 1329.98C379.033 1321.92 373.057 1316.52 364.129 1316.52C354.913 1316.52 346.993 1323.21 346.993 1333.87C346.993 1344.6 354.913 1351.29 364.129 1351.29C373.057 1351.29 379.033 1345.89 380.329 1337.83L373.129 1336.68C372.193 1342.51 368.521 1345.17 364.129 1345.17ZM395.666 1309.89V1298.59H388.106V1309.89H395.666ZM395.666 1350.5V1317.31H388.106V1350.5H395.666ZM423.314 1299.96L418.13 1312.41H425.042L431.882 1299.96H423.314ZM421.586 1316.52C412.01 1316.52 403.946 1323.21 403.946 1333.87C403.946 1344.6 412.01 1351.29 421.586 1351.29C431.09 1351.29 439.154 1344.6 439.154 1333.87C439.154 1323.21 431.09 1316.52 421.586 1316.52ZM421.586 1345.17C416.402 1345.17 411.65 1341.36 411.65 1333.87C411.65 1326.45 416.402 1322.64 421.586 1322.64C426.698 1322.64 431.45 1326.45 431.45 1333.87C431.45 1341.36 426.698 1345.17 421.586 1345.17ZM466.819 1316.88C460.195 1316.88 456.379 1321.34 454.867 1324.22H454.795V1317.31H447.379V1350.5H454.939V1332.07C454.939 1327.6 458.467 1322.92 464.083 1322.92C468.403 1322.92 471.139 1325.52 471.139 1330.41V1350.5H478.699V1329.26C478.699 1321.48 474.091 1316.88 466.819 1316.88ZM517.601 1303.48C519.113 1303.48 520.481 1303.63 521.417 1303.92V1297.44C520.481 1297.22 518.897 1297.08 517.025 1297.08C510.401 1297.08 505.217 1299.6 505.217 1308.09V1317.31H498.809V1323.36H505.217V1350.5H512.777V1323.36H519.185V1317.31H512.633V1308.24C512.633 1304.49 514.433 1303.48 517.601 1303.48ZM548.185 1335.74C548.185 1340.2 544.657 1344.88 539.401 1344.88C535.009 1344.88 532.273 1342.29 532.273 1337.4V1317.31H524.713V1338.48C524.713 1346.25 529.393 1350.93 536.521 1350.93C542.929 1350.93 546.745 1346.47 548.257 1343.59H548.329V1350.5H555.745V1317.31H548.185V1335.74ZM585.647 1316.88C579.023 1316.88 575.207 1321.34 573.695 1324.22H573.623V1317.31H566.207V1350.5H573.767V1332.07C573.767 1327.6 577.295 1322.92 582.911 1322.92C587.231 1322.92 589.967 1325.52 589.967 1330.41V1350.5H597.527V1329.26C597.527 1321.48 592.919 1316.88 585.647 1316.88ZM622.527 1345.17C617.775 1345.17 613.095 1341.72 613.095 1333.87C613.095 1326.09 617.775 1322.64 622.527 1322.64C626.919 1322.64 630.591 1325.3 631.527 1331.13L638.727 1329.98C637.431 1321.92 631.455 1316.52 622.527 1316.52C613.311 1316.52 605.391 1323.21 605.391 1333.87C605.391 1344.6 613.311 1351.29 622.527 1351.29C631.455 1351.29 637.431 1345.89 638.727 1337.83L631.527 1336.68C630.591 1342.51 626.919 1345.17 622.527 1345.17ZM654.064 1309.89V1298.59H646.504V1309.89H654.064ZM654.064 1350.5V1317.31H646.504V1350.5H654.064ZM679.984 1316.52C670.408 1316.52 662.344 1323.21 662.344 1333.87C662.344 1344.6 670.408 1351.29 679.984 1351.29C689.488 1351.29 697.552 1344.6 697.552 1333.87C697.552 1323.21 689.488 1316.52 679.984 1316.52ZM679.984 1345.17C674.8 1345.17 670.048 1341.36 670.048 1333.87C670.048 1326.45 674.8 1322.64 679.984 1322.64C685.096 1322.64 689.848 1326.45 689.848 1333.87C689.848 1341.36 685.096 1345.17 679.984 1345.17ZM725.218 1316.88C718.594 1316.88 714.778 1321.34 713.266 1324.22H713.194V1317.31H705.778V1350.5H713.338V1332.07C713.338 1327.6 716.866 1322.92 722.482 1322.92C726.802 1322.92 729.538 1325.52 729.538 1330.41V1350.5H737.098V1329.26C737.098 1321.48 732.49 1316.88 725.218 1316.88ZM775.778 1327.46C775.778 1320.76 770.234 1316.52 761.378 1316.52C750.866 1316.52 746.258 1322.28 745.106 1328.54L751.658 1329.55C752.378 1325.66 754.61 1322.28 761.378 1322.28C766.418 1322.28 768.578 1324.36 768.578 1326.67C768.578 1329.91 764.258 1330.12 757.49 1331.28C748.778 1332.72 744.313 1335.6 744.313 1341.72C744.313 1346.9 748.346 1351.29 756.41 1351.29C764.474 1351.29 768.146 1346.61 769.154 1344.31H769.226C769.226 1346.61 769.586 1348.84 770.018 1350.5H777.002C776.354 1348.7 775.778 1345.1 775.778 1341.07V1327.46ZM757.994 1345.96C753.314 1345.96 751.514 1343.73 751.514 1341.21C751.514 1338.48 753.242 1336.82 759.794 1335.74C765.41 1334.8 767.642 1334.3 768.578 1333.51V1335.74C768.578 1342.44 763.61 1345.96 757.994 1345.96ZM786.004 1350.5H793.564V1297.36H786.004V1350.5Z" fill="white"/>
<rect y="1713" width="288" height="288" rx="144" fill="#226D7D"/>
<path d="M121.392 1828.46H95.904V1879H103.68V1857.04H121.392C133.344 1857.04 137.592 1851.21 137.592 1842.78C137.592 1834.36 133.344 1828.46 121.392 1828.46ZM103.68 1850.27V1835.22H120.96C126.648 1835.22 129.816 1837.17 129.816 1842.78C129.816 1848.33 126.648 1850.27 120.96 1850.27H103.68ZM168.034 1827.52C154.066 1827.52 142.042 1837.1 142.042 1853.73C142.042 1870.36 154.066 1879.94 168.034 1879.94C182.002 1879.94 194.026 1870.36 194.026 1853.73C194.026 1837.1 182.002 1827.52 168.034 1827.52ZM168.034 1873.02C158.026 1873.02 150.034 1866.18 150.034 1853.73C150.034 1841.27 158.026 1834.43 168.034 1834.43C178.042 1834.43 186.034 1841.27 186.034 1853.73C186.034 1866.18 178.042 1873.02 168.034 1873.02Z" fill="white"/>
<rect x="338" y="1713" width="295" height="288" rx="144" fill="#8FDEED"/>
<path d="M469.616 1854.45C469.616 1861.94 469.76 1868.49 469.76 1868.49H469.688L442.76 1828.46H433.904V1879H441.32V1852.94C441.32 1845.38 441.176 1838.54 441.176 1838.54H441.248L468.392 1879H476.96V1828.46H469.616V1854.45ZM510.706 1857.69H530.506C530.362 1865.68 524.098 1873.1 512.722 1873.1C502.93 1873.1 494.29 1866.69 494.29 1853.73C494.29 1840.77 502.93 1834.36 512.434 1834.36C521.506 1834.36 527.986 1839.26 529.858 1847.25L537.202 1845.88C534.61 1834.36 524.746 1827.52 512.434 1827.52C499.114 1827.52 486.37 1836.95 486.37 1853.73C486.37 1870.5 498.898 1879.72 511.642 1879.72C524.818 1879.72 530.074 1872.23 531.442 1869.71H531.514L531.802 1879H537.634V1851.28H510.706V1857.69Z" fill="white"/>
<path d="M-386 1018V458H14796V1018" stroke="white" stroke-width="8" stroke-dasharray="48 48"/>
</svg>
