<svg width="2018" height="2391" viewBox="0 0 2018 2391" fill="none" xmlns="http://www.w3.org/2000/svg">
<rect width="28368" height="4736" transform="translate(-4980 -425)" fill="#292929"/>
<path d="M-3364 1328H22185" stroke="white" stroke-width="8"/>
<rect y="1105" width="1315" height="447" rx="223.5" fill="#46A1B5"/>
<path d="M410.916 1350.5L397.884 1328.18C405.732 1326.67 408.972 1321.41 408.972 1314.36C408.972 1305.93 404.292 1299.96 392.7 1299.96H364.404V1350.5H372.18V1328.68H390.252L402.492 1350.5H410.916ZM392.124 1306.65C398.316 1306.65 401.124 1309.32 401.124 1314.36C401.124 1319.32 398.316 1321.99 392.124 1321.99H372.18V1306.65H392.124ZM441.538 1338.48C439.954 1342.94 436.642 1345.39 431.818 1345.39C426.562 1345.39 422.026 1341.93 421.954 1335.24H447.514C447.514 1334.66 447.586 1334.16 447.586 1333.58C447.586 1323.07 440.386 1316.52 431.17 1316.52C421.882 1316.52 414.61 1323.43 414.61 1333.87C414.61 1344.52 421.882 1351.29 431.53 1351.29C439.666 1351.29 446.002 1346.68 448.09 1339.92L441.538 1338.48ZM431.098 1321.7C435.562 1321.7 439.522 1324.51 440.026 1330.27H422.026C422.674 1324.72 426.706 1321.7 431.098 1321.7ZM470.217 1335.96C468.921 1339.27 467.625 1342.8 467.625 1342.8H467.553C467.553 1342.8 466.329 1339.27 465.033 1335.96L457.905 1317.31H450.057L463.809 1350.5H471.369L485.049 1317.31H477.417L470.217 1335.96ZM498.299 1309.89V1298.59H490.739V1309.89H498.299ZM498.299 1350.5V1317.31H490.739V1350.5H498.299ZM504.923 1339.77C506.003 1344.67 510.323 1351.15 522.275 1351.15C532.067 1351.15 537.827 1346.47 537.827 1340.49C537.827 1337.68 536.891 1335.45 534.731 1333.72C532.643 1332 529.403 1330.92 522.995 1330.34C516.659 1329.69 514.283 1328.97 514.283 1326.31C514.283 1324.08 516.731 1322.2 521.771 1322.2C527.099 1322.2 530.051 1324.94 530.771 1328.68L537.467 1327.82C536.387 1322.28 531.635 1316.66 521.699 1316.66C511.547 1316.66 507.227 1321.99 507.227 1326.74C507.227 1329.48 508.235 1331.78 510.251 1333.29C512.195 1334.8 515.003 1335.81 521.627 1336.46C528.179 1337.11 530.699 1337.97 530.699 1340.92C530.699 1343.23 528.395 1345.6 522.347 1345.6C515.651 1345.6 512.411 1342.08 511.619 1338.84L504.923 1339.77ZM552.932 1309.89V1298.59H545.372V1309.89H552.932ZM552.932 1350.5V1317.31H545.372V1350.5H552.932ZM580.58 1299.96L575.396 1312.41H582.308L589.148 1299.96H580.58ZM578.852 1316.52C569.276 1316.52 561.212 1323.21 561.212 1333.87C561.212 1344.6 569.276 1351.29 578.852 1351.29C588.356 1351.29 596.42 1344.6 596.42 1333.87C596.42 1323.21 588.356 1316.52 578.852 1316.52ZM578.852 1345.17C573.668 1345.17 568.916 1341.36 568.916 1333.87C568.916 1326.45 573.668 1322.64 578.852 1322.64C583.964 1322.64 588.716 1326.45 588.716 1333.87C588.716 1341.36 583.964 1345.17 578.852 1345.17ZM624.085 1316.88C617.461 1316.88 613.645 1321.34 612.133 1324.22H612.061V1317.31H604.645V1350.5H612.205V1332.07C612.205 1327.6 615.733 1322.92 621.349 1322.92C625.669 1322.92 628.405 1325.52 628.405 1330.41V1350.5H635.965V1329.26C635.965 1321.48 631.357 1316.88 624.085 1316.88ZM674.866 1303.48C676.378 1303.48 677.746 1303.63 678.682 1303.92V1297.44C677.746 1297.22 676.162 1297.08 674.29 1297.08C667.666 1297.08 662.482 1299.6 662.482 1308.09V1317.31H656.074V1323.36H662.482V1350.5H670.042V1323.36H676.45V1317.31H669.898V1308.24C669.898 1304.49 671.698 1303.48 674.866 1303.48ZM705.451 1335.74C705.451 1340.2 701.923 1344.88 696.667 1344.88C692.275 1344.88 689.539 1342.29 689.539 1337.4V1317.31H681.979V1338.48C681.979 1346.25 686.659 1350.93 693.787 1350.93C700.195 1350.93 704.011 1346.47 705.523 1343.59H705.595V1350.5H713.011V1317.31H705.451V1335.74ZM742.913 1316.88C736.289 1316.88 732.473 1321.34 730.961 1324.22H730.889V1317.31H723.473V1350.5H731.033V1332.07C731.033 1327.6 734.561 1322.92 740.177 1322.92C744.497 1322.92 747.233 1325.52 747.233 1330.41V1350.5H754.793V1329.26C754.793 1321.48 750.185 1316.88 742.913 1316.88ZM779.793 1345.17C775.041 1345.17 770.361 1341.72 770.361 1333.87C770.361 1326.09 775.041 1322.64 779.793 1322.64C784.185 1322.64 787.857 1325.3 788.793 1331.13L795.993 1329.98C794.697 1321.92 788.721 1316.52 779.793 1316.52C770.577 1316.52 762.657 1323.21 762.657 1333.87C762.657 1344.6 770.577 1351.29 779.793 1351.29C788.721 1351.29 794.697 1345.89 795.993 1337.83L788.793 1336.68C787.857 1342.51 784.185 1345.17 779.793 1345.17ZM811.33 1309.89V1298.59H803.77V1309.89H811.33ZM811.33 1350.5V1317.31H803.77V1350.5H811.33ZM837.25 1316.52C827.674 1316.52 819.61 1323.21 819.61 1333.87C819.61 1344.6 827.674 1351.29 837.25 1351.29C846.754 1351.29 854.818 1344.6 854.818 1333.87C854.818 1323.21 846.754 1316.52 837.25 1316.52ZM837.25 1345.17C832.066 1345.17 827.314 1341.36 827.314 1333.87C827.314 1326.45 832.066 1322.64 837.25 1322.64C842.362 1322.64 847.114 1326.45 847.114 1333.87C847.114 1341.36 842.362 1345.17 837.25 1345.17ZM882.483 1316.88C875.859 1316.88 872.043 1321.34 870.531 1324.22H870.459V1317.31H863.043V1350.5H870.603V1332.07C870.603 1327.6 874.131 1322.92 879.747 1322.92C884.067 1322.92 886.803 1325.52 886.803 1330.41V1350.5H894.363V1329.26C894.363 1321.48 889.755 1316.88 882.483 1316.88ZM933.043 1327.46C933.043 1320.76 927.499 1316.52 918.643 1316.52C908.131 1316.52 903.523 1322.28 902.371 1328.54L908.923 1329.55C909.643 1325.66 911.875 1322.28 918.643 1322.28C923.683 1322.28 925.843 1324.36 925.843 1326.67C925.843 1329.91 921.523 1330.12 914.755 1331.28C906.043 1332.72 901.579 1335.6 901.579 1341.72C901.579 1346.9 905.611 1351.29 913.675 1351.29C921.739 1351.29 925.411 1346.61 926.419 1344.31H926.491C926.491 1346.61 926.851 1348.84 927.283 1350.5H934.267C933.619 1348.7 933.043 1345.1 933.043 1341.07V1327.46ZM915.259 1345.96C910.579 1345.96 908.779 1343.73 908.779 1341.21C908.779 1338.48 910.507 1336.82 917.059 1335.74C922.675 1334.8 924.907 1334.3 925.843 1333.51V1335.74C925.843 1342.44 920.875 1345.96 915.259 1345.96ZM943.27 1350.5H950.83V1297.36H943.27V1350.5Z" fill="white"/>
<rect y="1713" width="288" height="288" rx="144" fill="#226D7D"/>
<path d="M121.392 1828.46H95.904V1879H103.68V1857.04H121.392C133.344 1857.04 137.592 1851.21 137.592 1842.78C137.592 1834.36 133.344 1828.46 121.392 1828.46ZM103.68 1850.27V1835.22H120.96C126.648 1835.22 129.816 1837.17 129.816 1842.78C129.816 1848.33 126.648 1850.27 120.96 1850.27H103.68ZM168.034 1827.52C154.066 1827.52 142.042 1837.1 142.042 1853.73C142.042 1870.36 154.066 1879.94 168.034 1879.94C182.002 1879.94 194.026 1870.36 194.026 1853.73C194.026 1837.1 182.002 1827.52 168.034 1827.52ZM168.034 1873.02C158.026 1873.02 150.034 1866.18 150.034 1853.73C150.034 1841.27 158.026 1834.43 168.034 1834.43C178.042 1834.43 186.034 1841.27 186.034 1853.73C186.034 1866.18 178.042 1873.02 168.034 1873.02Z" fill="white"/>
<rect y="2045" width="288" height="288" rx="144" fill="#9A2118"/>
<path d="M101.288 2160.46V2167.22H119.072V2211H126.848V2167.22H144.56V2160.46H101.288ZM158.555 2160.46H150.779V2211H185.627V2204.23H158.555V2160.46Z" fill="white"/>
<rect x="338" y="1713" width="295" height="288" rx="144" fill="#8FDEED"/>
<path d="M469.616 1854.45C469.616 1861.94 469.76 1868.49 469.76 1868.49H469.688L442.76 1828.46H433.904V1879H441.32V1852.94C441.32 1845.38 441.176 1838.54 441.176 1838.54H441.248L468.392 1879H476.96V1828.46H469.616V1854.45ZM510.706 1857.69H530.506C530.362 1865.68 524.098 1873.1 512.722 1873.1C502.93 1873.1 494.29 1866.69 494.29 1853.73C494.29 1840.77 502.93 1834.36 512.434 1834.36C521.506 1834.36 527.986 1839.26 529.858 1847.25L537.202 1845.88C534.61 1834.36 524.746 1827.52 512.434 1827.52C499.114 1827.52 486.37 1836.95 486.37 1853.73C486.37 1870.5 498.898 1879.72 511.642 1879.72C524.818 1879.72 530.074 1872.23 531.442 1869.71H531.514L531.802 1879H537.634V1851.28H510.706V1857.69Z" fill="white"/>
<rect x="338" y="2045" width="295" height="288" rx="144" fill="#67C68F"/>
<path d="M455.984 2195.45H455.84L439.28 2160.46H427.904V2211H435.536V2182.49C435.536 2174.71 435.464 2169.31 435.464 2169.31H435.536L455.696 2211.36H456.056L476.216 2169.31H476.288C476.288 2169.31 476.216 2174.71 476.216 2182.49V2211H483.848V2160.46H472.472L455.984 2195.45ZM536.509 2205.96C541.837 2201.42 545.221 2194.58 545.221 2185.73C545.221 2169.1 533.197 2159.52 519.229 2159.52C505.261 2159.52 493.237 2169.1 493.237 2185.73C493.237 2202.36 505.261 2211.94 519.229 2211.94C523.189 2211.94 527.005 2211.14 530.461 2209.7L538.525 2219.71H547.597L536.509 2205.96ZM501.229 2185.73C501.229 2173.27 509.221 2166.43 519.229 2166.43C529.237 2166.43 537.229 2173.27 537.229 2185.73C537.229 2198.18 529.237 2205.02 519.229 2205.02C509.221 2205.02 501.229 2198.18 501.229 2185.73Z" fill="white"/>
<rect x="683" y="1713" width="285" height="288" rx="142.5" fill="#CB312E"/>
<path d="M825.416 1879L812.384 1856.68C820.232 1855.17 823.472 1849.91 823.472 1842.86C823.472 1834.43 818.792 1828.46 807.2 1828.46H778.904V1879H786.68V1857.18H804.752L816.992 1879H825.416ZM806.624 1835.15C812.816 1835.15 815.624 1837.82 815.624 1842.86C815.624 1847.82 812.816 1850.49 806.624 1850.49H786.68V1835.15H806.624ZM859.095 1828.46H833.607V1879H841.383V1857.04H859.095C871.047 1857.04 875.295 1851.21 875.295 1842.78C875.295 1834.36 871.047 1828.46 859.095 1828.46ZM841.383 1850.27V1835.22H858.663C864.351 1835.22 867.519 1837.17 867.519 1842.78C867.519 1848.33 864.351 1850.27 858.663 1850.27H841.383Z" fill="white"/>
<rect x="683" y="2045" width="288" height="288" rx="144" fill="#A7391B"/>
<path d="M825.056 2211L803.6 2160.46H794.96L773.504 2211H781.64L786.824 2198.26H811.376L816.56 2211H825.056ZM794.6 2179.18C796.832 2173.63 798.992 2167.8 798.992 2167.8H799.136C799.136 2167.8 801.368 2173.63 803.6 2179.18L808.784 2191.99H789.416L794.6 2179.18ZM867.069 2186.45C867.069 2193.94 867.213 2200.49 867.213 2200.49H867.141L840.213 2160.46H831.357V2211H838.773V2184.94C838.773 2177.38 838.629 2170.54 838.629 2170.54H838.701L865.845 2211H874.413V2160.46H867.069V2186.45Z" fill="white"/>
<rect x="1028" y="1713" width="290" height="288" rx="144" fill="#FC6028"/>
<path d="M1164.73 1873.96C1170.06 1869.42 1173.44 1862.58 1173.44 1853.73C1173.44 1837.1 1161.42 1827.52 1147.45 1827.52C1133.48 1827.52 1121.46 1837.1 1121.46 1853.73C1121.46 1870.36 1133.48 1879.94 1147.45 1879.94C1151.41 1879.94 1155.22 1879.14 1158.68 1877.7L1166.74 1887.71H1175.82L1164.73 1873.96ZM1129.45 1853.73C1129.45 1841.27 1137.44 1834.43 1147.45 1834.43C1157.46 1834.43 1165.45 1841.27 1165.45 1853.73C1165.45 1866.18 1157.46 1873.02 1147.45 1873.02C1137.44 1873.02 1129.45 1866.18 1129.45 1853.73ZM1226.87 1879L1205.41 1828.46H1196.77L1175.32 1879H1183.45L1188.64 1866.26H1213.19L1218.37 1879H1226.87ZM1196.41 1847.18C1198.64 1841.63 1200.8 1835.8 1200.8 1835.8H1200.95C1200.95 1835.8 1203.18 1841.63 1205.41 1847.18L1210.6 1859.99H1191.23L1196.41 1847.18Z" fill="white"/>
<rect x="1028" y="2045" width="287" height="288" rx="143.5" fill="#6459AA"/>
<path d="M1123.9 2160.46V2211H1142.84C1162.57 2211 1168.9 2198.62 1168.9 2185.73C1168.9 2172.84 1162.57 2160.46 1142.84 2160.46H1123.9ZM1131.68 2204.3V2167.15H1143.13C1155.8 2167.15 1160.98 2174.5 1160.98 2185.73C1160.98 2196.96 1155.8 2204.3 1143.13 2204.3H1131.68ZM1173.72 2194.66C1175.38 2203.51 1183.15 2211.94 1198.56 2211.94C1213.18 2211.94 1220.95 2204.59 1220.95 2196.53C1220.95 2192.21 1219.58 2188.9 1216.63 2186.3C1213.61 2183.71 1209.72 2182.06 1199.5 2180.83C1189.2 2179.61 1185.02 2178.02 1185.02 2173.27C1185.02 2169.74 1188.26 2165.86 1197.55 2165.86C1206.34 2165.86 1211.59 2170.46 1212.67 2176.15L1219.8 2174.71C1218.14 2165.71 1209.79 2159.52 1197.98 2159.52C1183.37 2159.52 1177.46 2167.01 1177.46 2173.56C1177.46 2177.02 1178.47 2180.04 1181.14 2182.49C1183.8 2184.86 1187.69 2186.66 1198.34 2187.89C1208.93 2189.11 1213.32 2191.2 1213.32 2196.82C1213.32 2201.28 1209.36 2205.53 1199.35 2205.53C1187.4 2205.53 1182.22 2198.98 1180.99 2193.22L1173.72 2194.66Z" fill="white"/>
<path d="M-2068 1018V458H13114V1018" stroke="white" stroke-width="8" stroke-dasharray="48 48"/>
</svg>
