<svg width="1682" height="2391" viewBox="0 0 1682 2391" fill="none" xmlns="http://www.w3.org/2000/svg">
<rect width="28368" height="4736" transform="translate(-6998 -425)" fill="#292929"/>
<path d="M-5382 1328H20167" stroke="white" stroke-width="8"/>
<rect y="1105" width="982" height="447" rx="223.5" fill="#46A1B5"/>
<path d="M200.464 1327.03H229.552V1320.26H200.464V1306.72H230.848V1299.96H192.904V1350.5H231.136V1343.73H200.464V1327.03ZM235.548 1339.77C236.628 1344.67 240.948 1351.15 252.9 1351.15C262.692 1351.15 268.452 1346.47 268.452 1340.49C268.452 1337.68 267.516 1335.45 265.356 1333.72C263.268 1332 260.028 1330.92 253.62 1330.34C247.284 1329.69 244.908 1328.97 244.908 1326.31C244.908 1324.08 247.356 1322.2 252.396 1322.2C257.724 1322.2 260.676 1324.94 261.396 1328.68L268.092 1327.82C267.012 1322.28 262.26 1316.66 252.324 1316.66C242.172 1316.66 237.852 1321.99 237.852 1326.74C237.852 1329.48 238.86 1331.78 240.876 1333.29C242.82 1334.8 245.628 1335.81 252.252 1336.46C258.804 1337.11 261.324 1337.97 261.324 1340.92C261.324 1343.23 259.02 1345.6 252.972 1345.6C246.276 1345.6 243.036 1342.08 242.244 1338.84L235.548 1339.77ZM289.245 1344.45C286.221 1344.45 284.997 1343.37 284.997 1340.71V1323.36H293.925V1317.31H284.997V1306H277.437V1317.31H270.957V1323.36H277.437V1341.86C277.437 1348.7 281.469 1350.86 287.661 1350.86C290.253 1350.86 292.701 1350.57 294.285 1350.14V1343.66C293.061 1344.09 291.117 1344.45 289.245 1344.45ZM308.447 1309.89V1298.59H300.887V1309.89H308.447ZM308.447 1350.5V1317.31H300.887V1350.5H308.447ZM361.079 1316.88C354.527 1316.88 350.639 1321.2 349.055 1324.72H348.983C347.471 1319.68 343.439 1316.88 337.967 1316.88C331.559 1316.88 327.887 1321.34 326.375 1324.22H326.303V1317.31H318.887V1350.5H326.447V1332.07C326.447 1327.6 329.903 1322.92 335.159 1322.92C339.407 1322.92 342.071 1325.52 342.071 1330.41V1350.5H349.631V1332.07C349.631 1327.6 353.015 1322.92 358.343 1322.92C362.519 1322.92 365.255 1325.52 365.255 1330.41V1350.5H372.815V1329.26C372.815 1321.48 368.135 1316.88 361.079 1316.88ZM411.387 1327.46C411.387 1320.76 405.843 1316.52 396.987 1316.52C386.475 1316.52 381.867 1322.28 380.715 1328.54L387.267 1329.55C387.987 1325.66 390.219 1322.28 396.987 1322.28C402.027 1322.28 404.187 1324.36 404.187 1326.67C404.187 1329.91 399.867 1330.12 393.099 1331.28C384.387 1332.72 379.923 1335.6 379.923 1341.72C379.923 1346.9 383.955 1351.29 392.019 1351.29C400.083 1351.29 403.755 1346.61 404.763 1344.31H404.835C404.835 1346.61 405.195 1348.84 405.627 1350.5H412.611C411.963 1348.7 411.387 1345.1 411.387 1341.07V1327.46ZM393.603 1345.96C388.923 1345.96 387.123 1343.73 387.123 1341.21C387.123 1338.48 388.851 1336.82 395.403 1335.74C401.019 1334.8 403.251 1334.3 404.187 1333.51V1335.74C404.187 1342.44 399.219 1345.96 393.603 1345.96ZM436.59 1345.17C431.838 1345.17 427.158 1341.72 427.158 1333.87C427.158 1326.09 431.838 1322.64 436.59 1322.64C440.982 1322.64 444.654 1325.3 445.59 1331.13L452.79 1329.98C451.494 1321.92 445.518 1316.52 436.59 1316.52C427.374 1316.52 419.454 1323.21 419.454 1333.87C419.454 1344.6 427.374 1351.29 436.59 1351.29C445.518 1351.29 451.494 1345.89 452.79 1337.83L445.59 1336.68C444.654 1342.51 440.982 1345.17 436.59 1345.17ZM468.127 1309.89V1298.59H460.567V1309.89H468.127ZM468.127 1350.5V1317.31H460.567V1350.5H468.127ZM495.775 1299.96L490.591 1312.41H497.503L504.343 1299.96H495.775ZM494.047 1316.52C484.471 1316.52 476.407 1323.21 476.407 1333.87C476.407 1344.6 484.471 1351.29 494.047 1351.29C503.551 1351.29 511.615 1344.6 511.615 1333.87C511.615 1323.21 503.551 1316.52 494.047 1316.52ZM494.047 1345.17C488.863 1345.17 484.111 1341.36 484.111 1333.87C484.111 1326.45 488.863 1322.64 494.047 1322.64C499.159 1322.64 503.911 1326.45 503.911 1333.87C503.911 1341.36 499.159 1345.17 494.047 1345.17ZM539.28 1316.88C532.656 1316.88 528.84 1321.34 527.328 1324.22H527.256V1317.31H519.84V1350.5H527.4V1332.07C527.4 1327.6 530.928 1322.92 536.544 1322.92C540.864 1322.92 543.6 1325.52 543.6 1330.41V1350.5H551.16V1329.26C551.16 1321.48 546.552 1316.88 539.28 1316.88ZM600.142 1323.86H600.07C598.054 1319.97 594.238 1316.88 588.478 1316.88C580.702 1316.88 573.79 1322.56 573.79 1333.29C573.79 1343.95 580.702 1349.64 588.478 1349.64C594.238 1349.64 598.054 1346.54 599.998 1342.8H600.07V1347.69C600.07 1354.1 595.966 1357.63 590.494 1357.63C585.67 1357.63 582.502 1354.89 581.422 1352.01L574.51 1353.52C576.022 1358.71 581.998 1363.53 590.35 1363.53C600.79 1363.53 607.63 1357.12 607.63 1345.96V1317.31H600.142V1323.86ZM590.998 1343.95C586.318 1343.95 581.494 1340.78 581.494 1333.29C581.494 1325.8 586.318 1322.64 590.998 1322.64C595.102 1322.64 600.358 1325.8 600.358 1333.29C600.358 1340.71 595.102 1343.95 590.998 1343.95ZM636.139 1317.16C629.659 1317.16 626.635 1321.34 625.555 1324.08H625.483V1317.31H618.067V1350.5H625.627V1332.72C625.627 1326.81 629.731 1324 635.131 1324C636.139 1324 637.147 1324.15 637.939 1324.29V1317.24C637.147 1317.16 636.499 1317.16 636.139 1317.16ZM666.701 1335.74C666.701 1340.2 663.173 1344.88 657.917 1344.88C653.525 1344.88 650.789 1342.29 650.789 1337.4V1317.31H643.229V1338.48C643.229 1346.25 647.909 1350.93 655.037 1350.93C661.445 1350.93 665.261 1346.47 666.773 1343.59H666.845V1350.5H674.261V1317.31H666.701V1335.74ZM709.491 1338.48C707.907 1342.94 704.595 1345.39 699.771 1345.39C694.515 1345.39 689.979 1341.93 689.907 1335.24H715.467C715.467 1334.66 715.539 1334.16 715.539 1333.58C715.539 1323.07 708.339 1316.52 699.123 1316.52C689.835 1316.52 682.563 1323.43 682.563 1333.87C682.563 1344.52 689.835 1351.29 699.483 1351.29C707.619 1351.29 713.955 1346.68 716.043 1339.92L709.491 1338.48ZM699.051 1321.7C703.515 1321.7 707.475 1324.51 707.979 1330.27H689.979C690.627 1324.72 694.659 1321.7 699.051 1321.7ZM719.86 1339.77C720.94 1344.67 725.26 1351.15 737.212 1351.15C747.004 1351.15 752.764 1346.47 752.764 1340.49C752.764 1337.68 751.828 1335.45 749.668 1333.72C747.58 1332 744.34 1330.92 737.932 1330.34C731.596 1329.69 729.22 1328.97 729.22 1326.31C729.22 1324.08 731.668 1322.2 736.708 1322.2C742.036 1322.2 744.988 1324.94 745.708 1328.68L752.404 1327.82C751.324 1322.28 746.572 1316.66 736.636 1316.66C726.484 1316.66 722.164 1321.99 722.164 1326.74C722.164 1329.48 723.172 1331.78 725.188 1333.29C727.132 1334.8 729.94 1335.81 736.564 1336.46C743.116 1337.11 745.636 1337.97 745.636 1340.92C745.636 1343.23 743.332 1345.6 737.284 1345.6C730.588 1345.6 727.348 1342.08 726.556 1338.84L719.86 1339.77ZM788.965 1327.46C788.965 1320.76 783.421 1316.52 774.565 1316.52C764.053 1316.52 759.445 1322.28 758.293 1328.54L764.845 1329.55C765.565 1325.66 767.797 1322.28 774.565 1322.28C779.605 1322.28 781.765 1324.36 781.765 1326.67C781.765 1329.91 777.445 1330.12 770.677 1331.28C761.965 1332.72 757.501 1335.6 757.501 1341.72C757.501 1346.9 761.533 1351.29 769.597 1351.29C777.661 1351.29 781.333 1346.61 782.341 1344.31H782.413C782.413 1346.61 782.773 1348.84 783.205 1350.5H790.189C789.541 1348.7 788.965 1345.1 788.965 1341.07V1327.46ZM771.181 1345.96C766.501 1345.96 764.701 1343.73 764.701 1341.21C764.701 1338.48 766.429 1336.82 772.981 1335.74C778.597 1334.8 780.829 1334.3 781.765 1333.51V1335.74C781.765 1342.44 776.797 1345.96 771.181 1345.96Z" fill="white"/>
<rect y="1713" width="288" height="288" rx="144" fill="#226D7D"/>
<path d="M121.392 1828.46H95.904V1879H103.68V1857.04H121.392C133.344 1857.04 137.592 1851.21 137.592 1842.78C137.592 1834.36 133.344 1828.46 121.392 1828.46ZM103.68 1850.27V1835.22H120.96C126.648 1835.22 129.816 1837.17 129.816 1842.78C129.816 1848.33 126.648 1850.27 120.96 1850.27H103.68ZM168.034 1827.52C154.066 1827.52 142.042 1837.1 142.042 1853.73C142.042 1870.36 154.066 1879.94 168.034 1879.94C182.002 1879.94 194.026 1870.36 194.026 1853.73C194.026 1837.1 182.002 1827.52 168.034 1827.52ZM168.034 1873.02C158.026 1873.02 150.034 1866.18 150.034 1853.73C150.034 1841.27 158.026 1834.43 168.034 1834.43C178.042 1834.43 186.034 1841.27 186.034 1853.73C186.034 1866.18 178.042 1873.02 168.034 1873.02Z" fill="white"/>
<rect x="342" y="1713" width="288" height="288" rx="144" fill="#9A2118"/>
<path d="M443.288 1828.46V1835.22H461.072V1879H468.848V1835.22H486.56V1828.46H443.288ZM500.555 1828.46H492.779V1879H527.627V1872.23H500.555V1828.46Z" fill="white"/>
<rect x="683" y="1713" width="285" height="288" rx="142.5" fill="#CB312E"/>
<path d="M825.416 1879L812.384 1856.68C820.232 1855.17 823.472 1849.91 823.472 1842.86C823.472 1834.43 818.792 1828.46 807.2 1828.46H778.904V1879H786.68V1857.18H804.752L816.992 1879H825.416ZM806.624 1835.15C812.816 1835.15 815.624 1837.82 815.624 1842.86C815.624 1847.82 812.816 1850.49 806.624 1850.49H786.68V1835.15H806.624ZM859.095 1828.46H833.607V1879H841.383V1857.04H859.095C871.047 1857.04 875.295 1851.21 875.295 1842.78C875.295 1834.36 871.047 1828.46 859.095 1828.46ZM841.383 1850.27V1835.22H858.663C864.351 1835.22 867.519 1837.17 867.519 1842.78C867.519 1848.33 864.351 1850.27 858.663 1850.27H841.383Z" fill="white"/>
<path d="M-4086 1018V458H11096V1018" stroke="white" stroke-width="8" stroke-dasharray="48 48"/>
</svg>
