<svg width="1682" height="2391" viewBox="0 0 1682 2391" fill="none" xmlns="http://www.w3.org/2000/svg">
<rect width="28368" height="4736" transform="translate(-8680 -425)" fill="#292929"/>
<path d="M-7064 1328H18485" stroke="white" stroke-width="8"/>
<path d="M907.603 73.2085H820.456V239H856.354V172.872H907.603C950.35 172.872 963.339 150.672 963.339 123.04C963.339 95.4085 950.35 73.2085 907.603 73.2085ZM856.354 142.17V103.911H905.95C919.648 103.911 927.441 109.106 927.441 123.04C927.441 136.738 919.648 142.17 905.95 142.17H856.354ZM1047.81 128.945C1027.26 128.945 1017.34 142.17 1013.56 151.617H1013.33V129.417H978.847V239H1014.04V185.389C1014.04 166.732 1027.5 160.119 1041.9 160.119C1046.86 160.119 1050.88 160.828 1053.24 161.772V129.181C1050.88 128.945 1048.75 128.945 1047.81 128.945ZM1145.38 197.906C1141.6 208.298 1133.1 215.383 1119.4 215.383C1106.41 215.383 1094.37 207.826 1093.42 191.766H1173.25C1173.48 189.404 1173.72 187.043 1173.72 184.445C1173.72 148.783 1149.16 126.583 1117.04 126.583C1084.68 126.583 1059.89 149.255 1059.89 184.209C1059.89 219.162 1084.68 241.834 1117.98 241.834C1145.62 241.834 1168.05 226.955 1175.14 204.519L1145.38 197.906ZM1116.57 149.019C1127.2 149.019 1138.06 155.396 1139.24 170.511H1093.42C1094.84 155.868 1106.41 149.019 1116.57 149.019ZM1318.05 116.664C1318.05 129.889 1318.52 148.311 1318.52 148.311H1318.28C1311.91 136.974 1300.57 128 1283.1 128C1258.3 128 1235.86 146.657 1235.86 184.209C1235.86 221.76 1258.3 240.417 1283.1 240.417C1300.57 240.417 1311.91 231.443 1318.28 220.106H1318.52V239H1353V64.7064H1318.05V116.664ZM1295.38 213.966C1283.57 213.966 1271.29 205.7 1271.29 184.209C1271.29 162.481 1283.57 154.451 1295.38 154.451C1306.24 154.451 1318.99 162.481 1318.99 184.209C1318.99 205.936 1306.24 213.966 1295.38 213.966ZM1459.51 197.906C1455.73 208.298 1447.22 215.383 1433.53 215.383C1420.54 215.383 1408.49 207.826 1407.55 191.766H1487.37C1487.61 189.404 1487.85 187.043 1487.85 184.445C1487.85 148.783 1463.28 126.583 1431.16 126.583C1398.81 126.583 1374.01 149.255 1374.01 184.209C1374.01 219.162 1398.81 241.834 1432.11 241.834C1459.74 241.834 1482.18 226.955 1489.26 204.519L1459.51 197.906ZM1430.69 149.019C1441.32 149.019 1452.18 155.396 1453.36 170.511H1407.55C1408.96 155.868 1420.54 149.019 1430.69 149.019ZM1497.05 203.338C1500.83 219.162 1514.29 241.598 1557.28 241.598C1590.11 241.598 1611.36 226.483 1611.36 204.991C1611.36 195.072 1608.05 187.043 1600.73 181.374C1593.65 175.47 1582.31 171.455 1562.95 169.802C1543.58 168.149 1536.73 166.732 1536.73 160.355C1536.73 155.396 1542.16 151.145 1556.1 151.145C1571.45 151.145 1578.3 159.174 1579.48 167.204L1610.42 163.898C1607.35 148.074 1591.99 126.819 1555.86 126.819C1518.31 126.819 1504.38 146.421 1504.38 162.717C1504.38 172.4 1508.15 180.666 1515 186.098C1521.85 191.53 1531.77 195.309 1552.32 196.962C1572.63 198.851 1578.77 200.268 1578.77 207.117C1578.77 212.077 1573.57 217.036 1557.51 217.036C1538.86 217.036 1530.35 208.062 1527.99 199.56L1497.05 203.338ZM1732.88 166.496C1732.88 142.17 1713.28 126.583 1681.16 126.583C1646.21 126.583 1629.2 144.296 1624.72 166.26L1654.47 170.747C1656.6 160.355 1662.74 152.326 1681.16 152.326C1694.39 152.326 1699.58 156.813 1699.58 162.245C1699.58 170.511 1687.54 170.747 1666.28 174.289C1639.12 178.54 1622.59 187.987 1622.59 209.479C1622.59 226.955 1636.29 241.834 1663.21 241.834C1688.48 241.834 1699.35 228.372 1702.65 221.051H1702.89C1703.13 226.719 1703.83 233.568 1705.02 239H1736.9C1734.54 233.096 1732.88 220.106 1732.88 207.353V166.496ZM1671.72 218.217C1659.91 218.217 1655.66 213.257 1655.66 206.881C1655.66 200.268 1660.62 196.253 1677.86 193.419C1692.26 191.057 1696.99 189.877 1699.58 188.223V193.183C1699.58 209.243 1686.59 218.217 1671.72 218.217ZM1828.74 128.945C1808.19 128.945 1798.27 142.17 1794.49 151.617H1794.26V129.417H1759.78V239H1794.97V185.389C1794.97 166.732 1808.43 160.119 1822.83 160.119C1827.79 160.119 1831.81 160.828 1834.17 161.772V129.181C1831.81 128.945 1829.68 128.945 1828.74 128.945ZM1916.84 128.945C1896.29 128.945 1886.38 142.17 1882.6 151.617H1882.36V129.417H1847.88V239H1883.07V185.389C1883.07 166.732 1896.53 160.119 1910.94 160.119C1915.9 160.119 1919.91 160.828 1922.27 161.772V129.181C1919.91 128.945 1917.79 128.945 1916.84 128.945ZM1989.62 126.583C1955.84 126.583 1928.92 148.783 1928.92 184.209C1928.92 219.398 1955.84 241.834 1989.62 241.834C2023.15 241.834 2050.07 219.398 2050.07 184.209C2050.07 148.783 2023.15 126.583 1989.62 126.583ZM1989.62 214.202C1976.86 214.202 1964.34 204.991 1964.34 184.209C1964.34 163.189 1976.86 153.979 1989.62 153.979C2002.13 153.979 2014.65 163.189 2014.65 184.209C2014.65 204.991 2002.13 214.202 1989.62 214.202ZM2070.9 239H2106.09V64.7064H2070.9V239ZM2132.94 239H2168.13V64.7064H2132.94V239ZM2249.54 126.583C2215.77 126.583 2188.84 148.783 2188.84 184.209C2188.84 219.398 2215.77 241.834 2249.54 241.834C2283.08 241.834 2310 219.398 2310 184.209C2310 148.783 2283.08 126.583 2249.54 126.583ZM2249.54 214.202C2236.79 214.202 2224.27 204.991 2224.27 184.209C2224.27 163.189 2236.79 153.979 2249.54 153.979C2262.06 153.979 2274.57 163.189 2274.57 184.209C2274.57 204.991 2262.06 214.202 2249.54 214.202Z" fill="white"/>
<rect y="1105" width="971" height="447" rx="223.5" fill="#517DAE"/>
<path d="M375.904 1299.96V1350.5H394.84C414.568 1350.5 420.904 1338.12 420.904 1325.23C420.904 1312.34 414.568 1299.96 394.84 1299.96H375.904ZM383.68 1343.8V1306.65H395.128C407.8 1306.65 412.984 1314 412.984 1325.23C412.984 1336.46 407.8 1343.8 395.128 1343.8H383.68ZM437.096 1309.89V1298.59H429.536V1309.89H437.096ZM437.096 1350.5V1317.31H429.536V1350.5H437.096ZM443.72 1339.77C444.8 1344.67 449.12 1351.15 461.072 1351.15C470.864 1351.15 476.624 1346.47 476.624 1340.49C476.624 1337.68 475.688 1335.45 473.528 1333.72C471.44 1332 468.2 1330.92 461.792 1330.34C455.456 1329.69 453.08 1328.97 453.08 1326.31C453.08 1324.08 455.528 1322.2 460.568 1322.2C465.896 1322.2 468.848 1324.94 469.568 1328.68L476.264 1327.82C475.184 1322.28 470.432 1316.66 460.496 1316.66C450.344 1316.66 446.024 1321.99 446.024 1326.74C446.024 1329.48 447.032 1331.78 449.048 1333.29C450.992 1334.8 453.8 1335.81 460.424 1336.46C466.976 1337.11 469.496 1337.97 469.496 1340.92C469.496 1343.23 467.192 1345.6 461.144 1345.6C454.448 1345.6 451.208 1342.08 450.416 1338.84L443.72 1339.77ZM508.796 1338.48C507.212 1342.94 503.9 1345.39 499.076 1345.39C493.82 1345.39 489.284 1341.93 489.212 1335.24H514.772C514.772 1334.66 514.844 1334.16 514.844 1333.58C514.844 1323.07 507.644 1316.52 498.428 1316.52C489.14 1316.52 481.868 1323.43 481.868 1333.87C481.868 1344.52 489.14 1351.29 498.788 1351.29C506.924 1351.29 513.26 1346.68 515.348 1339.92L508.796 1338.48ZM498.356 1321.7C502.82 1321.7 506.78 1324.51 507.284 1330.27H489.284C489.932 1324.72 493.964 1321.7 498.356 1321.7ZM533.49 1308.38C536.441 1308.38 539.754 1311.4 544.29 1311.4C548.61 1311.4 552.138 1308.88 552.858 1303.7L547.53 1302.4C547.17 1304.56 546.018 1305.72 544.218 1305.72C541.266 1305.72 537.954 1302.69 533.346 1302.69C529.098 1302.69 525.498 1305.21 524.778 1310.4L530.178 1311.69C530.538 1309.53 531.618 1308.38 533.49 1308.38ZM542.562 1316.88C535.938 1316.88 532.122 1321.34 530.61 1324.22H530.538V1317.31H523.122V1350.5H530.682V1332.07C530.682 1327.6 534.21 1322.92 539.826 1322.92C544.146 1322.92 546.882 1325.52 546.882 1330.41V1350.5H554.442V1329.26C554.442 1321.48 549.834 1316.88 542.562 1316.88ZM579.945 1316.52C570.369 1316.52 562.305 1323.21 562.305 1333.87C562.305 1344.6 570.369 1351.29 579.945 1351.29C589.449 1351.29 597.513 1344.6 597.513 1333.87C597.513 1323.21 589.449 1316.52 579.945 1316.52ZM579.945 1345.17C574.761 1345.17 570.009 1341.36 570.009 1333.87C570.009 1326.45 574.761 1322.64 579.945 1322.64C585.057 1322.64 589.809 1326.45 589.809 1333.87C589.809 1341.36 585.057 1345.17 579.945 1345.17Z" fill="white"/>
<rect x="683" y="1713" width="288" height="288" rx="144" fill="#9A2118"/>
<path d="M784.288 1828.46V1835.22H802.072V1879H809.848V1835.22H827.56V1828.46H784.288ZM841.555 1828.46H833.779V1879H868.627V1872.23H841.555V1828.46Z" fill="white"/>
<rect x="338" y="1713" width="295" height="288" rx="144" fill="#67C68F"/>
<path d="M455.984 1863.45H455.84L439.28 1828.46H427.904V1879H435.536V1850.49C435.536 1842.71 435.464 1837.31 435.464 1837.31H435.536L455.696 1879.36H456.056L476.216 1837.31H476.288C476.288 1837.31 476.216 1842.71 476.216 1850.49V1879H483.848V1828.46H472.472L455.984 1863.45ZM536.509 1873.96C541.837 1869.42 545.221 1862.58 545.221 1853.73C545.221 1837.1 533.197 1827.52 519.229 1827.52C505.261 1827.52 493.237 1837.1 493.237 1853.73C493.237 1870.36 505.261 1879.94 519.229 1879.94C523.189 1879.94 527.005 1879.14 530.461 1877.7L538.525 1887.71H547.597L536.509 1873.96ZM501.229 1853.73C501.229 1841.27 509.221 1834.43 519.229 1834.43C529.237 1834.43 537.229 1841.27 537.229 1853.73C537.229 1866.18 529.237 1873.02 519.229 1873.02C509.221 1873.02 501.229 1866.18 501.229 1853.73Z" fill="white"/>
<rect y="1713" width="287" height="288" rx="143.5" fill="#6459AA"/>
<path d="M95.904 1828.46V1879H114.84C134.568 1879 140.904 1866.62 140.904 1853.73C140.904 1840.84 134.568 1828.46 114.84 1828.46H95.904ZM103.68 1872.3V1835.15H115.128C127.8 1835.15 132.984 1842.5 132.984 1853.73C132.984 1864.96 127.8 1872.3 115.128 1872.3H103.68ZM145.72 1862.66C147.376 1871.51 155.152 1879.94 170.56 1879.94C185.176 1879.94 192.952 1872.59 192.952 1864.53C192.952 1860.21 191.584 1856.9 188.632 1854.3C185.608 1851.71 181.72 1850.06 171.496 1848.83C161.2 1847.61 157.024 1846.02 157.024 1841.27C157.024 1837.74 160.264 1833.86 169.552 1833.86C178.336 1833.86 183.592 1838.46 184.672 1844.15L191.8 1842.71C190.144 1833.71 181.792 1827.52 169.984 1827.52C155.368 1827.52 149.464 1835.01 149.464 1841.56C149.464 1845.02 150.472 1848.04 153.136 1850.49C155.8 1852.86 159.688 1854.66 170.344 1855.89C180.928 1857.11 185.32 1859.2 185.32 1864.82C185.32 1869.28 181.36 1873.53 171.352 1873.53C159.4 1873.53 154.216 1866.98 152.992 1861.22L145.72 1862.66Z" fill="white"/>
<path d="M-5768 1018V458H9414V1018" stroke="white" stroke-width="8" stroke-dasharray="48 48"/>
</svg>
