<svg width="2016" height="2391" viewBox="0 0 2016 2391" fill="none" xmlns="http://www.w3.org/2000/svg">
<rect width="28368" height="4736" transform="translate(-10359 -425)" fill="#292929"/>
<path d="M-8743 1328H16806" stroke="white" stroke-width="8"/>
<path d="M-771.397 73.2085H-858.544V239H-822.646V172.872H-771.397C-728.65 172.872 -715.661 150.672 -715.661 123.04C-715.661 95.4085 -728.65 73.2085 -771.397 73.2085ZM-822.646 142.17V103.911H-773.05C-759.352 103.911 -751.559 109.106 -751.559 123.04C-751.559 136.738 -759.352 142.17 -773.05 142.17H-822.646ZM-631.191 128.945C-651.738 128.945 -661.657 142.17 -665.436 151.617H-665.672V129.417H-700.153V239H-664.964V185.389C-664.964 166.732 -651.502 160.119 -637.095 160.119C-632.136 160.119 -628.121 160.828 -625.759 161.772V129.181C-628.121 128.945 -630.247 128.945 -631.191 128.945ZM-533.62 197.906C-537.398 208.298 -545.901 215.383 -559.598 215.383C-572.588 215.383 -584.632 207.826 -585.577 191.766H-505.752C-505.515 189.404 -505.279 187.043 -505.279 184.445C-505.279 148.783 -529.841 126.583 -561.96 126.583C-594.315 126.583 -619.113 149.255 -619.113 184.209C-619.113 219.162 -594.315 241.834 -561.015 241.834C-533.384 241.834 -510.947 226.955 -503.862 204.519L-533.62 197.906ZM-562.432 149.019C-551.805 149.019 -540.941 155.396 -539.76 170.511H-585.577C-584.16 155.868 -572.588 149.019 -562.432 149.019ZM-360.952 116.664C-360.952 129.889 -360.479 148.311 -360.479 148.311H-360.715C-367.092 136.974 -378.428 128 -395.905 128C-420.703 128 -443.139 146.657 -443.139 184.209C-443.139 221.76 -420.703 240.417 -395.905 240.417C-378.428 240.417 -367.092 231.443 -360.715 220.106H-360.479V239H-325.998V64.7064H-360.952V116.664ZM-383.624 213.966C-395.432 213.966 -407.713 205.7 -407.713 184.209C-407.713 162.481 -395.432 154.451 -383.624 154.451C-372.76 154.451 -360.007 162.481 -360.007 184.209C-360.007 205.936 -372.76 213.966 -383.624 213.966ZM-219.495 197.906C-223.274 208.298 -231.776 215.383 -245.474 215.383C-258.463 215.383 -270.508 207.826 -271.452 191.766H-191.627C-191.391 189.404 -191.154 187.043 -191.154 184.445C-191.154 148.783 -215.716 126.583 -247.835 126.583C-280.191 126.583 -304.988 149.255 -304.988 184.209C-304.988 219.162 -280.191 241.834 -246.891 241.834C-219.259 241.834 -196.823 226.955 -189.737 204.519L-219.495 197.906ZM-248.308 149.019C-237.68 149.019 -226.816 155.396 -225.635 170.511H-271.452C-270.035 155.868 -258.463 149.019 -248.308 149.019ZM-181.946 203.338C-178.167 219.162 -164.705 241.598 -121.722 241.598C-88.8946 241.598 -67.6393 226.483 -67.6393 204.991C-67.6393 195.072 -70.9457 187.043 -78.2669 181.374C-85.352 175.47 -96.6882 171.455 -116.054 169.802C-135.42 168.149 -142.269 166.732 -142.269 160.355C-142.269 155.396 -136.837 151.145 -122.903 151.145C-107.552 151.145 -100.703 159.174 -99.5223 167.204L-68.584 163.898C-71.6542 148.074 -87.0052 126.819 -123.139 126.819C-160.69 126.819 -174.624 146.421 -174.624 162.717C-174.624 172.4 -170.846 180.666 -163.997 186.098C-157.148 191.53 -147.229 195.309 -126.682 196.962C-106.371 198.851 -100.231 200.268 -100.231 207.117C-100.231 212.077 -105.427 217.036 -121.486 217.036C-140.144 217.036 -148.646 208.062 -151.007 199.56L-181.946 203.338ZM53.8833 166.496C53.8833 142.17 34.2811 126.583 2.16199 126.583C-32.7912 126.583 -49.7955 144.296 -54.2827 166.26L-24.5253 170.747C-22.3997 160.355 -16.2593 152.326 2.16199 152.326C15.3875 152.326 20.5833 156.813 20.5833 162.245C20.5833 170.511 8.53858 170.747 -12.7167 174.289C-39.8763 178.54 -56.4082 187.987 -56.4082 209.479C-56.4082 226.955 -42.7104 241.834 -15.787 241.834C9.48326 241.834 20.3471 228.372 23.6535 221.051H23.8896C24.1258 226.719 24.8343 233.568 26.0152 239H57.8982C55.5364 233.096 53.8833 220.106 53.8833 207.353V166.496ZM-7.28483 218.217C-19.0933 218.217 -23.3444 213.257 -23.3444 206.881C-23.3444 200.268 -18.3848 196.253 -1.1444 193.419C13.262 191.057 17.9854 189.877 20.5833 188.223V193.183C20.5833 209.243 7.59389 218.217 -7.28483 218.217ZM149.739 128.945C129.192 128.945 119.273 142.17 115.494 151.617H115.258V129.417H80.7771V239H115.966V185.389C115.966 166.732 129.428 160.119 143.835 160.119C148.794 160.119 152.809 160.828 155.171 161.772V129.181C152.809 128.945 150.684 128.945 149.739 128.945ZM237.841 128.945C217.295 128.945 207.375 142.17 203.597 151.617H203.361V129.417H168.88V239H204.069V185.389C204.069 166.732 217.531 160.119 231.937 160.119C236.897 160.119 240.912 160.828 243.273 161.772V129.181C240.912 128.945 238.786 128.945 237.841 128.945ZM310.615 126.583C276.843 126.583 249.919 148.783 249.919 184.209C249.919 219.398 276.843 241.834 310.615 241.834C344.151 241.834 371.075 219.398 371.075 184.209C371.075 148.783 344.151 126.583 310.615 126.583ZM310.615 214.202C297.862 214.202 285.345 204.991 285.345 184.209C285.345 163.189 297.862 153.979 310.615 153.979C323.132 153.979 335.649 163.189 335.649 184.209C335.649 204.991 323.132 214.202 310.615 214.202ZM391.904 239H427.093V64.7064H391.904V239ZM453.944 239H489.134V64.7064H453.944V239ZM570.541 126.583C536.768 126.583 509.845 148.783 509.845 184.209C509.845 219.398 536.768 241.834 570.541 241.834C604.077 241.834 631 219.398 631 184.209C631 148.783 604.077 126.583 570.541 126.583ZM570.541 214.202C557.787 214.202 545.27 204.991 545.27 184.209C545.27 163.189 557.787 153.979 570.541 153.979C583.058 153.979 595.575 163.189 595.575 184.209C595.575 204.991 583.058 214.202 570.541 214.202Z" fill="white"/>
<rect x="3" y="1105" width="1318" height="447" rx="223.5" fill="#6459AA"/>
<path d="M456.416 1350.5L443.384 1328.18C451.232 1326.67 454.472 1321.41 454.472 1314.36C454.472 1305.93 449.792 1299.96 438.2 1299.96H409.904V1350.5H417.68V1328.68H435.752L447.992 1350.5H456.416ZM437.624 1306.65C443.816 1306.65 446.624 1309.32 446.624 1314.36C446.624 1319.32 443.816 1321.99 437.624 1321.99H417.68V1306.65H437.624ZM487.038 1338.48C485.454 1342.94 482.142 1345.39 477.318 1345.39C472.062 1345.39 467.526 1341.93 467.454 1335.24H493.014C493.014 1334.66 493.086 1334.16 493.086 1333.58C493.086 1323.07 485.886 1316.52 476.67 1316.52C467.382 1316.52 460.11 1323.43 460.11 1333.87C460.11 1344.52 467.382 1351.29 477.03 1351.29C485.166 1351.29 491.502 1346.68 493.59 1339.92L487.038 1338.48ZM476.598 1321.7C481.062 1321.7 485.022 1324.51 485.526 1330.27H467.526C468.174 1324.72 472.206 1321.7 476.598 1321.7ZM515.717 1335.96C514.421 1339.27 513.125 1342.8 513.125 1342.8H513.053C513.053 1342.8 511.829 1339.27 510.533 1335.96L503.405 1317.31H495.557L509.309 1350.5H516.869L530.549 1317.31H522.917L515.717 1335.96ZM543.799 1309.89V1298.59H536.239V1309.89H543.799ZM543.799 1350.5V1317.31H536.239V1350.5H543.799ZM550.423 1339.77C551.503 1344.67 555.823 1351.15 567.775 1351.15C577.567 1351.15 583.327 1346.47 583.327 1340.49C583.327 1337.68 582.391 1335.45 580.231 1333.72C578.143 1332 574.903 1330.92 568.495 1330.34C562.159 1329.69 559.783 1328.97 559.783 1326.31C559.783 1324.08 562.231 1322.2 567.271 1322.2C572.599 1322.2 575.551 1324.94 576.271 1328.68L582.967 1327.82C581.887 1322.28 577.135 1316.66 567.199 1316.66C557.047 1316.66 552.727 1321.99 552.727 1326.74C552.727 1329.48 553.735 1331.78 555.751 1333.29C557.695 1334.8 560.503 1335.81 567.127 1336.46C573.679 1337.11 576.199 1337.97 576.199 1340.92C576.199 1343.23 573.895 1345.6 567.847 1345.6C561.151 1345.6 557.911 1342.08 557.119 1338.84L550.423 1339.77ZM598.432 1309.89V1298.59H590.872V1309.89H598.432ZM598.432 1350.5V1317.31H590.872V1350.5H598.432ZM626.08 1299.96L620.896 1312.41H627.808L634.648 1299.96H626.08ZM624.352 1316.52C614.776 1316.52 606.712 1323.21 606.712 1333.87C606.712 1344.6 614.776 1351.29 624.352 1351.29C633.856 1351.29 641.92 1344.6 641.92 1333.87C641.92 1323.21 633.856 1316.52 624.352 1316.52ZM624.352 1345.17C619.168 1345.17 614.416 1341.36 614.416 1333.87C614.416 1326.45 619.168 1322.64 624.352 1322.64C629.464 1322.64 634.216 1326.45 634.216 1333.87C634.216 1341.36 629.464 1345.17 624.352 1345.17ZM669.585 1316.88C662.961 1316.88 659.145 1321.34 657.633 1324.22H657.561V1317.31H650.145V1350.5H657.705V1332.07C657.705 1327.6 661.233 1322.92 666.849 1322.92C671.169 1322.92 673.905 1325.52 673.905 1330.41V1350.5H681.465V1329.26C681.465 1321.48 676.857 1316.88 669.585 1316.88ZM730.374 1314.93C730.374 1318.82 730.518 1324 730.518 1324H730.446C728.43 1320.12 724.614 1316.88 718.782 1316.88C711.078 1316.88 704.094 1322.71 704.094 1333.87C704.094 1345.1 711.078 1350.93 718.782 1350.93C724.614 1350.93 728.43 1347.69 730.446 1343.8H730.518V1350.5H737.934V1297.36H730.374V1314.93ZM721.302 1344.96C716.622 1344.96 711.798 1341.86 711.798 1333.87C711.798 1325.95 716.622 1322.85 721.302 1322.85C725.406 1322.85 730.662 1325.88 730.662 1333.87C730.662 1341.93 725.406 1344.96 721.302 1344.96ZM755.932 1309.89V1298.59H748.372V1309.89H755.932ZM755.932 1350.5V1317.31H748.372V1350.5H755.932ZM762.556 1339.77C763.636 1344.67 767.956 1351.15 779.908 1351.15C789.7 1351.15 795.46 1346.47 795.46 1340.49C795.46 1337.68 794.524 1335.45 792.364 1333.72C790.276 1332 787.036 1330.92 780.628 1330.34C774.292 1329.69 771.916 1328.97 771.916 1326.31C771.916 1324.08 774.364 1322.2 779.404 1322.2C784.732 1322.2 787.684 1324.94 788.404 1328.68L795.1 1327.82C794.02 1322.28 789.268 1316.66 779.332 1316.66C769.18 1316.66 764.86 1321.99 764.86 1326.74C764.86 1329.48 765.868 1331.78 767.884 1333.29C769.828 1334.8 772.636 1335.81 779.26 1336.46C785.812 1337.11 788.332 1337.97 788.332 1340.92C788.332 1343.23 786.028 1345.6 779.98 1345.6C773.284 1345.6 770.044 1342.08 769.252 1338.84L762.556 1339.77ZM827.632 1338.48C826.048 1342.94 822.736 1345.39 817.912 1345.39C812.656 1345.39 808.12 1341.93 808.048 1335.24H833.608C833.608 1334.66 833.68 1334.16 833.68 1333.58C833.68 1323.07 826.48 1316.52 817.264 1316.52C807.976 1316.52 800.704 1323.43 800.704 1333.87C800.704 1344.52 807.976 1351.29 817.624 1351.29C825.76 1351.29 832.096 1346.68 834.184 1339.92L827.632 1338.48ZM817.192 1321.7C821.656 1321.7 825.616 1324.51 826.12 1330.27H808.12C808.768 1324.72 812.8 1321.7 817.192 1321.7ZM852.325 1308.38C855.277 1308.38 858.589 1311.4 863.125 1311.4C867.445 1311.4 870.973 1308.88 871.693 1303.7L866.365 1302.4C866.005 1304.56 864.853 1305.72 863.053 1305.72C860.101 1305.72 856.789 1302.69 852.181 1302.69C847.933 1302.69 844.333 1305.21 843.613 1310.4L849.013 1311.69C849.373 1309.53 850.453 1308.38 852.325 1308.38ZM861.397 1316.88C854.773 1316.88 850.957 1321.34 849.445 1324.22H849.373V1317.31H841.957V1350.5H849.517V1332.07C849.517 1327.6 853.045 1322.92 858.661 1322.92C862.981 1322.92 865.717 1325.52 865.717 1330.41V1350.5H873.277V1329.26C873.277 1321.48 868.669 1316.88 861.397 1316.88ZM898.781 1316.52C889.205 1316.52 881.141 1323.21 881.141 1333.87C881.141 1344.6 889.205 1351.29 898.781 1351.29C908.285 1351.29 916.349 1344.6 916.349 1333.87C916.349 1323.21 908.285 1316.52 898.781 1316.52ZM898.781 1345.17C893.597 1345.17 888.845 1341.36 888.845 1333.87C888.845 1326.45 893.597 1322.64 898.781 1322.64C903.893 1322.64 908.645 1326.45 908.645 1333.87C908.645 1341.36 903.893 1345.17 898.781 1345.17Z" fill="white"/>
<rect x="3" y="1713" width="288" height="288" rx="144" fill="#226D7D"/>
<path d="M124.392 1828.46H98.904V1879H106.68V1857.04H124.392C136.344 1857.04 140.592 1851.21 140.592 1842.78C140.592 1834.36 136.344 1828.46 124.392 1828.46ZM106.68 1850.27V1835.22H123.96C129.648 1835.22 132.816 1837.17 132.816 1842.78C132.816 1848.33 129.648 1850.27 123.96 1850.27H106.68ZM171.034 1827.52C157.066 1827.52 145.042 1837.1 145.042 1853.73C145.042 1870.36 157.066 1879.94 171.034 1879.94C185.002 1879.94 197.026 1870.36 197.026 1853.73C197.026 1837.1 185.002 1827.52 171.034 1827.52ZM171.034 1873.02C161.026 1873.02 153.034 1866.18 153.034 1853.73C153.034 1841.27 161.026 1834.43 171.034 1834.43C181.042 1834.43 189.034 1841.27 189.034 1853.73C189.034 1866.18 181.042 1873.02 171.034 1873.02Z" fill="white"/>
<rect x="3" y="2045" width="288" height="288" rx="144" fill="#9A2118"/>
<path d="M104.288 2160.46V2167.22H122.072V2211H129.848V2167.22H147.56V2160.46H104.288ZM161.555 2160.46H153.779V2211H188.627V2204.23H161.555V2160.46Z" fill="white"/>
<rect x="341" y="1713" width="295" height="288" rx="144" fill="#8FDEED"/>
<path d="M472.616 1854.45C472.616 1861.94 472.76 1868.49 472.76 1868.49H472.688L445.76 1828.46H436.904V1879H444.32V1852.94C444.32 1845.38 444.176 1838.54 444.176 1838.54H444.248L471.392 1879H479.96V1828.46H472.616V1854.45ZM513.706 1857.69H533.506C533.362 1865.68 527.098 1873.1 515.722 1873.1C505.93 1873.1 497.29 1866.69 497.29 1853.73C497.29 1840.77 505.93 1834.36 515.434 1834.36C524.506 1834.36 530.986 1839.26 532.858 1847.25L540.202 1845.88C537.61 1834.36 527.746 1827.52 515.434 1827.52C502.114 1827.52 489.37 1836.95 489.37 1853.73C489.37 1870.5 501.898 1879.72 514.642 1879.72C527.818 1879.72 533.074 1872.23 534.442 1869.71H534.514L534.802 1879H540.634V1851.28H513.706V1857.69Z" fill="white"/>
<rect x="341" y="2045" width="295" height="288" rx="144" fill="#67C68F"/>
<path d="M458.984 2195.45H458.84L442.28 2160.46H430.904V2211H438.536V2182.49C438.536 2174.71 438.464 2169.31 438.464 2169.31H438.536L458.696 2211.36H459.056L479.216 2169.31H479.288C479.288 2169.31 479.216 2174.71 479.216 2182.49V2211H486.848V2160.46H475.472L458.984 2195.45ZM539.509 2205.96C544.837 2201.42 548.221 2194.58 548.221 2185.73C548.221 2169.1 536.197 2159.52 522.229 2159.52C508.261 2159.52 496.237 2169.1 496.237 2185.73C496.237 2202.36 508.261 2211.94 522.229 2211.94C526.189 2211.94 530.005 2211.14 533.461 2209.7L541.525 2219.71H550.597L539.509 2205.96ZM504.229 2185.73C504.229 2173.27 512.221 2166.43 522.229 2166.43C532.237 2166.43 540.229 2173.27 540.229 2185.73C540.229 2198.18 532.237 2205.02 522.229 2205.02C512.221 2205.02 504.229 2198.18 504.229 2185.73Z" fill="white"/>
<rect x="686" y="1713" width="285" height="288" rx="142.5" fill="#CB312E"/>
<path d="M828.416 1879L815.384 1856.68C823.232 1855.17 826.472 1849.91 826.472 1842.86C826.472 1834.43 821.792 1828.46 810.2 1828.46H781.904V1879H789.68V1857.18H807.752L819.992 1879H828.416ZM809.624 1835.15C815.816 1835.15 818.624 1837.82 818.624 1842.86C818.624 1847.82 815.816 1850.49 809.624 1850.49H789.68V1835.15H809.624ZM862.095 1828.46H836.607V1879H844.383V1857.04H862.095C874.047 1857.04 878.295 1851.21 878.295 1842.78C878.295 1834.36 874.047 1828.46 862.095 1828.46ZM844.383 1850.27V1835.22H861.663C867.351 1835.22 870.519 1837.17 870.519 1842.78C870.519 1848.33 867.351 1850.27 861.663 1850.27H844.383Z" fill="white"/>
<rect x="686" y="2045" width="288" height="288" rx="144" fill="#A7391B"/>
<path d="M828.056 2211L806.6 2160.46H797.96L776.504 2211H784.64L789.824 2198.26H814.376L819.56 2211H828.056ZM797.6 2179.18C799.832 2173.63 801.992 2167.8 801.992 2167.8H802.136C802.136 2167.8 804.368 2173.63 806.6 2179.18L811.784 2191.99H792.416L797.6 2179.18ZM870.069 2186.45C870.069 2193.94 870.213 2200.49 870.213 2200.49H870.141L843.213 2160.46H834.357V2211H841.773V2184.94C841.773 2177.38 841.629 2170.54 841.629 2170.54H841.701L868.845 2211H877.413V2160.46H870.069V2186.45Z" fill="white"/>
<rect x="1031" y="1713" width="290" height="288" rx="144" fill="#FC6028"/>
<path d="M1167.73 1873.96C1173.06 1869.42 1176.44 1862.58 1176.44 1853.73C1176.44 1837.1 1164.42 1827.52 1150.45 1827.52C1136.48 1827.52 1124.46 1837.1 1124.46 1853.73C1124.46 1870.36 1136.48 1879.94 1150.45 1879.94C1154.41 1879.94 1158.22 1879.14 1161.68 1877.7L1169.74 1887.71H1178.82L1167.73 1873.96ZM1132.45 1853.73C1132.45 1841.27 1140.44 1834.43 1150.45 1834.43C1160.46 1834.43 1168.45 1841.27 1168.45 1853.73C1168.45 1866.18 1160.46 1873.02 1150.45 1873.02C1140.44 1873.02 1132.45 1866.18 1132.45 1853.73ZM1229.87 1879L1208.41 1828.46H1199.77L1178.32 1879H1186.45L1191.64 1866.26H1216.19L1221.37 1879H1229.87ZM1199.41 1847.18C1201.64 1841.63 1203.8 1835.8 1203.8 1835.8H1203.95C1203.95 1835.8 1206.18 1841.63 1208.41 1847.18L1213.6 1859.99H1194.23L1199.41 1847.18Z" fill="white"/>
<rect x="1031" y="2045" width="287" height="288" rx="143.5" fill="#6459AA"/>
<path d="M1126.9 2160.46V2211H1145.84C1165.57 2211 1171.9 2198.62 1171.9 2185.73C1171.9 2172.84 1165.57 2160.46 1145.84 2160.46H1126.9ZM1134.68 2204.3V2167.15H1146.13C1158.8 2167.15 1163.98 2174.5 1163.98 2185.73C1163.98 2196.96 1158.8 2204.3 1146.13 2204.3H1134.68ZM1176.72 2194.66C1178.38 2203.51 1186.15 2211.94 1201.56 2211.94C1216.18 2211.94 1223.95 2204.59 1223.95 2196.53C1223.95 2192.21 1222.58 2188.9 1219.63 2186.3C1216.61 2183.71 1212.72 2182.06 1202.5 2180.83C1192.2 2179.61 1188.02 2178.02 1188.02 2173.27C1188.02 2169.74 1191.26 2165.86 1200.55 2165.86C1209.34 2165.86 1214.59 2170.46 1215.67 2176.15L1222.8 2174.71C1221.14 2165.71 1212.79 2159.52 1200.98 2159.52C1186.37 2159.52 1180.46 2167.01 1180.46 2173.56C1180.46 2177.02 1181.47 2180.04 1184.14 2182.49C1186.8 2184.86 1190.69 2186.66 1201.34 2187.89C1211.93 2189.11 1216.32 2191.2 1216.32 2196.82C1216.32 2201.28 1212.36 2205.53 1202.35 2205.53C1190.4 2205.53 1185.22 2198.98 1183.99 2193.22L1176.72 2194.66Z" fill="white"/>
<path d="M-7447 1018V458H7735V1018" stroke="white" stroke-width="8" stroke-dasharray="48 48"/>
</svg>
