<svg width="2015" height="2391" viewBox="0 0 2015 2391" fill="none" xmlns="http://www.w3.org/2000/svg">
<rect width="28368" height="4736" transform="translate(-12375 -425)" fill="#292929"/>
<path d="M-10759 1328H14790" stroke="white" stroke-width="8"/>
<rect x="5" y="1105" width="1318" height="447" rx="223.5" fill="#4A4C6B"/>
<path d="M384.464 1327.03H413.552V1320.26H384.464V1306.72H414.848V1299.96H376.904V1350.5H415.136V1343.73H384.464V1327.03ZM419.548 1339.77C420.628 1344.67 424.948 1351.15 436.9 1351.15C446.692 1351.15 452.452 1346.47 452.452 1340.49C452.452 1337.68 451.516 1335.45 449.356 1333.72C447.268 1332 444.028 1330.92 437.62 1330.34C431.284 1329.69 428.908 1328.97 428.908 1326.31C428.908 1324.08 431.356 1322.2 436.396 1322.2C441.724 1322.2 444.676 1324.94 445.396 1328.68L452.092 1327.82C451.012 1322.28 446.26 1316.66 436.324 1316.66C426.172 1316.66 421.852 1321.99 421.852 1326.74C421.852 1329.48 422.86 1331.78 424.876 1333.29C426.82 1334.8 429.628 1335.81 436.252 1336.46C442.804 1337.11 445.324 1337.97 445.324 1340.92C445.324 1343.23 443.02 1345.6 436.972 1345.6C430.276 1345.6 427.036 1342.08 426.244 1338.84L419.548 1339.77ZM473.245 1344.45C470.221 1344.45 468.997 1343.37 468.997 1340.71V1323.36H477.925V1317.31H468.997V1306H461.437V1317.31H454.957V1323.36H461.437V1341.86C461.437 1348.7 465.469 1350.86 471.661 1350.86C474.253 1350.86 476.701 1350.57 478.285 1350.14V1343.66C477.061 1344.09 475.117 1344.45 473.245 1344.45ZM492.447 1309.89V1298.59H484.887V1309.89H492.447ZM492.447 1350.5V1317.31H484.887V1350.5H492.447ZM545.079 1316.88C538.527 1316.88 534.639 1321.2 533.055 1324.72H532.983C531.471 1319.68 527.439 1316.88 521.967 1316.88C515.559 1316.88 511.887 1321.34 510.375 1324.22H510.303V1317.31H502.887V1350.5H510.447V1332.07C510.447 1327.6 513.903 1322.92 519.159 1322.92C523.407 1322.92 526.071 1325.52 526.071 1330.41V1350.5H533.631V1332.07C533.631 1327.6 537.015 1322.92 542.343 1322.92C546.519 1322.92 549.255 1325.52 549.255 1330.41V1350.5H556.815V1329.26C556.815 1321.48 552.135 1316.88 545.079 1316.88ZM595.387 1327.46C595.387 1320.76 589.843 1316.52 580.987 1316.52C570.475 1316.52 565.867 1322.28 564.715 1328.54L571.267 1329.55C571.987 1325.66 574.219 1322.28 580.987 1322.28C586.027 1322.28 588.187 1324.36 588.187 1326.67C588.187 1329.91 583.867 1330.12 577.099 1331.28C568.387 1332.72 563.923 1335.6 563.923 1341.72C563.923 1346.9 567.955 1351.29 576.019 1351.29C584.083 1351.29 587.755 1346.61 588.763 1344.31H588.835C588.835 1346.61 589.195 1348.84 589.627 1350.5H596.611C595.963 1348.7 595.387 1345.1 595.387 1341.07V1327.46ZM577.603 1345.96C572.923 1345.96 571.123 1343.73 571.123 1341.21C571.123 1338.48 572.851 1336.82 579.403 1335.74C585.019 1334.8 587.251 1334.3 588.187 1333.51V1335.74C588.187 1342.44 583.219 1345.96 577.603 1345.96ZM620.59 1345.17C615.838 1345.17 611.158 1341.72 611.158 1333.87C611.158 1326.09 615.838 1322.64 620.59 1322.64C624.982 1322.64 628.654 1325.3 629.59 1331.13L636.79 1329.98C635.494 1321.92 629.518 1316.52 620.59 1316.52C611.374 1316.52 603.454 1323.21 603.454 1333.87C603.454 1344.6 611.374 1351.29 620.59 1351.29C629.518 1351.29 635.494 1345.89 636.79 1337.83L629.59 1336.68C628.654 1342.51 624.982 1345.17 620.59 1345.17ZM652.127 1309.89V1298.59H644.567V1309.89H652.127ZM652.127 1350.5V1317.31H644.567V1350.5H652.127ZM679.775 1299.96L674.591 1312.41H681.503L688.343 1299.96H679.775ZM678.047 1316.52C668.471 1316.52 660.407 1323.21 660.407 1333.87C660.407 1344.6 668.471 1351.29 678.047 1351.29C687.551 1351.29 695.615 1344.6 695.615 1333.87C695.615 1323.21 687.551 1316.52 678.047 1316.52ZM678.047 1345.17C672.863 1345.17 668.111 1341.36 668.111 1333.87C668.111 1326.45 672.863 1322.64 678.047 1322.64C683.159 1322.64 687.911 1326.45 687.911 1333.87C687.911 1341.36 683.159 1345.17 678.047 1345.17ZM723.28 1316.88C716.656 1316.88 712.84 1321.34 711.328 1324.22H711.256V1317.31H703.84V1350.5H711.4V1332.07C711.4 1327.6 714.928 1322.92 720.544 1322.92C724.864 1322.92 727.6 1325.52 727.6 1330.41V1350.5H735.16V1329.26C735.16 1321.48 730.552 1316.88 723.28 1316.88ZM802.142 1316.88C795.59 1316.88 791.702 1321.2 790.118 1324.72H790.046C788.534 1319.68 784.502 1316.88 779.03 1316.88C772.622 1316.88 768.95 1321.34 767.438 1324.22H767.366V1317.31H759.95V1350.5H767.51V1332.07C767.51 1327.6 770.966 1322.92 776.222 1322.92C780.47 1322.92 783.134 1325.52 783.134 1330.41V1350.5H790.694V1332.07C790.694 1327.6 794.078 1322.92 799.406 1322.92C803.582 1322.92 806.318 1325.52 806.318 1330.41V1350.5H813.878V1329.26C813.878 1321.48 809.198 1316.88 802.142 1316.88ZM848.561 1338.48C846.977 1342.94 843.665 1345.39 838.841 1345.39C833.585 1345.39 829.049 1341.93 828.977 1335.24H854.537C854.537 1334.66 854.609 1334.16 854.609 1333.58C854.609 1323.07 847.409 1316.52 838.193 1316.52C828.905 1316.52 821.633 1323.43 821.633 1333.87C821.633 1344.52 828.905 1351.29 838.553 1351.29C846.689 1351.29 853.025 1346.68 855.113 1339.92L848.561 1338.48ZM838.121 1321.7C842.585 1321.7 846.545 1324.51 847.049 1330.27H829.049C829.697 1324.72 833.729 1321.7 838.121 1321.7ZM887.007 1314.93C887.007 1318.82 887.151 1324 887.151 1324H887.079C885.063 1320.12 881.247 1316.88 875.415 1316.88C867.711 1316.88 860.727 1322.71 860.727 1333.87C860.727 1345.1 867.711 1350.93 875.415 1350.93C881.247 1350.93 885.063 1347.69 887.079 1343.8H887.151V1350.5H894.567V1297.36H887.007V1314.93ZM877.935 1344.96C873.255 1344.96 868.431 1341.86 868.431 1333.87C868.431 1325.95 873.255 1322.85 877.935 1322.85C882.039 1322.85 887.295 1325.88 887.295 1333.87C887.295 1341.93 882.039 1344.96 877.935 1344.96ZM912.564 1309.89V1298.59H905.004V1309.89H912.564ZM912.564 1350.5V1317.31H905.004V1350.5H912.564ZM951.66 1327.46C951.66 1320.76 946.116 1316.52 937.26 1316.52C926.748 1316.52 922.14 1322.28 920.988 1328.54L927.54 1329.55C928.26 1325.66 930.492 1322.28 937.26 1322.28C942.3 1322.28 944.46 1324.36 944.46 1326.67C944.46 1329.91 940.14 1330.12 933.372 1331.28C924.66 1332.72 920.196 1335.6 920.196 1341.72C920.196 1346.9 924.228 1351.29 932.292 1351.29C940.356 1351.29 944.028 1346.61 945.036 1344.31H945.108C945.108 1346.61 945.468 1348.84 945.9 1350.5H952.884C952.236 1348.7 951.66 1345.1 951.66 1341.07V1327.46ZM933.876 1345.96C929.196 1345.96 927.396 1343.73 927.396 1341.21C927.396 1338.48 929.124 1336.82 935.676 1335.74C941.292 1334.8 943.524 1334.3 944.46 1333.51V1335.74C944.46 1342.44 939.492 1345.96 933.876 1345.96Z" fill="white"/>
<rect x="5" y="1713" width="288" height="288" rx="144" fill="#226D7D"/>
<path d="M126.392 1828.46H100.904V1879H108.68V1857.04H126.392C138.344 1857.04 142.592 1851.21 142.592 1842.78C142.592 1834.36 138.344 1828.46 126.392 1828.46ZM108.68 1850.27V1835.22H125.96C131.648 1835.22 134.816 1837.17 134.816 1842.78C134.816 1848.33 131.648 1850.27 125.96 1850.27H108.68ZM173.034 1827.52C159.066 1827.52 147.042 1837.1 147.042 1853.73C147.042 1870.36 159.066 1879.94 173.034 1879.94C187.002 1879.94 199.026 1870.36 199.026 1853.73C199.026 1837.1 187.002 1827.52 173.034 1827.52ZM173.034 1873.02C163.026 1873.02 155.034 1866.18 155.034 1853.73C155.034 1841.27 163.026 1834.43 173.034 1834.43C183.042 1834.43 191.034 1841.27 191.034 1853.73C191.034 1866.18 183.042 1873.02 173.034 1873.02Z" fill="white"/>
<rect x="688" y="1713" width="285" height="288" rx="142.5" fill="#CB312E"/>
<path d="M830.416 1879L817.384 1856.68C825.232 1855.17 828.472 1849.91 828.472 1842.86C828.472 1834.43 823.792 1828.46 812.2 1828.46H783.904V1879H791.68V1857.18H809.752L821.992 1879H830.416ZM811.624 1835.15C817.816 1835.15 820.624 1837.82 820.624 1842.86C820.624 1847.82 817.816 1850.49 811.624 1850.49H791.68V1835.15H811.624ZM864.095 1828.46H838.607V1879H846.383V1857.04H864.095C876.047 1857.04 880.295 1851.21 880.295 1842.78C880.295 1834.36 876.047 1828.46 864.095 1828.46ZM846.383 1850.27V1835.22H863.663C869.351 1835.22 872.519 1837.17 872.519 1842.78C872.519 1848.33 869.351 1850.27 863.663 1850.27H846.383Z" fill="white"/>
<rect x="363" y="1713" width="288" height="288" rx="144" fill="#9A2118"/>
<path d="M464.288 1828.46V1835.22H482.072V1879H489.848V1835.22H507.56V1828.46H464.288ZM521.555 1828.46H513.779V1879H548.627V1872.23H521.555V1828.46Z" fill="white"/>
<path d="M-9463 1018V458H5719V1018" stroke="white" stroke-width="8" stroke-dasharray="48 48"/>
</svg>
