<svg width="2020" height="2391" viewBox="0 0 2020 2391" fill="none" xmlns="http://www.w3.org/2000/svg">
<rect width="28368" height="4736" transform="translate(-14390 -425)" fill="#292929"/>
<path d="M-12774 1328H12775" stroke="white" stroke-width="8"/>
<rect x="8" y="1105" width="1318" height="447" rx="223.5" fill="#A45AA9"/>
<path d="M554.484 1334.95H554.34L537.78 1299.96H526.404V1350.5H534.036V1321.99C534.036 1314.21 533.964 1308.81 533.964 1308.81H534.036L554.196 1350.86H554.556L574.716 1308.81H574.788C574.788 1308.81 574.716 1314.21 574.716 1321.99V1350.5H582.348V1299.96H570.972L554.484 1334.95ZM622.121 1327.46C622.121 1320.76 616.577 1316.52 607.721 1316.52C597.209 1316.52 592.601 1322.28 591.449 1328.54L598.001 1329.55C598.721 1325.66 600.953 1322.28 607.721 1322.28C612.761 1322.28 614.921 1324.36 614.921 1326.67C614.921 1329.91 610.601 1330.12 603.833 1331.28C595.121 1332.72 590.657 1335.6 590.657 1341.72C590.657 1346.9 594.689 1351.29 602.753 1351.29C610.817 1351.29 614.489 1346.61 615.497 1344.31H615.569C615.569 1346.61 615.929 1348.84 616.361 1350.5H623.345C622.697 1348.7 622.121 1345.1 622.121 1341.07V1327.46ZM604.337 1345.96C599.657 1345.96 597.857 1343.73 597.857 1341.21C597.857 1338.48 599.585 1336.82 606.137 1335.74C611.753 1334.8 613.985 1334.3 614.921 1333.51V1335.74C614.921 1342.44 609.953 1345.96 604.337 1345.96ZM656.612 1324H656.54C654.524 1320.12 650.708 1316.88 644.876 1316.88C637.172 1316.88 630.188 1322.71 630.188 1333.87C630.188 1345.1 637.172 1350.93 644.876 1350.93C650.708 1350.93 654.524 1347.69 656.54 1343.8H656.612C656.612 1343.8 656.468 1348.92 656.468 1352.88V1363.03H664.028V1317.31H656.612V1324ZM647.396 1344.96C642.716 1344.96 637.892 1341.86 637.892 1333.87C637.892 1325.95 642.716 1322.85 647.396 1322.85C651.5 1322.85 656.756 1325.88 656.756 1333.87C656.756 1341.93 651.5 1344.96 647.396 1344.96ZM697.505 1335.74C697.505 1340.2 693.977 1344.88 688.721 1344.88C684.329 1344.88 681.593 1342.29 681.593 1337.4V1317.31H674.033V1338.48C674.033 1346.25 678.713 1350.93 685.841 1350.93C692.249 1350.93 696.065 1346.47 697.577 1343.59H697.649V1350.5H705.065V1317.31H697.505V1335.74ZM740.296 1338.48C738.712 1342.94 735.4 1345.39 730.576 1345.39C725.32 1345.39 720.784 1341.93 720.712 1335.24H746.272C746.272 1334.66 746.344 1334.16 746.344 1333.58C746.344 1323.07 739.144 1316.52 729.928 1316.52C720.64 1316.52 713.368 1323.43 713.368 1333.87C713.368 1344.52 720.64 1351.29 730.288 1351.29C738.424 1351.29 744.76 1346.68 746.848 1339.92L740.296 1338.48ZM729.856 1321.7C734.32 1321.7 738.28 1324.51 738.784 1330.27H720.784C721.432 1324.72 725.464 1321.7 729.856 1321.7ZM767.448 1344.45C764.424 1344.45 763.2 1343.37 763.2 1340.71V1323.36H772.128V1317.31H763.2V1306H755.64V1317.31H749.16V1323.36H755.64V1341.86C755.64 1348.7 759.672 1350.86 765.864 1350.86C768.456 1350.86 770.904 1350.57 772.488 1350.14V1343.66C771.264 1344.09 769.32 1344.45 767.448 1344.45ZM807.746 1327.46C807.746 1320.76 802.202 1316.52 793.346 1316.52C782.834 1316.52 778.226 1322.28 777.074 1328.54L783.626 1329.55C784.346 1325.66 786.578 1322.28 793.346 1322.28C798.386 1322.28 800.546 1324.36 800.546 1326.67C800.546 1329.91 796.226 1330.12 789.458 1331.28C780.746 1332.72 776.282 1335.6 776.282 1341.72C776.282 1346.9 780.314 1351.29 788.378 1351.29C796.442 1351.29 800.114 1346.61 801.122 1344.31H801.194C801.194 1346.61 801.554 1348.84 801.986 1350.5H808.97C808.322 1348.7 807.746 1345.1 807.746 1341.07V1327.46ZM789.962 1345.96C785.282 1345.96 783.482 1343.73 783.482 1341.21C783.482 1338.48 785.21 1336.82 791.762 1335.74C797.378 1334.8 799.61 1334.3 800.546 1333.51V1335.74C800.546 1342.44 795.578 1345.96 789.962 1345.96Z" fill="white"/>
<rect x="8" y="1713" width="288" height="288" rx="144" fill="#9A2118"/>
<path d="M109.288 1828.46V1835.22H127.072V1879H134.848V1835.22H152.56V1828.46H109.288ZM166.555 1828.46H158.779V1879H193.627V1872.23H166.555V1828.46Z" fill="white"/>
<rect x="346" y="1713" width="295" height="288" rx="144" fill="#67C68F"/>
<path d="M463.984 1863.45H463.84L447.28 1828.46H435.904V1879H443.536V1850.49C443.536 1842.71 443.464 1837.31 443.464 1837.31H443.536L463.696 1879.36H464.056L484.216 1837.31H484.288C484.288 1837.31 484.216 1842.71 484.216 1850.49V1879H491.848V1828.46H480.472L463.984 1863.45ZM544.509 1873.96C549.837 1869.42 553.221 1862.58 553.221 1853.73C553.221 1837.1 541.197 1827.52 527.229 1827.52C513.261 1827.52 501.237 1837.1 501.237 1853.73C501.237 1870.36 513.261 1879.94 527.229 1879.94C531.189 1879.94 535.005 1879.14 538.461 1877.7L546.525 1887.71H555.597L544.509 1873.96ZM509.229 1853.73C509.229 1841.27 517.221 1834.43 527.229 1834.43C537.237 1834.43 545.229 1841.27 545.229 1853.73C545.229 1866.18 537.237 1873.02 527.229 1873.02C517.221 1873.02 509.229 1866.18 509.229 1853.73Z" fill="white"/>
<path d="M-11478 1018V458H3704V1018" stroke="white" stroke-width="8" stroke-dasharray="48 48"/>
</svg>
