<svg width="2024" height="2391" viewBox="0 0 2024 2391" fill="none" xmlns="http://www.w3.org/2000/svg">
<rect width="28368" height="4736" transform="translate(-16410 -425)" fill="#292929"/>
<path d="M-14794 1328H10755" stroke="white" stroke-width="8"/>
<rect x="6" y="1105" width="1318" height="447" rx="223.5" fill="#DA6676"/>
<path d="M424.416 1350.5L411.384 1328.18C419.232 1326.67 422.472 1321.41 422.472 1314.36C422.472 1305.93 417.792 1299.96 406.2 1299.96H377.904V1350.5H385.68V1328.68H403.752L415.992 1350.5H424.416ZM405.624 1306.65C411.816 1306.65 414.624 1309.32 414.624 1314.36C414.624 1319.32 411.816 1321.99 405.624 1321.99H385.68V1306.65H405.624ZM455.038 1338.48C453.454 1342.94 450.142 1345.39 445.318 1345.39C440.062 1345.39 435.526 1341.93 435.454 1335.24H461.014C461.014 1334.66 461.086 1334.16 461.086 1333.58C461.086 1323.07 453.886 1316.52 444.67 1316.52C435.382 1316.52 428.11 1323.43 428.11 1333.87C428.11 1344.52 435.382 1351.29 445.03 1351.29C453.166 1351.29 459.502 1346.68 461.59 1339.92L455.038 1338.48ZM444.598 1321.7C449.062 1321.7 453.022 1324.51 453.526 1330.27H435.526C436.174 1324.72 440.206 1321.7 444.598 1321.7ZM483.717 1335.96C482.421 1339.27 481.125 1342.8 481.125 1342.8H481.053C481.053 1342.8 479.829 1339.27 478.533 1335.96L471.405 1317.31H463.557L477.309 1350.5H484.869L498.549 1317.31H490.917L483.717 1335.96ZM511.799 1309.89V1298.59H504.239V1309.89H511.799ZM511.799 1350.5V1317.31H504.239V1350.5H511.799ZM518.423 1339.77C519.503 1344.67 523.823 1351.15 535.775 1351.15C545.567 1351.15 551.327 1346.47 551.327 1340.49C551.327 1337.68 550.391 1335.45 548.231 1333.72C546.143 1332 542.903 1330.92 536.495 1330.34C530.159 1329.69 527.783 1328.97 527.783 1326.31C527.783 1324.08 530.231 1322.2 535.271 1322.2C540.599 1322.2 543.551 1324.94 544.271 1328.68L550.967 1327.82C549.887 1322.28 545.135 1316.66 535.199 1316.66C525.047 1316.66 520.727 1321.99 520.727 1326.74C520.727 1329.48 521.735 1331.78 523.751 1333.29C525.695 1334.8 528.503 1335.81 535.127 1336.46C541.679 1337.11 544.199 1337.97 544.199 1340.92C544.199 1343.23 541.895 1345.6 535.847 1345.6C529.151 1345.6 525.911 1342.08 525.119 1338.84L518.423 1339.77ZM566.432 1309.89V1298.59H558.872V1309.89H566.432ZM566.432 1350.5V1317.31H558.872V1350.5H566.432ZM594.08 1299.96L588.896 1312.41H595.808L602.648 1299.96H594.08ZM592.352 1316.52C582.776 1316.52 574.712 1323.21 574.712 1333.87C574.712 1344.6 582.776 1351.29 592.352 1351.29C601.856 1351.29 609.92 1344.6 609.92 1333.87C609.92 1323.21 601.856 1316.52 592.352 1316.52ZM592.352 1345.17C587.168 1345.17 582.416 1341.36 582.416 1333.87C582.416 1326.45 587.168 1322.64 592.352 1322.64C597.464 1322.64 602.216 1326.45 602.216 1333.87C602.216 1341.36 597.464 1345.17 592.352 1345.17ZM637.585 1316.88C630.961 1316.88 627.145 1321.34 625.633 1324.22H625.561V1317.31H618.145V1350.5H625.705V1332.07C625.705 1327.6 629.233 1322.92 634.849 1322.92C639.169 1322.92 641.905 1325.52 641.905 1330.41V1350.5H649.465V1329.26C649.465 1321.48 644.857 1316.88 637.585 1316.88ZM716.446 1316.88C709.894 1316.88 706.006 1321.2 704.422 1324.72H704.35C702.838 1319.68 698.806 1316.88 693.334 1316.88C686.926 1316.88 683.254 1321.34 681.742 1324.22H681.67V1317.31H674.254V1350.5H681.814V1332.07C681.814 1327.6 685.27 1322.92 690.526 1322.92C694.774 1322.92 697.438 1325.52 697.438 1330.41V1350.5H704.998V1332.07C704.998 1327.6 708.382 1322.92 713.71 1322.92C717.886 1322.92 720.622 1325.52 720.622 1330.41V1350.5H728.182V1329.26C728.182 1321.48 723.502 1316.88 716.446 1316.88ZM766.754 1327.46C766.754 1320.76 761.21 1316.52 752.354 1316.52C741.842 1316.52 737.234 1322.28 736.082 1328.54L742.634 1329.55C743.354 1325.66 745.586 1322.28 752.354 1322.28C757.394 1322.28 759.554 1324.36 759.554 1326.67C759.554 1329.91 755.234 1330.12 748.466 1331.28C739.754 1332.72 735.29 1335.6 735.29 1341.72C735.29 1346.9 739.322 1351.29 747.386 1351.29C755.45 1351.29 759.122 1346.61 760.13 1344.31H760.202C760.202 1346.61 760.562 1348.84 760.994 1350.5H767.978C767.33 1348.7 766.754 1345.1 766.754 1341.07V1327.46ZM748.97 1345.96C744.29 1345.96 742.49 1343.73 742.49 1341.21C742.49 1338.48 744.218 1336.82 750.77 1335.74C756.386 1334.8 758.618 1334.3 759.554 1333.51V1335.74C759.554 1342.44 754.586 1345.96 748.97 1345.96ZM801.245 1324H801.173C799.157 1320.12 795.341 1316.88 789.509 1316.88C781.805 1316.88 774.821 1322.71 774.821 1333.87C774.821 1345.1 781.805 1350.93 789.509 1350.93C795.341 1350.93 799.157 1347.69 801.173 1343.8H801.245C801.245 1343.8 801.101 1348.92 801.101 1352.88V1363.03H808.661V1317.31H801.245V1324ZM792.029 1344.96C787.349 1344.96 782.525 1341.86 782.525 1333.87C782.525 1325.95 787.349 1322.85 792.029 1322.85C796.133 1322.85 801.389 1325.88 801.389 1333.87C801.389 1341.93 796.133 1344.96 792.029 1344.96ZM842.138 1335.74C842.138 1340.2 838.61 1344.88 833.354 1344.88C828.962 1344.88 826.226 1342.29 826.226 1337.4V1317.31H818.666V1338.48C818.666 1346.25 823.346 1350.93 830.474 1350.93C836.882 1350.93 840.698 1346.47 842.21 1343.59H842.282V1350.5H849.698V1317.31H842.138V1335.74ZM884.929 1338.48C883.345 1342.94 880.033 1345.39 875.209 1345.39C869.953 1345.39 865.417 1341.93 865.345 1335.24H890.905C890.905 1334.66 890.977 1334.16 890.977 1333.58C890.977 1323.07 883.777 1316.52 874.561 1316.52C865.273 1316.52 858.001 1323.43 858.001 1333.87C858.001 1344.52 865.273 1351.29 874.921 1351.29C883.057 1351.29 889.393 1346.68 891.481 1339.92L884.929 1338.48ZM874.489 1321.7C878.953 1321.7 882.913 1324.51 883.417 1330.27H865.417C866.065 1324.72 870.097 1321.7 874.489 1321.7ZM912.08 1344.45C909.056 1344.45 907.832 1343.37 907.832 1340.71V1323.36H916.76V1317.31H907.832V1306H900.272V1317.31H893.792V1323.36H900.272V1341.86C900.272 1348.7 904.304 1350.86 910.496 1350.86C913.088 1350.86 915.536 1350.57 917.12 1350.14V1343.66C915.896 1344.09 913.952 1344.45 912.08 1344.45ZM952.379 1327.46C952.379 1320.76 946.835 1316.52 937.979 1316.52C927.467 1316.52 922.859 1322.28 921.707 1328.54L928.259 1329.55C928.979 1325.66 931.211 1322.28 937.979 1322.28C943.019 1322.28 945.179 1324.36 945.179 1326.67C945.179 1329.91 940.859 1330.12 934.091 1331.28C925.379 1332.72 920.915 1335.6 920.915 1341.72C920.915 1346.9 924.947 1351.29 933.011 1351.29C941.075 1351.29 944.747 1346.61 945.755 1344.31H945.827C945.827 1346.61 946.187 1348.84 946.619 1350.5H953.603C952.955 1348.7 952.379 1345.1 952.379 1341.07V1327.46ZM934.595 1345.96C929.915 1345.96 928.115 1343.73 928.115 1341.21C928.115 1338.48 929.843 1336.82 936.395 1335.74C942.011 1334.8 944.243 1334.3 945.179 1333.51V1335.74C945.179 1342.44 940.211 1345.96 934.595 1345.96Z" fill="white"/>
<rect x="6" y="1713" width="288" height="288" rx="144" fill="#9A2118"/>
<path d="M107.288 1828.46V1835.22H125.072V1879H132.848V1835.22H150.56V1828.46H107.288ZM164.555 1828.46H156.779V1879H191.627V1872.23H164.555V1828.46Z" fill="white"/>
<rect x="344" y="1713" width="295" height="288" rx="144" fill="#67C68F"/>
<path d="M461.984 1863.45H461.84L445.28 1828.46H433.904V1879H441.536V1850.49C441.536 1842.71 441.464 1837.31 441.464 1837.31H441.536L461.696 1879.36H462.056L482.216 1837.31H482.288C482.288 1837.31 482.216 1842.71 482.216 1850.49V1879H489.848V1828.46H478.472L461.984 1863.45ZM542.509 1873.96C547.837 1869.42 551.221 1862.58 551.221 1853.73C551.221 1837.1 539.197 1827.52 525.229 1827.52C511.261 1827.52 499.237 1837.1 499.237 1853.73C499.237 1870.36 511.261 1879.94 525.229 1879.94C529.189 1879.94 533.005 1879.14 536.461 1877.7L544.525 1887.71H553.597L542.509 1873.96ZM507.229 1853.73C507.229 1841.27 515.221 1834.43 525.229 1834.43C535.237 1834.43 543.229 1841.27 543.229 1853.73C543.229 1866.18 535.237 1873.02 525.229 1873.02C515.221 1873.02 507.229 1866.18 507.229 1853.73Z" fill="white"/>
<rect x="689" y="1713" width="290" height="288" rx="144" fill="#FC6028"/>
<path d="M825.728 1873.96C831.056 1869.42 834.44 1862.58 834.44 1853.73C834.44 1837.1 822.416 1827.52 808.448 1827.52C794.48 1827.52 782.456 1837.1 782.456 1853.73C782.456 1870.36 794.48 1879.94 808.448 1879.94C812.408 1879.94 816.224 1879.14 819.68 1877.7L827.744 1887.71H836.816L825.728 1873.96ZM790.448 1853.73C790.448 1841.27 798.44 1834.43 808.448 1834.43C818.456 1834.43 826.448 1841.27 826.448 1853.73C826.448 1866.18 818.456 1873.02 808.448 1873.02C798.44 1873.02 790.448 1866.18 790.448 1853.73ZM887.869 1879L866.413 1828.46H857.773L836.317 1879H844.453L849.637 1866.26H874.189L879.373 1879H887.869ZM857.413 1847.18C859.645 1841.63 861.805 1835.8 861.805 1835.8H861.949C861.949 1835.8 864.181 1841.63 866.413 1847.18L871.597 1859.99H852.229L857.413 1847.18Z" fill="white"/>
<path d="M-13498 1018V458H1684V1018" stroke="white" stroke-width="8" stroke-dasharray="48 48"/>
<circle cx="1684" cy="1062" r="46" stroke="white" stroke-width="8"/>
</svg>
